<svg xmlns="http://www.w3.org/2000/svg" id="el_FvzT4PXEp" width="500" height="560" viewBox="-5.5 -34 500 560">
  <style>
    @-webkit-keyframes el_J6KA8bU1Xk_ksFliI0-r_Animation{0%{-webkit-transform: translate(244.9840588569641px, 0px) translate(-244.9840588569641px, 0px) translate(0px, 30px);transform: translate(244.9840588569641px, 0px) translate(-244.9840588569641px, 0px) translate(0px, 30px);}50%{-webkit-transform: translate(244.9840588569641px, 0px) translate(-244.9840588569641px, 0px) translate(0px, -20px);transform: translate(244.9840588569641px, 0px) translate(-244.9840588569641px, 0px) translate(0px, -20px);}100%{-webkit-transform: translate(244.9840588569641px, 0px) translate(-244.9840588569641px, 0px) translate(0px, 30px);transform: translate(244.9840588569641px, 0px) translate(-244.9840588569641px, 0px) translate(0px, 30px);}}@keyframes el_J6KA8bU1Xk_ksFliI0-r_Animation{0%{-webkit-transform: translate(244.9840588569641px, 0px) translate(-244.9840588569641px, 0px) translate(0px, 30px);transform: translate(244.9840588569641px, 0px) translate(-244.9840588569641px, 0px) translate(0px, 30px);}50%{-webkit-transform: translate(244.9840588569641px, 0px) translate(-244.9840588569641px, 0px) translate(0px, -20px);transform: translate(244.9840588569641px, 0px) translate(-244.9840588569641px, 0px) translate(0px, -20px);}100%{-webkit-transform: translate(244.9840588569641px, 0px) translate(-244.9840588569641px, 0px) translate(0px, 30px);transform: translate(244.9840588569641px, 0px) translate(-244.9840588569641px, 0px) translate(0px, 30px);}}#el_FvzT4PXEp *{-webkit-animation-duration: 3s;animation-duration: 3s;-webkit-animation-iteration-count: infinite;animation-iteration-count: infinite;-webkit-animation-timing-function: cubic-bezier(0, 0, 1, 1);animation-timing-function: cubic-bezier(0, 0, 1, 1);}#el__aRfRLqnxc{-webkit-transform: translate(-4.777px, -44.30042px);transform: translate(-4.777px, -44.30042px);fill: #fff;}#el_gyXQYDXSVP{-webkit-transform: translate(-4.777px, -44.30042px);transform: translate(-4.777px, -44.30042px);fill: #fff;}#el_Che8V9YSfw{-webkit-transform: translate(-4.777px, -44.30042px);transform: translate(-4.777px, -44.30042px);fill: #fff;}#el_O8z2E0nRxL{-webkit-transform: translate(-4.777px, -44.30042px);transform: translate(-4.777px, -44.30042px);fill: #fff;}#el_-rjy-ITHE2{-webkit-transform: translate(-4.777px, -44.30042px);transform: translate(-4.777px, -44.30042px);fill: #fff;}#el_WLKGW8JxdX{-webkit-transform: translate(-4.777px, -44.30042px);transform: translate(-4.777px, -44.30042px);fill: #fff;}#el_NFfagiRXD7{-webkit-transform: translate(-4.777px, -44.30042px);transform: translate(-4.777px, -44.30042px);fill: #fff;}#el_J6KA8bU1Xk_ksFliI0-r{-webkit-animation-name: el_J6KA8bU1Xk_ksFliI0-r_Animation;animation-name: el_J6KA8bU1Xk_ksFliI0-r_Animation;-webkit-transform: translate(244.9840588569641px, 0px) translate(-244.9840588569641px, 0px) translate(0px, 0px);transform: translate(244.9840588569641px, 0px) translate(-244.9840588569641px, 0px) translate(0px, 0px);-webkit-animation-timing-function: cubic-bezier(0.42, 0, 0.58, 1);animation-timing-function: cubic-bezier(0.42, 0, 0.58, 1);}
  </style>
  <g id="el_J6KA8bU1Xk_ksFliI0-r" data-animator-group="true" data-animator-type="0">
    <g id="el_J6KA8bU1Xk">
      <g id="el_VDV0s5V5_V">
        <path id="el__aRfRLqnxc" d="M334.9 307.5c-7.5-27.4-14.2-52.2-20.3-75.9-1.3-5-4.4-6.4-7-7.1-7.2-1.9-14.4-3.8-21.6-5.6-17-4.4-34.5-9-51.7-13.7-6-1.6-10.2-.4-14.7 4.2-15 15.4-31.6 32.1-52.4 52.7-4.3 4.3-3.8 8.6-2.7 12.6 5.9 21.1 12.7 45.6 18.9 69.9 1.9 7.5 5.7 11.4 12.7 13.2 16.2 4.1 32.7 8.5 48.6 12.7l9.1 2.4c3.3.9 6.6 1.9 9.8 2.9 1.5.5 3 .9 4.6 1.4l.3.1a13.66458 13.66458 0 0 0 1.9.2c4 0 6.3-2.7 7.8-4.5a6.53238 6.53238 0 0 1 1.1-1.2l9-9.1c14-14.1 28.5-28.7 42.9-42.9 2.8-2.8 5.4-6.4 3.7-12.3zm-19.8 6.3l-.6.6c-6 6.1-12.1 12.2-18.1 18.1-8.2 8.2-16.8 16.7-25.1 25.2-2.2 2.3-4 2.7-7.5 1.8-20.1-5.6-40.6-11.1-60.9-16.5-3.1-.8-4.2-1.6-5-5.3-4.8-20.1-10.3-40.9-16.5-61.7-1.2-3.9-.7-5.3 1.4-7.3 16.9-17 32-32.3 46.1-46.9a3.8946 3.8946 0 0 1 3-1.4 9.67836 9.67836 0 0 1 2.6.4l11.7 3.3c16.1 4.5 32.7 9.1 49.1 13.5 4.3 1.2 5.7 2.7 6.8 7.8 3 13.5 6.7 27 10.3 40.1 1.5 5.3 3 10.7 4.4 16l1.1 4.4a4.4008 4.4008 0 0 1 .2 1c.7 3.2-.5 4.5-3 6.9z"/>
        <path id="el_gyXQYDXSVP" d="M162 366.9c-9.2 8.9-18.4 18.2-27.4 27.1-6.1 6.2-12.5 12.6-18.8 18.8-.3.3-.6.8-1 1.3-1.2 1.6-2.9 4.1-5.9 4.4h-.6c-1.9 0-3.8-.9-5.8-2.8-2.3-2.2-3.5-4.3-3.5-6.6 0-3.3 2.3-5.5 4.3-7.5l.7-.6c7.8-7.6 15.6-15.5 23.2-23.1 6.3-6.3 12.8-12.9 19.3-19.3 2.7-2.7 3.3-4.3 2.4-7.3-5.6-19.5-10.9-39.5-15.6-57.1v-.1c-.9-3.5-1.3-4.3-3.3-4.8-12.9-3.4-25.9-7-38.5-10.4-6.7-1.8-13.4-3.7-20.1-5.5a5.73837 5.73837 0 0 0-1.2-.1c1.4-.1-2.6-.2-2.6-.2-1.7.1-2.6 1-3.9 2.5-.4.5-.8.9-1.2 1.4-4.7 4.6-9.4 9.4-13.9 14-8.4 8.5-17.1 17.3-25.8 25.7a12.82728 12.82728 0 0 0-1 1.5c-1.2 1.9-3 4.9-6.3 5.4-2.4.3-4.7-.7-7.2-3-2.6-2.4-3.7-4.8-3.5-7.1.3-3.3 2.9-5.2 4.9-6.6a13.1806 13.1806 0 0 0 1.6-1.2c6.8-7.1 13.8-14.2 20.6-21.1 7.7-7.9 15.7-16 23.4-24.1 4.3-4.5 8.7-6.9 16.6-4.6 22 6.5 44.3 12.3 63.3 17.1 7.5 1.9 11.5 6 13.5 13.8 4.4 17.6 9.4 35.3 14.2 52.4 1.2 4.1 2.3 8.3 3.5 12.4 1.6 6.2.2 10.8-4.4 15.3z"/>
        <path id="el_Che8V9YSfw" d="M366.3 155.3a7.35205 7.35205 0 0 0-1.2.9c-7.8 8-15.9 16-23.7 23.8-7.6 7.5-15.4 15.3-23 23.1a12.00279 12.00279 0 0 1-9 4.1 17.08628 17.08628 0 0 1-4.3-.6c-25.4-6.8-48.1-12.8-69.3-18.4-6-1.6-7.3-6.4-7.9-8.9l-2.6-10.2c-4.9-19-10-38.6-15.4-57.7-1.8-6.5-.6-11.3 4-15.9C232.1 77.2 247.1 62 261 47.6c6.3-6.5 11.3-1.7 13.1.1a8.11629 8.11629 0 0 1 2.9 5.6c0 2.9-2 4.8-3.5 6.3a2.65114 2.65114 0 0 1-.6.5c-3.9 3.9-7.7 7.8-11.6 11.6-10.1 10.1-20.6 20.6-31.1 30.7-3.4 3.3-4.2 5.8-3.1 10 2.3 8.7 4.6 17.6 6.9 26.1 2.5 9.5 5 19.4 7.6 29 .9 3.3 1.7 4.9 4.3 5.6 14.2 3.7 28.6 7.7 42.6 11.6 5.7 1.6 11.3 3.1 17 4.7a2.21941 2.21941 0 0 0 .9.1c.3 0 .6.1.9.1l.4.1c.4.1.5.2 1.9-1.5.4-.4.8-.9 1.2-1.3l12.8-12.9c9.9-9.9 19.8-19.8 29.6-29.8l.2-.2c2.2-2.2 4.6-4.6 8.1-4.6a8.99159 8.99159 0 0 1 6.4 3.2c2 2.1 3 4.3 2.8 6.4-.09994 3.3-2.7 5.1-4.4 6.3z"/>
        <path id="el_O8z2E0nRxL" d="M489.5 274.1a15.63657 15.63657 0 0 0-1.7 1.2c-12.7 13-25.7 26.1-38.3 38.8l-6.9 6.9c-.4.4-.7.8-1.1 1.2-1.6 1.7-4 4.4-7.2 4.4a6.51368 6.51368 0 0 1-2.6-.6l-18.2-5c-18.6-5.1-36.1-9.9-53.9-14.8-6.2-1.7-7.6-6.9-8.4-9.7-6.9-25.7-13-48.2-18.8-68.9-1.7-6.2 1-9.9 3.5-12.4 17.8-17.6 33.6-33.3 48.2-48.1 1.6-1.7 4.1-4.2 7.4-4.1 2.9.1 5.1 2.1 6.5 3.5 1.9 2.1 2.8 4.1 2.6 6.1-.2 2.8-2.2 4.4-3.6 5.6-.4.3-.8.7-1.2 1-5.9 5.8-11.9 11.9-17.7 17.7-8.3 8.4-17 17-25.6 25.4-2.7 2.6-2.6 5.2-1.4 9.9 2.9 11.4 6 23 9 34.1 1.9 7 3.8 14 5.6 21 .8 3.2 2.1 4.3 5.6 5.2 19.4 4.9 39.2 10.6 56.7 15.6 3 .8 4.6.3 7.3-2.4 15.7-16.2 28.8-29.3 41.2-41.3a8.54881 8.54881 0 0 0 1.1-1.6c1.3-2.1 3-4.9 6.4-5.3 2.3-.3 4.7.7 7.2 3.1 2.6 2.5 3.8 4.9 3.5 7.2-.5 3.3-3.2 5-5.2 6.3z"/>
        <path id="el_-rjy-ITHE2" d="M286.9 483.5l-1.2 1.2c-17.3 17.7-32.9 33.6-47.7 48.8-1.8 1.8-3.8 3.5-6.5 3.5-2 0-3.9-1-5.9-2.9-2.1-2.1-3.1-4.2-3-6.4 0-2.9 1.8-5.1 3.8-7 5.6-5.5 11.3-11.2 16.8-16.7 8.5-8.4 17.2-17.1 25.9-25.5 3.2-3.1 4-4.7 2.8-8.8-5.2-18-9.8-36.5-14.3-55.4-1.1-4.5-2.5-6.1-6.2-7-17.3-4.4-37.7-9.7-57.7-15.7-2.5-.7-3.1-.1-5.1 2l-.9.9c-5.5 5.5-11 11.1-16.6 16.6-8.3 8.3-16.8 16.9-25.2 25.3a15.38133 15.38133 0 0 0-1.2 1.3c-1.5 1.8-3.6 4.2-6.9 4.3-2.2.1-4.4-.9-6.5-3.1-2.1-2.1-3.1-4.2-2.9-6.3.2-3.1 2.5-5 4.2-6.4.5-.4.9-.7 1.2-1 6.3-6.4 12.7-12.8 18.9-19 8.7-8.7 17.6-17.7 26.3-26.6 5-5.2 9.9-6.5 16.7-4.5 19.5 5.7 39.5 11 58.9 16l5.4 1.4c7 1.8 10.5 5.3 12.2 12.2 3.6 14.8 7.8 29.7 11.8 44.1 1.8 6.3 3.5 12.5 5.2 18.8a34.64987 34.64987 0 0 1 .9 4.8c.2 1.1.4 2.4.7 4.1.7 2.5-1.3 4.4-3.9 7z"/>
        <path id="el_WLKGW8JxdX" d="M431.1 355.5c-2.4 8-8.4 6.3-11.6 5.4l-.3-.1c-8.1-2.3-16.4-4.5-24.4-6.6-11.2-3-22.8-6.1-34.2-9.4-3.8-1.1-5.2-.8-7.4 1.5-15.2 15.7-27.8 28.3-39.6 39.8-4.1 4-5 7.3-3.4 12.7 3.8 12.9 7.3 26 10.6 38.7 1.4 5.2 2.8 10.3 4.1 15.5.4 1.3.7 2.6.9 3.2l.2.8c.2 2.2 1 9.1-6.5 10.2a19.52309 19.52309 0 0 1-2.3.2q-6.3 0-7.8-6l-4.7-17.8q-6.9-26.1-13.6-52.3c-1.3-5.2 2.1-8.3 4.1-10.2l.9-.9c8.5-8.6 17.1-17.3 25.5-25.7 8.1-8.1 16.5-16.6 24.7-24.9 4.7-4.7 9.9-3.3 12.7-2.5q32.25 8.85 64.4 17.8c.4.1.7.2 1.1.3 2 .5 4.8 1.1 6.3 3.7a8.5873 8.5873 0 0 1 .3 6.6z"/>
        <path id="el_NFfagiRXD7" d="M202.6 201.5l-6 5.9c-14.4 14.3-29.3 29-43.8 43.7a10.56565 10.56565 0 0 1-7.6 3.5 13.58993 13.58993 0 0 1-3.8-.6c-20.5-5.8-43.7-12.3-66.3-18.1-2.6-.7-5.1-1.6-6.5-3.9-1.3-2.3-.9-5-.4-7 .7-2.5 1.8-4.2 3.5-5.2 2.4-1.4 4.8-.6 6.8-.1l.9.3c6.9 1.9 14 3.8 20.8 5.6 12.1 3.2 24.6 6.5 36.9 10.1 5.1 1.5 7.6.9 10.9-2.5 7.5-7.9 15.4-15.8 23-23.4 5.2-5.2 10.5-10.5 15.7-15.9.6-.6 1.2-1.2 1.8-1.7a13.45814 13.45814 0 0 0 2.4-2.5l-.2-.5-3.2-12c-4-15-7.8-29.3-11.6-43.7a1.96924 1.96924 0 0 0-.4-.8 6.10533 6.10533 0 0 1-.9-4.8 9.27362 9.27362 0 0 0-.6-2.4c-.7-2.2-1.7-5.1-.2-7.8 1.1-1.9 3-3.2 6-3.8 3.2-.7 5.6-.4 7.6 1 2.8 2.1 3.2 5.7 3.4 8.3.1.9.2 1.8.3 2.4 2.7 9.9 5.3 19.9 7.9 29.7 2.6 10 5.3 20.3 8.1 30.5 1.7 5.8.3 10.9-4.5 15.7z"/>
      </g>
    </g>
  </g>
</svg>
