<?xml version="1.0" encoding="utf-8"?>
<!-- Generator: Adobe Illustrator 22.0.1, SVG Export Plug-In . SVG Version: 6.00 Build 0)  -->
<svg version="1.1" id="Layer_1" xmlns="http://www.w3.org/2000/svg" xmlns:xlink="http://www.w3.org/1999/xlink" x="0px" y="0px"
	 viewBox="0 0 960 312" style="enable-background:new 0 0 960 312;" xml:space="preserve">
<style type="text/css">
	.st0{clip-path:url(#SVGID_20_);}
	.st1{clip-path:url(#SVGID_21_);}
	.st2{clip-path:url(#SVGID_22_);}
	.st3{clip-path:url(#SVGID_23_);}
	.st4{clip-path:url(#SVGID_24_);}
	.st5{clip-path:url(#SVGID_25_);}
	.st6{clip-path:url(#SVGID_26_);}
	.st7{clip-path:url(#SVGID_27_);}
	.st8{clip-path:url(#SVGID_28_);}
	.st9{clip-path:url(#SVGID_29_);}
	.st10{clip-path:url(#SVGID_30_);}
	.st11{clip-path:url(#SVGID_31_);}
	.st12{clip-path:url(#SVGID_32_);}
	.st13{clip-path:url(#SVGID_33_);}
	.st14{clip-path:url(#SVGID_34_);}
	.st15{clip-path:url(#SVGID_35_);}
	.st16{clip-path:url(#SVGID_36_);}
	.st17{clip-path:url(#SVGID_37_);}
	.st18{clip-path:url(#SVGID_38_);}
	.st19{fill:#FFFFFF;}
</style>
<defs>
	<path id="SVGID_1_" d="M653.6,88.9c0,5-4,9-8.9,9c-3.7,0-6.8-2.2-8.2-5.5l-0.1,0c-2.6-4.5-5.7-8.6-9.3-12.2
		c-5.6-5.7-12.2-10.1-19.7-13.4c-7.6-3.3-15.6-4.9-24.1-4.9c-8.5,0-16.5,1.6-24.1,4.9c-7.6,3.3-14.2,7.7-19.8,13.4
		c-5.7,5.7-10.1,12.3-13.4,19.9c-3.2,7.6-4.9,15.8-4.9,24.3h-0.1c0,0.2,0.1,0.4,0.1,0.6c0,5-4,9-8.9,9c-4.9,0-8.9-4-8.9-9
		c0-0.2,0.1-0.4,0.1-0.6h-0.1c0-11,2.1-21.5,6.3-31.3c4.2-9.8,9.9-18.4,17.1-25.7c7.2-7.3,15.7-13.1,25.4-17.3
		c9.7-4.2,20.1-6.3,31.2-6.3c10.9,0,21.3,2.1,31,6.3c9.7,4.2,18.2,10,25.4,17.3c4.8,4.8,8.8,10.2,12.2,16c0.3,0.4,0.5,0.8,0.7,1.2
		c0.1,0.2,0.2,0.4,0.4,0.6l0,0C653.4,86.5,653.6,87.7,653.6,88.9L653.6,88.9z"/>
</defs>
<defs>
	<path id="SVGID_2_" d="M656.8,156.1c-4.2,9.8-9.9,18.4-17.1,25.7c-7.2,7.3-15.7,13.1-25.4,17.3c-9.7,4.2-20,6.3-31,6.3
		c-11.1,0-21.5-2.1-31.2-6.3c-9.7-4.2-18.2-10-25.4-17.3c-5.2-5.3-9.6-11.2-13.2-17.8l0.1,0c-0.5-1.1-0.7-2.3-0.7-3.5c0-5,4-9,8.9-9
		c3.7,0,6.9,2.3,8.2,5.5l0.1,0c2.6,4.4,5.7,8.4,9.2,12.1c5.7,5.7,12.3,10.2,19.8,13.5c7.6,3.3,15.6,4.9,24.1,4.9
		c8.5,0,16.5-1.6,24.1-4.9c7.6-3.3,14.1-7.8,19.7-13.5c5.6-5.7,10-12.4,13.3-20.1c3.2-7.6,4.8-15.7,4.9-24.3c0,0,0,0,0,0
		c0-5,4-9,8.9-9s8.9,4,8.9,9C663.1,135.8,661,146.3,656.8,156.1L656.8,156.1z"/>
</defs>
<defs>
	<path id="SVGID_3_" d="M469.5,83.3c-2.4,0-4.5-0.9-6.3-2.7c-6.1-6.1-12.9-10.8-20.4-13.9c-7.6-3.1-15.5-4.7-23.9-4.7
		c-8.8,0-17,1.6-24.6,4.8c-7.6,3.2-14.3,7.6-19.9,13.1c-5.7,5.5-10.1,12-13.4,19.5c-3.2,7.5-4.9,15.6-4.9,24.3
		c0,8.7,1.6,16.9,5,24.6c3.3,7.7,7.8,14.4,13.5,20.2c5.7,5.7,12.3,10.3,19.9,13.6c7.6,3.3,15.8,5,24.4,5c8.4,0,16.3-1.6,23.9-4.7
		c7.6-3.1,14.4-7.7,20.4-13.7c1.7-1.9,3.8-2.9,6.3-2.9c2.4,0,4.5,1,6.3,2.9c1.9,1.8,2.8,3.9,2.8,6.3c0,2.5-1,4.6-2.8,6.3
		c-7.7,7.8-16.4,13.7-26.1,17.8c-9.7,4.1-20,6.1-30.8,6.1c-11.2,0-21.7-2.1-31.5-6.4c-9.8-4.3-18.3-10.1-25.6-17.5
		c-7.3-7.4-13.1-16-17.3-25.9c-4.3-9.9-6.4-20.5-6.4-31.8c0-11.2,2.1-21.6,6.4-31.4c4.2-9.8,10-18.2,17.3-25.4
		c7.3-7.2,15.8-12.8,25.6-16.9c9.8-4.1,20.3-6.1,31.5-6.1c10.8,0,21.1,2,30.8,6c9.7,4,18.4,9.9,26.1,17.7c1.9,1.9,2.8,4.1,2.8,6.6
		c0,2.5-1,4.6-2.8,6.3C474.1,82.4,472,83.3,469.5,83.3L469.5,83.3z"/>
</defs>
<defs>
	<path id="SVGID_4_" d="M809.7,55L752,199.7c-0.7,1.8-1.7,3.2-3.2,4.2c-1.5,1-3.2,1.5-5.1,1.5c-1.9,0-3.6-0.5-5.1-1.5
		c-1.5-1-2.6-2.4-3.2-4.2l-39.6-98.4l0.1,0l-0.4-1.1c-0.4-1-0.6-2.1-0.6-3.5c0-2.5,0.9-4.6,2.6-6.3c1.7-1.8,3.8-2.7,6.3-2.7
		c1.9,0,3.6,0.5,5.2,1.5c1.6,1,2.7,2.4,3.3,4.2l6.7,16.8l-0.1,0l24.8,61.9l49.4-123.8c0.7-1.8,1.7-3.2,3.2-4.2
		c1.5-1,3.2-1.5,5.1-1.5c2.6,0,4.7,0.9,6.5,2.7c1.7,1.8,2.6,3.9,2.6,6.3C810.5,52.9,810.2,54.1,809.7,55L809.7,55z"/>
</defs>
<defs>
	<path id="SVGID_5_" d="M942.3,199.7c-0.9,2.3-2.6,3.9-4.9,4.9c-1.1,0.5-2.2,0.8-3.4,0.8c-1.7,0-3.4-0.5-5-1.4
		c-1.6-1-2.7-2.3-3.3-4.1l-16-38.1h-73.5l-16,38.1c-0.9,2.3-2.6,4-4.9,4.9c-2.3,1-4.6,0.9-6.9-0.2c-2.3-1-3.9-2.6-4.9-4.9
		c-0.9-2.3-0.9-4.6,0.2-7l18.2-43.6L846,92.5l0.1,0c1.1-3.7,4.5-6.5,8.6-6.5c5,0,9,4.1,9,9.1c0,1-0.2,1.9-0.5,2.8l0.1,0l-19.4,45.6
		H902l-11.2-26.5l-17.7-42c0-0.1-0.1-0.1-0.1-0.2c-2.7-6.5-5.5-13-8.2-19.5c-0.1-0.2-0.2-0.4-0.3-0.6c-0.4-1-0.6-2.1-0.6-3.2
		c0-0.9,0.2-1.8,0.4-2.7c0.2-0.7,0.5-1.3,0.8-1.9c0.2-0.4,0.4-0.7,0.7-1c0.1-0.2,0.3-0.4,0.4-0.5c0.4-0.4,0.8-0.8,1.2-1.1
		c0.1-0.1,0.2-0.3,0.4-0.4c0.9-0.6,1.8-0.9,2.8-1.2c0.2,0,0.3-0.1,0.5-0.1c0.4-0.1,0.8-0.1,1.3-0.1c0.1,0,0.2,0,0.3,0c0,0,0,0,0.1,0
		c0,0,0.1,0,0.1,0c1.8,0,3.4,0.5,4.9,1.4c1,0.6,1.7,1.5,2.3,2.5c0.1,0.2,0.2,0.3,0.3,0.5c0.2,0.4,0.4,0.7,0.6,1.1
		c10.2,24.3,20.4,48.4,30.6,72.3c10.1,23.9,20.3,48,30.6,72.3C943.2,195,943.2,197.4,942.3,199.7L942.3,199.7z"/>
</defs>
<defs>
	<path id="SVGID_6_" d="M390.4,253.2c-0.6,0-1.2-0.2-1.6-0.7c-1.6-1.6-3.4-2.8-5.3-3.6c-2-0.8-4.1-1.2-6.2-1.2
		c-2.3,0-4.4,0.4-6.4,1.3c-2,0.8-3.7,2-5.2,3.4c-1.5,1.4-2.7,3.2-3.5,5.1c-0.8,2-1.3,4.1-1.3,6.4c0,2.3,0.4,4.4,1.3,6.4
		c0.9,2,2,3.8,3.5,5.3c1.5,1.5,3.2,2.7,5.2,3.6c2,0.9,4.1,1.3,6.4,1.3c2.2,0,4.3-0.4,6.2-1.2c2-0.8,3.7-2,5.3-3.6
		c0.5-0.5,1-0.7,1.6-0.7c0.6,0,1.2,0.2,1.6,0.7c0.5,0.5,0.7,1,0.7,1.7c0,0.6-0.2,1.2-0.7,1.7c-2,2-4.3,3.6-6.8,4.6
		c-2.5,1.1-5.2,1.6-8,1.6c-2.9,0-5.7-0.6-8.2-1.7c-2.6-1.1-4.8-2.7-6.7-4.6c-1.9-1.9-3.4-4.2-4.5-6.8c-1.1-2.6-1.7-5.4-1.7-8.3
		c0-2.9,0.6-5.7,1.7-8.2c1.1-2.5,2.6-4.8,4.5-6.6c1.9-1.9,4.1-3.3,6.7-4.4c2.5-1.1,5.3-1.6,8.2-1.6c2.8,0,5.5,0.5,8,1.6
		c2.5,1,4.8,2.6,6.8,4.6c0.5,0.5,0.7,1.1,0.7,1.7c0,0.6-0.2,1.2-0.7,1.7C391.6,253,391.1,253.2,390.4,253.2L390.4,253.2z"/>
</defs>
<defs>
	<path id="SVGID_7_" d="M464.8,272.2c-1.1,2.6-2.6,4.8-4.5,6.7c-1.9,1.9-4.1,3.4-6.6,4.5c-2.5,1.1-5.2,1.7-8.1,1.7
		c-2.9,0-5.6-0.6-8.1-1.7c-2.5-1.1-4.8-2.6-6.6-4.5c-1.9-1.9-3.4-4.1-4.5-6.7c-1.1-2.6-1.6-5.3-1.6-8.2c0-2.9,0.5-5.6,1.6-8.2
		c1.1-2.6,2.6-4.8,4.5-6.7c1.9-1.9,4.1-3.4,6.6-4.5c2.5-1.1,5.3-1.7,8.1-1.7c2.9,0,5.5,0.5,8.1,1.7c2.5,1.1,4.8,2.6,6.6,4.5
		c1.9,1.9,3.4,4.1,4.5,6.7c1.1,2.6,1.6,5.3,1.6,8.2C466.5,266.9,465.9,269.7,464.8,272.2L464.8,272.2z"/>
</defs>
<defs>
	<path id="SVGID_8_" d="M460.5,257.6c-0.8-2-2-3.7-3.5-5.2c-1.5-1.5-3.2-2.7-5.2-3.5c-2-0.8-4.1-1.3-6.3-1.3c-2.2,0-4.3,0.4-6.3,1.3
		c-2,0.9-3.7,2-5.2,3.5c-1.5,1.5-2.6,3.2-3.5,5.2c-0.8,2-1.3,4.1-1.3,6.4c0,2.2,0.4,4.4,1.3,6.4c0.8,2,2,3.7,3.5,5.2
		c1.5,1.5,3.2,2.7,5.2,3.5c2,0.9,4.1,1.3,6.3,1.3c2.2,0,4.3-0.4,6.3-1.3c2-0.8,3.7-2,5.2-3.5c1.5-1.5,2.6-3.2,3.5-5.2
		c0.8-2,1.3-4.1,1.3-6.4C461.8,261.8,461.4,259.6,460.5,257.6L460.5,257.6z"/>
</defs>
<defs>
	<path id="SVGID_9_" d="M530.2,245.8l-15.1,37.8c-0.2,0.5-0.5,0.8-0.9,1.1c-0.4,0.3-0.8,0.4-1.3,0.4c-0.5,0-0.9-0.1-1.3-0.4
		c-0.4-0.3-0.7-0.6-0.8-1.1l-15.1-37.8c-0.1-0.2-0.2-0.5-0.2-0.9c0-0.6,0.2-1.2,0.7-1.6c0.5-0.5,1-0.7,1.6-0.7
		c0.5,0,0.9,0.1,1.3,0.4c0.4,0.3,0.7,0.6,0.9,1.1l12.9,32.3l12.9-32.3c0.2-0.5,0.5-0.8,0.8-1.1c0.4-0.3,0.8-0.4,1.3-0.4
		c0.7,0,1.2,0.2,1.7,0.7c0.5,0.5,0.7,1,0.7,1.6C530.5,245.3,530.4,245.6,530.2,245.8L530.2,245.8z"/>
</defs>
<defs>
	<path id="SVGID_10_" d="M590.4,283.6c-0.2,0.6-0.7,1-1.3,1.3c-0.3,0.1-0.6,0.2-0.9,0.2c-0.5,0-0.9-0.1-1.3-0.4
		c-0.4-0.2-0.7-0.6-0.9-1.1l-4.2-9.9h-19.2l-4.2,9.9c-0.2,0.6-0.7,1-1.3,1.3c-0.6,0.2-1.2,0.2-1.8-0.1c-0.6-0.2-1-0.7-1.3-1.3
		c-0.2-0.6-0.2-1.2,0.1-1.8l4.8-11.4l11.2-26.4c0.2-0.5,0.5-0.8,0.8-1.1c0.4-0.2,0.8-0.4,1.3-0.4c0.5,0,0.9,0.1,1.3,0.4
		c0.4,0.2,0.7,0.6,0.8,1.1c2.7,6.3,5.3,12.6,8,18.9c2.6,6.3,5.3,12.5,8,18.9C590.6,282.4,590.6,283,590.4,283.6L590.4,283.6z"/>
</defs>
<defs>
	<polygon id="SVGID_11_" points="572.3,251 564.7,269 579.8,269 572.3,251 	"/>
</defs>
<defs>
	<path id="SVGID_12_" d="M639.4,284.4c-0.5,0.5-1,0.7-1.7,0.7h-14.1c-0.6,0-1.2-0.2-1.6-0.7c-0.5-0.5-0.7-1-0.7-1.7v-37.5
		c0-0.7,0.2-1.2,0.7-1.7c0.5-0.4,1-0.7,1.6-0.7c0.7,0,1.2,0.2,1.7,0.7c0.4,0.4,0.7,1,0.7,1.7v35.1h11.8c0.7,0,1.2,0.2,1.7,0.7
		c0.5,0.5,0.7,1,0.7,1.6C640.1,283.4,639.9,284,639.4,284.4L639.4,284.4z"/>
</defs>
<defs>
	<path id="SVGID_13_" d="M690.3,247.6h-15.9v13.6h13.4c0.6,0,1.2,0.2,1.6,0.7c0.5,0.5,0.7,1,0.7,1.7c0,0.7-0.2,1.2-0.7,1.7
		c-0.5,0.5-1,0.7-1.6,0.7h-13.4v14.4h15.9c0.7,0,1.2,0.2,1.7,0.7c0.5,0.5,0.7,1,0.7,1.7c0,0.7-0.2,1.2-0.7,1.7
		c-0.5,0.5-1,0.7-1.7,0.7h-18.2c-0.7,0-1.2-0.2-1.7-0.7c-0.5-0.5-0.7-1-0.7-1.7v-0.1v-0.1v-37.2c0-0.6,0.2-1.2,0.7-1.7
		c0.5-0.5,1-0.7,1.7-0.7h18.2c0.7,0,1.2,0.2,1.7,0.7c0.5,0.5,0.7,1,0.7,1.7c0,0.7-0.2,1.2-0.7,1.7
		C691.6,247.4,691,247.6,690.3,247.6L690.3,247.6z"/>
</defs>
<defs>
	<path id="SVGID_14_" d="M751.3,284.4c-0.5,0.5-1,0.7-1.6,0.7c-0.9,0-1.6-0.4-2-1.1l-19.1-30.6v29.3c0,0.7-0.2,1.2-0.7,1.7
		c-0.4,0.5-1,0.7-1.7,0.7c-0.6,0-1.2-0.2-1.6-0.7c-0.5-0.5-0.7-1-0.7-1.7v-37.5c0-0.6,0.2-1.2,0.7-1.7c0.5-0.5,1-0.7,1.6-0.7
		c0.9,0,1.5,0.4,2,1.1l19.1,30.6v-29.3c0-0.6,0.2-1.2,0.7-1.7c0.4-0.5,1-0.7,1.7-0.7c0.6,0,1.2,0.2,1.6,0.7c0.5,0.5,0.7,1,0.7,1.7
		v37.5C752,283.4,751.8,284,751.3,284.4L751.3,284.4z"/>
</defs>
<defs>
	<path id="SVGID_15_" d="M808,247c-0.5,0.4-1,0.7-1.6,0.7h-8.6v35.1c0,0.7-0.2,1.2-0.7,1.7c-0.5,0.5-1,0.7-1.6,0.7
		c-0.7,0-1.2-0.2-1.7-0.7c-0.5-0.5-0.7-1-0.7-1.7v-35.1h-8.6c-0.6,0-1.2-0.2-1.6-0.7c-0.5-0.4-0.7-1-0.7-1.7c0-0.6,0.2-1.2,0.7-1.7
		c0.5-0.5,1-0.7,1.6-0.7h21.8c0.6,0,1.2,0.2,1.6,0.7c0.5,0.5,0.7,1,0.7,1.7C808.7,246,808.5,246.5,808,247L808,247z"/>
</defs>
<defs>
	<path id="SVGID_16_" d="M841.4,284.2c-0.6,0.6-1.3,0.9-2.2,0.9c-0.8,0-1.6-0.3-2.2-0.9c-0.6-0.6-0.9-1.4-0.9-2.2
		c0-0.9,0.3-1.6,0.9-2.2c0.6-0.6,1.3-0.9,2.2-0.9c0.9,0,1.6,0.3,2.2,0.9c0.6,0.6,0.9,1.3,0.9,2.2C842.3,282.8,842,283.5,841.4,284.2
		L841.4,284.2z"/>
</defs>
<defs>
	<path id="SVGID_17_" d="M906.7,283.6c-0.2,0.6-0.7,1-1.3,1.3c-0.3,0.1-0.6,0.2-0.9,0.2c-0.5,0-0.9-0.1-1.3-0.4
		c-0.4-0.2-0.7-0.6-0.9-1.1l-4.2-9.9H879l-4.2,9.9c-0.2,0.6-0.7,1-1.3,1.3c-0.6,0.2-1.2,0.2-1.8-0.1c-0.6-0.2-1-0.7-1.3-1.3
		c-0.2-0.6-0.2-1.2,0.1-1.8l4.8-11.4l11.1-26.4c0.2-0.5,0.5-0.8,0.8-1.1c0.4-0.2,0.8-0.4,1.3-0.4c0.5,0,0.9,0.1,1.3,0.4
		c0.4,0.2,0.7,0.6,0.8,1.1c2.7,6.3,5.3,12.6,8,18.9c2.7,6.3,5.3,12.5,8,18.9C906.9,282.4,906.9,283,906.7,283.6L906.7,283.6z"/>
</defs>
<defs>
	<polygon id="SVGID_18_" points="888.6,251 881,269 896.2,269 888.6,251 	"/>
</defs>
<defs>
	<path id="SVGID_19_" d="M941.6,284.4c-0.5,0.5-1,0.7-1.6,0.7c-0.7,0-1.2-0.2-1.7-0.7c-0.5-0.5-0.7-1-0.7-1.7v-37.5
		c0-0.6,0.2-1.2,0.7-1.7c0.5-0.5,1-0.7,1.7-0.7c0.6,0,1.2,0.2,1.6,0.7c0.5,0.5,0.7,1,0.7,1.7v37.5
		C942.3,283.4,942.1,284,941.6,284.4L941.6,284.4z"/>
</defs>
<use xlink:href="#SVGID_1_"  style="overflow:visible;fill:#FFFFFF;"/>
<use xlink:href="#SVGID_2_"  style="overflow:visible;fill:#FFFFFF;"/>
<use xlink:href="#SVGID_3_"  style="overflow:visible;fill:#FFFFFF;"/>
<use xlink:href="#SVGID_4_"  style="overflow:visible;fill:#FFFFFF;"/>
<use xlink:href="#SVGID_5_"  style="overflow:visible;fill:#FFFFFF;"/>
<use xlink:href="#SVGID_6_"  style="overflow:visible;fill:#FFFFFF;"/>
<use xlink:href="#SVGID_7_"  style="overflow:visible;fill:#FFFFFF;"/>
<use xlink:href="#SVGID_8_"  style="overflow:visible;fill:#FFFFFF;"/>
<use xlink:href="#SVGID_9_"  style="overflow:visible;fill:#FFFFFF;"/>
<use xlink:href="#SVGID_10_"  style="overflow:visible;fill:#FFFFFF;"/>
<use xlink:href="#SVGID_11_"  style="overflow:visible;fill:#FFFFFF;"/>
<use xlink:href="#SVGID_12_"  style="overflow:visible;fill:#FFFFFF;"/>
<use xlink:href="#SVGID_13_"  style="overflow:visible;fill:#FFFFFF;"/>
<use xlink:href="#SVGID_14_"  style="overflow:visible;fill:#FFFFFF;"/>
<use xlink:href="#SVGID_15_"  style="overflow:visible;fill:#FFFFFF;"/>
<use xlink:href="#SVGID_16_"  style="overflow:visible;fill:#FFFFFF;"/>
<use xlink:href="#SVGID_17_"  style="overflow:visible;fill:#FFFFFF;"/>
<use xlink:href="#SVGID_18_"  style="overflow:visible;fill:#FFFFFF;"/>
<use xlink:href="#SVGID_19_"  style="overflow:visible;fill:#FFFFFF;"/>
<clipPath id="SVGID_20_">
	<use xlink:href="#SVGID_1_"  style="overflow:visible;"/>
</clipPath>
<clipPath id="SVGID_21_" class="st0">
	<use xlink:href="#SVGID_2_"  style="overflow:visible;"/>
</clipPath>
<clipPath id="SVGID_22_" class="st1">
	<use xlink:href="#SVGID_3_"  style="overflow:visible;"/>
</clipPath>
<clipPath id="SVGID_23_" class="st2">
	<use xlink:href="#SVGID_4_"  style="overflow:visible;"/>
</clipPath>
<clipPath id="SVGID_24_" class="st3">
	<use xlink:href="#SVGID_5_"  style="overflow:visible;"/>
</clipPath>
<clipPath id="SVGID_25_" class="st4">
	<use xlink:href="#SVGID_6_"  style="overflow:visible;"/>
</clipPath>
<clipPath id="SVGID_26_" class="st5">
	<use xlink:href="#SVGID_7_"  style="overflow:visible;"/>
</clipPath>
<clipPath id="SVGID_27_" class="st6">
	<use xlink:href="#SVGID_8_"  style="overflow:visible;"/>
</clipPath>
<clipPath id="SVGID_28_" class="st7">
	<use xlink:href="#SVGID_9_"  style="overflow:visible;"/>
</clipPath>
<clipPath id="SVGID_29_" class="st8">
	<use xlink:href="#SVGID_10_"  style="overflow:visible;"/>
</clipPath>
<clipPath id="SVGID_30_" class="st9">
	<use xlink:href="#SVGID_11_"  style="overflow:visible;"/>
</clipPath>
<clipPath id="SVGID_31_" class="st10">
	<use xlink:href="#SVGID_12_"  style="overflow:visible;"/>
</clipPath>
<clipPath id="SVGID_32_" class="st11">
	<use xlink:href="#SVGID_13_"  style="overflow:visible;"/>
</clipPath>
<clipPath id="SVGID_33_" class="st12">
	<use xlink:href="#SVGID_14_"  style="overflow:visible;"/>
</clipPath>
<clipPath id="SVGID_34_" class="st13">
	<use xlink:href="#SVGID_15_"  style="overflow:visible;"/>
</clipPath>
<clipPath id="SVGID_35_" class="st14">
	<use xlink:href="#SVGID_16_"  style="overflow:visible;"/>
</clipPath>
<clipPath id="SVGID_36_" class="st15">
	<use xlink:href="#SVGID_17_"  style="overflow:visible;"/>
</clipPath>
<clipPath id="SVGID_37_" class="st16">
	<use xlink:href="#SVGID_18_"  style="overflow:visible;"/>
</clipPath>
<clipPath id="SVGID_38_" class="st17">
	<use xlink:href="#SVGID_19_"  style="overflow:visible;"/>
</clipPath>
<g class="st18">
	<g>
		<path class="st19" d="M214.4,168.8c-4.6-16.6-8.6-31.6-12.3-45.9c-0.8-3-2.7-3.9-4.3-4.3c-4.4-1.1-8.7-2.3-13.1-3.4
			c-10.3-2.7-20.9-5.4-31.3-8.3c-3.6-1-6.2-0.3-8.9,2.5c-9.1,9.3-19.1,19.5-31.7,31.9c-2.6,2.6-2.3,5.2-1.6,7.6
			c3.6,12.8,7.7,27.6,11.5,42.4c1.2,4.5,3.5,6.9,7.7,8c9.8,2.5,19.8,5.1,29.5,7.7l5.5,1.5c2,0.5,4,1.1,6,1.7
			c0.9,0.3,1.8,0.6,2.8,0.8l0.2,0c0.4,0.1,0.8,0.1,1.1,0.1c2.4,0,3.8-1.7,4.7-2.7c0.2-0.3,0.4-0.5,0.6-0.7l5.5-5.5
			c8.5-8.5,17.3-17.4,26-26C213.8,174.6,215.4,172.4,214.4,168.8z M202.4,172.6L202,173c-3.6,3.7-7.3,7.4-10.9,11
			c-5,5-10.2,10.1-15.2,15.3c-1.4,1.4-2.4,1.7-4.5,1.1c-12.2-3.4-24.6-6.7-36.9-10c-1.9-0.5-2.5-1-3-3.2c-2.9-12.2-6.3-24.8-10-37.3
			c-0.7-2.4-0.4-3.2,0.8-4.4c10.2-10.3,19.4-19.6,27.9-28.4c0.5-0.6,1-0.9,1.8-0.9c0.4,0,0.9,0.1,1.6,0.3l7.1,2
			c9.7,2.7,19.8,5.5,29.7,8.2c2.6,0.7,3.4,1.6,4.1,4.7c1.8,8.2,4.1,16.4,6.3,24.3c0.9,3.2,1.8,6.5,2.7,9.7c0.3,0.9,0.5,1.9,0.6,2.6
			c0.1,0.2,0.1,0.4,0.1,0.6C204.6,170.4,203.9,171.2,202.4,172.6z"/>
	</g>
	<g>
		<path class="st19" d="M109.6,204.8c-5.6,5.4-11.2,11-16.6,16.4c-3.7,3.7-7.6,7.6-11.4,11.4c-0.2,0.2-0.4,0.5-0.6,0.8
			c-0.7,1-1.7,2.5-3.6,2.7c-0.1,0-0.3,0-0.4,0c-1.2,0-2.3-0.6-3.5-1.7c-1.4-1.3-2.1-2.6-2.1-4c0-2,1.4-3.3,2.6-4.5l0.4-0.4
			c4.7-4.6,9.5-9.4,14-14c3.8-3.8,7.8-7.8,11.7-11.7c1.7-1.6,2-2.6,1.5-4.4c-3.4-11.8-6.6-23.9-9.5-34.6l0-0.1
			c-0.6-2.1-0.8-2.6-2-2.9c-7.8-2-15.7-4.2-23.3-6.3c-4-1.1-8.1-2.2-12.1-3.3c-0.3-0.1-0.6-0.1-0.7-0.1c0.8,0-1.6-0.1-1.6-0.1
			c-1.1,0-1.6,0.6-2.4,1.5c-0.3,0.3-0.5,0.6-0.8,0.8c-2.8,2.8-5.7,5.7-8.4,8.5c-5.1,5.1-10.3,10.4-15.6,15.5
			c-0.1,0.1-0.4,0.6-0.6,0.9c-0.7,1.2-1.8,3-3.8,3.2c-1.4,0.2-2.8-0.4-4.3-1.8c-1.5-1.5-2.2-2.9-2.1-4.3c0.2-2,1.8-3.2,3-4
			c0.4-0.3,0.8-0.5,1-0.7c4.1-4.3,8.4-8.6,12.5-12.8c4.7-4.8,9.5-9.7,14.2-14.6c2.6-2.7,5.3-4.2,10.1-2.8c13.3,4,26.8,7.5,38.3,10.4
			c4.5,1.1,7,3.6,8.2,8.3c2.7,10.6,5.7,21.4,8.6,31.8c0.7,2.5,1.4,5,2.1,7.5C113.3,199.2,112.5,202.1,109.6,204.8L109.6,204.8z"/>
	</g>
	<g>
		<path class="st19" d="M233.4,76.7c-0.3,0.2-0.6,0.4-0.7,0.6c-4.7,4.8-9.6,9.7-14.4,14.4c-4.6,4.6-9.3,9.3-14,14
			c-1.6,1.7-3.4,2.5-5.4,2.5c-0.8,0-1.7-0.1-2.6-0.4c-15.4-4.1-29.1-7.8-42-11.1c-3.6-0.9-4.4-3.9-4.8-5.4l-1.6-6.2
			c-3-11.5-6-23.4-9.3-35c-1.1-3.9-0.4-6.8,2.4-9.6c11-11.1,20.1-20.3,28.5-29c3.8-3.9,6.8-1.1,8,0c1.2,1.1,1.7,2.2,1.7,3.4
			c0,1.8-1.2,2.9-2.1,3.8c-0.1,0.1-0.2,0.2-0.3,0.3c-2.3,2.3-4.7,4.7-7,7c-6.1,6.1-12.5,12.5-18.8,18.6c-2.1,2-2.5,3.5-1.9,6.1
			c1.4,5.3,2.8,10.6,4.2,15.8c1.5,5.8,3,11.7,4.6,17.6c0.5,2,1,3,2.6,3.4c8.6,2.3,17.3,4.7,25.8,7c3.4,0.9,6.9,1.9,10.3,2.8
			c0.1,0,0.3,0.1,0.5,0.1c0.2,0,0.4,0,0.6,0.1l0.3,0.1c0.2,0.1,0.3,0.1,1.2-0.9c0.2-0.3,0.5-0.5,0.7-0.8l7.8-7.8c6-6,12-12,17.9-18
			l0.1-0.1c1.3-1.3,2.8-2.8,4.9-2.8c0,0,0,0,0,0c1.4,0,2.7,0.7,3.9,1.9c1.2,1.3,1.8,2.6,1.7,3.9C236,74.8,234.4,75.9,233.4,76.7
			L233.4,76.7z"/>
	</g>
	<g>
		<path class="st19" d="M308,148.6c-0.4,0.2-0.8,0.5-1,0.7c-7.7,7.9-15.6,15.8-23.2,23.5l-4.2,4.2c-0.2,0.2-0.4,0.5-0.7,0.7
			c-1,1-2.4,2.6-4.4,2.6c-0.5,0-1-0.1-1.6-0.3l-11-3c-11.2-3.1-21.9-6-32.6-9c-3.8-1-4.6-4.2-5.1-5.9c-4.2-15.6-7.9-29.2-11.4-41.7
			c-1.1-3.8,0.6-6,2.1-7.5c10.8-10.6,20.3-20.2,29.2-29.1c1-1,2.5-2.5,4.5-2.5c1.8,0,3.1,1.2,3.9,2.1c1.1,1.3,1.7,2.5,1.6,3.7
			c-0.1,1.7-1.3,2.7-2.2,3.4c-0.3,0.2-0.5,0.4-0.7,0.6c-3.6,3.5-7.2,7.2-10.7,10.7c-5.1,5.1-10.3,10.3-15.5,15.4
			c-1.6,1.6-1.6,3.1-0.9,6c1.8,6.9,3.7,13.9,5.5,20.7c1.1,4.2,2.3,8.5,3.4,12.7c0.5,1.9,1.3,2.6,3.4,3.1c11.8,3,23.7,6.4,34.3,9.4
			c1.8,0.5,2.8,0.2,4.4-1.5c9.5-9.8,17.5-17.8,25-25c0.2-0.1,0.4-0.6,0.7-1c0.8-1.2,1.8-2.9,3.9-3.2c1.4-0.2,2.9,0.4,4.4,1.9
			c1.6,1.5,2.3,2.9,2.1,4.4C310.8,146.8,309.2,147.8,308,148.6L308,148.6z"/>
	</g>
	<g>
		<path class="st19" d="M185.3,275.3c-0.2,0.2-0.5,0.5-0.7,0.7c-10.5,10.7-19.9,20.4-28.9,29.6c-1.1,1.1-2.3,2.1-3.9,2.1
			c0,0,0,0,0,0c-1.2,0-2.4-0.6-3.6-1.8c-1.2-1.3-1.8-2.5-1.8-3.9c0-1.8,1.1-3.1,2.3-4.2c3.4-3.3,6.8-6.8,10.2-10.1
			c5.1-5.1,10.4-10.4,15.7-15.5c2-1.9,2.4-2.9,1.7-5.4c-3.2-10.9-5.9-22.1-8.7-33.5c-0.6-2.7-1.5-3.7-3.8-4.3
			c-10.5-2.7-22.8-5.9-35-9.5c-1.5-0.4-1.9-0.1-3.1,1.2c-0.2,0.2-0.3,0.4-0.5,0.5c-3.3,3.3-6.7,6.7-10,10.1
			c-5,5-10.2,10.2-15.3,15.3c-0.2,0.2-0.5,0.5-0.7,0.8c-0.9,1.1-2.2,2.5-4.2,2.6c-1.3,0.1-2.6-0.6-4-1.9c-1.3-1.3-1.8-2.5-1.8-3.8
			c0.1-1.9,1.5-3,2.5-3.9c0.3-0.2,0.5-0.4,0.7-0.6c3.8-3.9,7.7-7.8,11.5-11.5c5.2-5.3,10.7-10.7,15.9-16.1c3-3.2,6-3.9,10.1-2.7
			c11.8,3.5,23.9,6.6,35.7,9.7l3.3,0.9c4.2,1.1,6.4,3.2,7.4,7.4c2.2,8.9,4.7,18,7.1,26.7c1.1,3.8,2.1,7.6,3.2,11.4
			c0.2,0.8,0.4,1.7,0.6,2.9c0.1,0.7,0.3,1.5,0.4,2.5C188.1,272.6,186.8,273.8,185.3,275.3L185.3,275.3z"/>
	</g>
	<g>
		<path class="st19" d="M272.6,197.8c-1.4,4.9-5.1,3.8-7,3.3l-0.2-0.1c-4.9-1.4-9.9-2.7-14.8-4c-6.8-1.8-13.8-3.7-20.7-5.7
			c-2.3-0.7-3.1-0.5-4.5,0.9c-9.2,9.5-16.8,17.1-24,24.1c-2.5,2.4-3,4.4-2,7.7c2.3,7.8,4.4,15.8,6.4,23.5c0.8,3.1,1.7,6.3,2.5,9.4
			c0.2,0.8,0.4,1.6,0.5,1.9l0.1,0.5c0.1,1.4,0.6,5.5-3.9,6.2c-0.5,0.1-0.9,0.1-1.4,0.1c-2.5,0-4.1-1.2-4.7-3.6l-2.8-10.8
			c-2.8-10.6-5.5-21.1-8.3-31.7c-0.8-3.1,1.2-5,2.5-6.2c0.2-0.2,0.4-0.4,0.6-0.5c5.1-5.2,10.4-10.5,15.4-15.6
			c4.9-4.9,10-10,14.9-15.1c2.8-2.9,6-2,7.7-1.5c13,3.6,26,7.2,39,10.8c0.2,0.1,0.4,0.1,0.7,0.2c1.2,0.3,2.9,0.7,3.8,2.3
			C273,194.9,273.1,196.2,272.6,197.8L272.6,197.8z"/>
	</g>
	<g>
		<path class="st19" d="M134.2,104.6l-3.6,3.6c-8.7,8.6-17.7,17.6-26.5,26.4c-1.4,1.4-2.9,2.1-4.6,2.1c-0.7,0-1.5-0.1-2.3-0.4
			c-12.4-3.5-26.4-7.4-40.1-11c-1.5-0.4-3.1-1-3.9-2.4c-0.8-1.4-0.5-3-0.2-4.2c0.4-1.5,1.1-2.6,2.1-3.1c1.5-0.8,2.9-0.4,4.1,0
			c0.2,0.1,0.4,0.1,0.6,0.2c4.2,1.1,8.5,2.3,12.6,3.4c7.3,2,14.9,4,22.3,6.1c3.1,0.9,4.6,0.5,6.6-1.5c4.6-4.8,9.3-9.6,13.9-14.2
			c3.1-3.1,6.4-6.4,9.5-9.6c0.4-0.4,0.7-0.7,1.1-1c0.5-0.4,1.4-1.2,1.4-1.5L127,97l-1.9-7.3c-2.4-9.1-4.7-17.8-7-26.4
			c0-0.1-0.1-0.3-0.2-0.5c-0.3-0.7-0.9-1.7-0.5-2.9c0-0.2-0.2-1-0.4-1.5c-0.4-1.3-1-3.1-0.1-4.7c0.6-1.2,1.8-1.9,3.6-2.3
			c1.9-0.4,3.4-0.2,4.6,0.6c1.7,1.3,1.9,3.4,2.1,5c0.1,0.5,0.1,1.1,0.2,1.5c1.6,6,3.2,12.1,4.8,18c1.6,6.1,3.2,12.3,4.9,18.4
			C138,98.6,137.1,101.7,134.2,104.6L134.2,104.6z"/>
	</g>
</g>
</svg>
