<svg xmlns="http://www.w3.org/2000/svg" viewBox="0 0 600 250"><path d="M412.1 167.1l-104.6-39.8c-.9-.3-1.8-.3-2.7 0l-103.9 39.8c-2 .8-3 3-2.2 4.9.4 1 1.2 1.8 2.2 2.2L305.5 214c.4.2.9.3 1.4.3.5 0 .9-.1 1.4-.3l103.9-39.8c2-.8 3-3 2.2-4.9-.4-1-1.2-1.8-2.3-2.2zm-105.2 42.8l-103.2-39.3 102.5-39.3 103.2 39.3-102.5 39.3z" fill="#5059ab"/><path d="M412.1 167.1l-104.6-39.8c-.9-.3-1.8-.3-2.7 0l-103.9 39.8c-2 .8-3 3-2.2 4.9.4 1 1.2 1.8 2.2 2.2L305.5 214c.4.2.9.3 1.4.3.5 0 .9-.1 1.4-.3l103.9-39.8c2-.8 3-3 2.2-4.9-.4-1-1.2-1.8-2.3-2.2zm-105.2 42.8l-103.2-39.3 102.5-39.3 103.2 39.3-102.5 39.3z" fill="#14a0c0"/><path d="M412.1 167.1l-104.6-39.8c-.9-.3-1.8-.3-2.7 0l-103.9 39.8c-2 .8-3 3-2.2 4.9.4 1 1.2 1.8 2.2 2.2L305.5 214c.4.2.9.3 1.4.3.5 0 .9-.1 1.4-.3l103.9-39.8c2-.8 3-3 2.2-4.9-.4-1-1.2-1.8-2.3-2.2zm-105.2 42.8l-103.2-39.3 102.5-39.3 103.2 39.3-102.5 39.3z" fill="#01cc9b"/><path d="M412.1 167.1l-104.6-39.8c-.9-.3-1.8-.3-2.7 0l-103.9 39.8c-2 .8-3 3-2.2 4.9.4 1 1.2 1.8 2.2 2.2L305.5 214c.4.2.9.3 1.4.3.5 0 .9-.1 1.4-.3l103.9-39.8c2-.8 3-3 2.2-4.9-.4-1-1.2-1.8-2.3-2.2zm-105.2 42.8l-103.2-39.3 102.5-39.3 103.2 39.3-102.5 39.3z" fill="#7de314"/></svg>

