<svg xmlns="http://www.w3.org/2000/svg" id="el_9EG4tq3lI8X" viewBox="0 0 521 490">
  <style>
    @-webkit-keyframes el_Dk8FEzzplgS_WtLBTS7LO_Animation{36.67%{-webkit-transform: translate(260.8499517440796px, 245.42241382598877px) scale(1, 1) translate(-260.8499517440796px, -245.42241382598877px);transform: translate(260.8499517440796px, 245.42241382598877px) scale(1, 1) translate(-260.8499517440796px, -245.42241382598877px);}38.33%{-webkit-transform: translate(260.8499517440796px, 245.42241382598877px) scale(0.9, 0.9) translate(-260.8499517440796px, -245.42241382598877px);transform: translate(260.8499517440796px, 245.42241382598877px) scale(0.9, 0.9) translate(-260.8499517440796px, -245.42241382598877px);}41.67%{-webkit-transform: translate(260.8499517440796px, 245.42241382598877px) scale(1, 1) translate(-260.8499517440796px, -245.42241382598877px);transform: translate(260.8499517440796px, 245.42241382598877px) scale(1, 1) translate(-260.8499517440796px, -245.42241382598877px);}0%{-webkit-transform: translate(260.8499517440796px, 245.42241382598877px) scale(1, 1) translate(-260.8499517440796px, -245.42241382598877px);transform: translate(260.8499517440796px, 245.42241382598877px) scale(1, 1) translate(-260.8499517440796px, -245.42241382598877px);}100%{-webkit-transform: translate(260.8499517440796px, 245.42241382598877px) scale(1, 1) translate(-260.8499517440796px, -245.42241382598877px);transform: translate(260.8499517440796px, 245.42241382598877px) scale(1, 1) translate(-260.8499517440796px, -245.42241382598877px);}}@keyframes el_Dk8FEzzplgS_WtLBTS7LO_Animation{36.67%{-webkit-transform: translate(260.8499517440796px, 245.42241382598877px) scale(1, 1) translate(-260.8499517440796px, -245.42241382598877px);transform: translate(260.8499517440796px, 245.42241382598877px) scale(1, 1) translate(-260.8499517440796px, -245.42241382598877px);}38.33%{-webkit-transform: translate(260.8499517440796px, 245.42241382598877px) scale(0.9, 0.9) translate(-260.8499517440796px, -245.42241382598877px);transform: translate(260.8499517440796px, 245.42241382598877px) scale(0.9, 0.9) translate(-260.8499517440796px, -245.42241382598877px);}41.67%{-webkit-transform: translate(260.8499517440796px, 245.42241382598877px) scale(1, 1) translate(-260.8499517440796px, -245.42241382598877px);transform: translate(260.8499517440796px, 245.42241382598877px) scale(1, 1) translate(-260.8499517440796px, -245.42241382598877px);}0%{-webkit-transform: translate(260.8499517440796px, 245.42241382598877px) scale(1, 1) translate(-260.8499517440796px, -245.42241382598877px);transform: translate(260.8499517440796px, 245.42241382598877px) scale(1, 1) translate(-260.8499517440796px, -245.42241382598877px);}100%{-webkit-transform: translate(260.8499517440796px, 245.42241382598877px) scale(1, 1) translate(-260.8499517440796px, -245.42241382598877px);transform: translate(260.8499517440796px, 245.42241382598877px) scale(1, 1) translate(-260.8499517440796px, -245.42241382598877px);}}@-webkit-keyframes el_Dk8FEzzplgS_4gChEk2Wd_Animation{36.67%{-webkit-transform: translate(260.8499517440796px, 245.42241382598877px) rotate(0deg) translate(-260.8499517440796px, -245.42241382598877px);transform: translate(260.8499517440796px, 245.42241382598877px) rotate(0deg) translate(-260.8499517440796px, -245.42241382598877px);}41.67%{-webkit-transform: translate(260.8499517440796px, 245.42241382598877px) rotate(45deg) translate(-260.8499517440796px, -245.42241382598877px);transform: translate(260.8499517440796px, 245.42241382598877px) rotate(45deg) translate(-260.8499517440796px, -245.42241382598877px);}0%{-webkit-transform: translate(260.8499517440796px, 245.42241382598877px) rotate(0deg) translate(-260.8499517440796px, -245.42241382598877px);transform: translate(260.8499517440796px, 245.42241382598877px) rotate(0deg) translate(-260.8499517440796px, -245.42241382598877px);}100%{-webkit-transform: translate(260.8499517440796px, 245.42241382598877px) rotate(45deg) translate(-260.8499517440796px, -245.42241382598877px);transform: translate(260.8499517440796px, 245.42241382598877px) rotate(45deg) translate(-260.8499517440796px, -245.42241382598877px);}}@keyframes el_Dk8FEzzplgS_4gChEk2Wd_Animation{36.67%{-webkit-transform: translate(260.8499517440796px, 245.42241382598877px) rotate(0deg) translate(-260.8499517440796px, -245.42241382598877px);transform: translate(260.8499517440796px, 245.42241382598877px) rotate(0deg) translate(-260.8499517440796px, -245.42241382598877px);}41.67%{-webkit-transform: translate(260.8499517440796px, 245.42241382598877px) rotate(45deg) translate(-260.8499517440796px, -245.42241382598877px);transform: translate(260.8499517440796px, 245.42241382598877px) rotate(45deg) translate(-260.8499517440796px, -245.42241382598877px);}0%{-webkit-transform: translate(260.8499517440796px, 245.42241382598877px) rotate(0deg) translate(-260.8499517440796px, -245.42241382598877px);transform: translate(260.8499517440796px, 245.42241382598877px) rotate(0deg) translate(-260.8499517440796px, -245.42241382598877px);}100%{-webkit-transform: translate(260.8499517440796px, 245.42241382598877px) rotate(45deg) translate(-260.8499517440796px, -245.42241382598877px);transform: translate(260.8499517440796px, 245.42241382598877px) rotate(45deg) translate(-260.8499517440796px, -245.42241382598877px);}}@-webkit-keyframes el_Dk8FEzzplgS_Animation{0%{opacity: 0;}35%{opacity: 0;}36.67%{opacity: 1;}41.67%{opacity: 1;}46.67%{opacity: 0;}100%{opacity: 0;}}@keyframes el_Dk8FEzzplgS_Animation{0%{opacity: 0;}35%{opacity: 0;}36.67%{opacity: 1;}41.67%{opacity: 1;}46.67%{opacity: 0;}100%{opacity: 0;}}@-webkit-keyframes el_jNj_Ojex4_J_YqWL7T-yk_Animation{0%{-webkit-transform: translate(96.92898559570312px, 7.499119758605957px) scale(0.9, 0.9) translate(-96.92898559570312px, -7.499119758605957px);transform: translate(96.92898559570312px, 7.499119758605957px) scale(0.9, 0.9) translate(-96.92898559570312px, -7.499119758605957px);}5%{-webkit-transform: translate(96.92898559570312px, 7.499119758605957px) scale(1, 1) translate(-96.92898559570312px, -7.499119758605957px);transform: translate(96.92898559570312px, 7.499119758605957px) scale(1, 1) translate(-96.92898559570312px, -7.499119758605957px);}100%{-webkit-transform: translate(96.92898559570312px, 7.499119758605957px) scale(1, 1) translate(-96.92898559570312px, -7.499119758605957px);transform: translate(96.92898559570312px, 7.499119758605957px) scale(1, 1) translate(-96.92898559570312px, -7.499119758605957px);}}@keyframes el_jNj_Ojex4_J_YqWL7T-yk_Animation{0%{-webkit-transform: translate(96.92898559570312px, 7.499119758605957px) scale(0.9, 0.9) translate(-96.92898559570312px, -7.499119758605957px);transform: translate(96.92898559570312px, 7.499119758605957px) scale(0.9, 0.9) translate(-96.92898559570312px, -7.499119758605957px);}5%{-webkit-transform: translate(96.92898559570312px, 7.499119758605957px) scale(1, 1) translate(-96.92898559570312px, -7.499119758605957px);transform: translate(96.92898559570312px, 7.499119758605957px) scale(1, 1) translate(-96.92898559570312px, -7.499119758605957px);}100%{-webkit-transform: translate(96.92898559570312px, 7.499119758605957px) scale(1, 1) translate(-96.92898559570312px, -7.499119758605957px);transform: translate(96.92898559570312px, 7.499119758605957px) scale(1, 1) translate(-96.92898559570312px, -7.499119758605957px);}}@-webkit-keyframes el_jNj_Ojex4_J_Animation{0%{opacity: 0;}5%{opacity: 1;}35%{opacity: 1;}38.33%{opacity: 0;}100%{opacity: 0;}}@keyframes el_jNj_Ojex4_J_Animation{0%{opacity: 0;}5%{opacity: 1;}35%{opacity: 1;}38.33%{opacity: 0;}100%{opacity: 0;}}@-webkit-keyframes el_mQ5PsDJvQ_w_dnWvsCSzD_Animation{5%{-webkit-transform: translate(277.8491516113281px, 7.499134063720703px) scale(0.9, 0.9) translate(-277.8491516113281px, -7.499134063720703px);transform: translate(277.8491516113281px, 7.499134063720703px) scale(0.9, 0.9) translate(-277.8491516113281px, -7.499134063720703px);}10%{-webkit-transform: translate(277.8491516113281px, 7.499134063720703px) scale(1, 1) translate(-277.8491516113281px, -7.499134063720703px);transform: translate(277.8491516113281px, 7.499134063720703px) scale(1, 1) translate(-277.8491516113281px, -7.499134063720703px);}0%{-webkit-transform: translate(277.8491516113281px, 7.499134063720703px) scale(0.9, 0.9) translate(-277.8491516113281px, -7.499134063720703px);transform: translate(277.8491516113281px, 7.499134063720703px) scale(0.9, 0.9) translate(-277.8491516113281px, -7.499134063720703px);}100%{-webkit-transform: translate(277.8491516113281px, 7.499134063720703px) scale(1, 1) translate(-277.8491516113281px, -7.499134063720703px);transform: translate(277.8491516113281px, 7.499134063720703px) scale(1, 1) translate(-277.8491516113281px, -7.499134063720703px);}}@keyframes el_mQ5PsDJvQ_w_dnWvsCSzD_Animation{5%{-webkit-transform: translate(277.8491516113281px, 7.499134063720703px) scale(0.9, 0.9) translate(-277.8491516113281px, -7.499134063720703px);transform: translate(277.8491516113281px, 7.499134063720703px) scale(0.9, 0.9) translate(-277.8491516113281px, -7.499134063720703px);}10%{-webkit-transform: translate(277.8491516113281px, 7.499134063720703px) scale(1, 1) translate(-277.8491516113281px, -7.499134063720703px);transform: translate(277.8491516113281px, 7.499134063720703px) scale(1, 1) translate(-277.8491516113281px, -7.499134063720703px);}0%{-webkit-transform: translate(277.8491516113281px, 7.499134063720703px) scale(0.9, 0.9) translate(-277.8491516113281px, -7.499134063720703px);transform: translate(277.8491516113281px, 7.499134063720703px) scale(0.9, 0.9) translate(-277.8491516113281px, -7.499134063720703px);}100%{-webkit-transform: translate(277.8491516113281px, 7.499134063720703px) scale(1, 1) translate(-277.8491516113281px, -7.499134063720703px);transform: translate(277.8491516113281px, 7.499134063720703px) scale(1, 1) translate(-277.8491516113281px, -7.499134063720703px);}}@-webkit-keyframes el_mQ5PsDJvQ_w_Animation{0%{opacity: 0;}5%{opacity: 0;}10%{opacity: 1;}35%{opacity: 1;}38.33%{opacity: 0;}100%{opacity: 0;}}@keyframes el_mQ5PsDJvQ_w_Animation{0%{opacity: 0;}5%{opacity: 0;}10%{opacity: 1;}35%{opacity: 1;}38.33%{opacity: 0;}100%{opacity: 0;}}@-webkit-keyframes el_WNHItZ_5dIP_bgBoOm849_Animation{10%{-webkit-transform: translate(367.2789306640625px, 163.3396453857422px) scale(0.9, 0.9) translate(-367.2789306640625px, -163.3396453857422px);transform: translate(367.2789306640625px, 163.3396453857422px) scale(0.9, 0.9) translate(-367.2789306640625px, -163.3396453857422px);}15%{-webkit-transform: translate(367.2789306640625px, 163.3396453857422px) scale(1, 1) translate(-367.2789306640625px, -163.3396453857422px);transform: translate(367.2789306640625px, 163.3396453857422px) scale(1, 1) translate(-367.2789306640625px, -163.3396453857422px);}0%{-webkit-transform: translate(367.2789306640625px, 163.3396453857422px) scale(0.9, 0.9) translate(-367.2789306640625px, -163.3396453857422px);transform: translate(367.2789306640625px, 163.3396453857422px) scale(0.9, 0.9) translate(-367.2789306640625px, -163.3396453857422px);}100%{-webkit-transform: translate(367.2789306640625px, 163.3396453857422px) scale(1, 1) translate(-367.2789306640625px, -163.3396453857422px);transform: translate(367.2789306640625px, 163.3396453857422px) scale(1, 1) translate(-367.2789306640625px, -163.3396453857422px);}}@keyframes el_WNHItZ_5dIP_bgBoOm849_Animation{10%{-webkit-transform: translate(367.2789306640625px, 163.3396453857422px) scale(0.9, 0.9) translate(-367.2789306640625px, -163.3396453857422px);transform: translate(367.2789306640625px, 163.3396453857422px) scale(0.9, 0.9) translate(-367.2789306640625px, -163.3396453857422px);}15%{-webkit-transform: translate(367.2789306640625px, 163.3396453857422px) scale(1, 1) translate(-367.2789306640625px, -163.3396453857422px);transform: translate(367.2789306640625px, 163.3396453857422px) scale(1, 1) translate(-367.2789306640625px, -163.3396453857422px);}0%{-webkit-transform: translate(367.2789306640625px, 163.3396453857422px) scale(0.9, 0.9) translate(-367.2789306640625px, -163.3396453857422px);transform: translate(367.2789306640625px, 163.3396453857422px) scale(0.9, 0.9) translate(-367.2789306640625px, -163.3396453857422px);}100%{-webkit-transform: translate(367.2789306640625px, 163.3396453857422px) scale(1, 1) translate(-367.2789306640625px, -163.3396453857422px);transform: translate(367.2789306640625px, 163.3396453857422px) scale(1, 1) translate(-367.2789306640625px, -163.3396453857422px);}}@-webkit-keyframes el_WNHItZ_5dIP_Animation{0%{opacity: 0;}10%{opacity: 0;}15%{opacity: 1;}35%{opacity: 1;}38.33%{opacity: 0;}100%{opacity: 0;}}@keyframes el_WNHItZ_5dIP_Animation{0%{opacity: 0;}10%{opacity: 0;}15%{opacity: 1;}35%{opacity: 1;}38.33%{opacity: 0;}100%{opacity: 0;}}@-webkit-keyframes el_xXir7JY0TJL_jlBQhQ2o8_Animation{15%{-webkit-transform: translate(277.8490295410156px, 319.2093811035156px) scale(0.9, 0.9) translate(-277.8490295410156px, -319.2093811035156px);transform: translate(277.8490295410156px, 319.2093811035156px) scale(0.9, 0.9) translate(-277.8490295410156px, -319.2093811035156px);}20%{-webkit-transform: translate(277.8490295410156px, 319.2093811035156px) scale(1, 1) translate(-277.8490295410156px, -319.2093811035156px);transform: translate(277.8490295410156px, 319.2093811035156px) scale(1, 1) translate(-277.8490295410156px, -319.2093811035156px);}0%{-webkit-transform: translate(277.8490295410156px, 319.2093811035156px) scale(0.9, 0.9) translate(-277.8490295410156px, -319.2093811035156px);transform: translate(277.8490295410156px, 319.2093811035156px) scale(0.9, 0.9) translate(-277.8490295410156px, -319.2093811035156px);}100%{-webkit-transform: translate(277.8490295410156px, 319.2093811035156px) scale(1, 1) translate(-277.8490295410156px, -319.2093811035156px);transform: translate(277.8490295410156px, 319.2093811035156px) scale(1, 1) translate(-277.8490295410156px, -319.2093811035156px);}}@keyframes el_xXir7JY0TJL_jlBQhQ2o8_Animation{15%{-webkit-transform: translate(277.8490295410156px, 319.2093811035156px) scale(0.9, 0.9) translate(-277.8490295410156px, -319.2093811035156px);transform: translate(277.8490295410156px, 319.2093811035156px) scale(0.9, 0.9) translate(-277.8490295410156px, -319.2093811035156px);}20%{-webkit-transform: translate(277.8490295410156px, 319.2093811035156px) scale(1, 1) translate(-277.8490295410156px, -319.2093811035156px);transform: translate(277.8490295410156px, 319.2093811035156px) scale(1, 1) translate(-277.8490295410156px, -319.2093811035156px);}0%{-webkit-transform: translate(277.8490295410156px, 319.2093811035156px) scale(0.9, 0.9) translate(-277.8490295410156px, -319.2093811035156px);transform: translate(277.8490295410156px, 319.2093811035156px) scale(0.9, 0.9) translate(-277.8490295410156px, -319.2093811035156px);}100%{-webkit-transform: translate(277.8490295410156px, 319.2093811035156px) scale(1, 1) translate(-277.8490295410156px, -319.2093811035156px);transform: translate(277.8490295410156px, 319.2093811035156px) scale(1, 1) translate(-277.8490295410156px, -319.2093811035156px);}}@-webkit-keyframes el_xXir7JY0TJL_Animation{0%{opacity: 0;}15%{opacity: 0;}20%{opacity: 1;}35%{opacity: 1;}38.33%{opacity: 0;}100%{opacity: 0;}}@keyframes el_xXir7JY0TJL_Animation{0%{opacity: 0;}15%{opacity: 0;}20%{opacity: 1;}35%{opacity: 1;}38.33%{opacity: 0;}100%{opacity: 0;}}@-webkit-keyframes el_zjTe5OYoCIt_0vOtCnCy8_Animation{20%{-webkit-transform: translate(96.9190902709961px, 319.2093505859375px) scale(0.9, 0.9) translate(-96.9190902709961px, -319.2093505859375px);transform: translate(96.9190902709961px, 319.2093505859375px) scale(0.9, 0.9) translate(-96.9190902709961px, -319.2093505859375px);}25%{-webkit-transform: translate(96.9190902709961px, 319.2093505859375px) scale(1, 1) translate(-96.9190902709961px, -319.2093505859375px);transform: translate(96.9190902709961px, 319.2093505859375px) scale(1, 1) translate(-96.9190902709961px, -319.2093505859375px);}0%{-webkit-transform: translate(96.9190902709961px, 319.2093505859375px) scale(0.9, 0.9) translate(-96.9190902709961px, -319.2093505859375px);transform: translate(96.9190902709961px, 319.2093505859375px) scale(0.9, 0.9) translate(-96.9190902709961px, -319.2093505859375px);}100%{-webkit-transform: translate(96.9190902709961px, 319.2093505859375px) scale(1, 1) translate(-96.9190902709961px, -319.2093505859375px);transform: translate(96.9190902709961px, 319.2093505859375px) scale(1, 1) translate(-96.9190902709961px, -319.2093505859375px);}}@keyframes el_zjTe5OYoCIt_0vOtCnCy8_Animation{20%{-webkit-transform: translate(96.9190902709961px, 319.2093505859375px) scale(0.9, 0.9) translate(-96.9190902709961px, -319.2093505859375px);transform: translate(96.9190902709961px, 319.2093505859375px) scale(0.9, 0.9) translate(-96.9190902709961px, -319.2093505859375px);}25%{-webkit-transform: translate(96.9190902709961px, 319.2093505859375px) scale(1, 1) translate(-96.9190902709961px, -319.2093505859375px);transform: translate(96.9190902709961px, 319.2093505859375px) scale(1, 1) translate(-96.9190902709961px, -319.2093505859375px);}0%{-webkit-transform: translate(96.9190902709961px, 319.2093505859375px) scale(0.9, 0.9) translate(-96.9190902709961px, -319.2093505859375px);transform: translate(96.9190902709961px, 319.2093505859375px) scale(0.9, 0.9) translate(-96.9190902709961px, -319.2093505859375px);}100%{-webkit-transform: translate(96.9190902709961px, 319.2093505859375px) scale(1, 1) translate(-96.9190902709961px, -319.2093505859375px);transform: translate(96.9190902709961px, 319.2093505859375px) scale(1, 1) translate(-96.9190902709961px, -319.2093505859375px);}}@-webkit-keyframes el_zjTe5OYoCIt_Animation{0%{opacity: 0;}20%{opacity: 0;}25%{opacity: 1;}35%{opacity: 1;}38.33%{opacity: 0;}100%{opacity: 0;}}@keyframes el_zjTe5OYoCIt_Animation{0%{opacity: 0;}20%{opacity: 0;}25%{opacity: 1;}35%{opacity: 1;}38.33%{opacity: 0;}100%{opacity: 0;}}@-webkit-keyframes el_mcpS9U_OyXr_jBpwwM1hv_Animation{25%{-webkit-transform: translate(7.498984336853027px, 163.3396453857422px) scale(0.9, 0.9) translate(-7.498984336853027px, -163.3396453857422px);transform: translate(7.498984336853027px, 163.3396453857422px) scale(0.9, 0.9) translate(-7.498984336853027px, -163.3396453857422px);}30%{-webkit-transform: translate(7.498984336853027px, 163.3396453857422px) scale(1, 1) translate(-7.498984336853027px, -163.3396453857422px);transform: translate(7.498984336853027px, 163.3396453857422px) scale(1, 1) translate(-7.498984336853027px, -163.3396453857422px);}0%{-webkit-transform: translate(7.498984336853027px, 163.3396453857422px) scale(0.9, 0.9) translate(-7.498984336853027px, -163.3396453857422px);transform: translate(7.498984336853027px, 163.3396453857422px) scale(0.9, 0.9) translate(-7.498984336853027px, -163.3396453857422px);}100%{-webkit-transform: translate(7.498984336853027px, 163.3396453857422px) scale(1, 1) translate(-7.498984336853027px, -163.3396453857422px);transform: translate(7.498984336853027px, 163.3396453857422px) scale(1, 1) translate(-7.498984336853027px, -163.3396453857422px);}}@keyframes el_mcpS9U_OyXr_jBpwwM1hv_Animation{25%{-webkit-transform: translate(7.498984336853027px, 163.3396453857422px) scale(0.9, 0.9) translate(-7.498984336853027px, -163.3396453857422px);transform: translate(7.498984336853027px, 163.3396453857422px) scale(0.9, 0.9) translate(-7.498984336853027px, -163.3396453857422px);}30%{-webkit-transform: translate(7.498984336853027px, 163.3396453857422px) scale(1, 1) translate(-7.498984336853027px, -163.3396453857422px);transform: translate(7.498984336853027px, 163.3396453857422px) scale(1, 1) translate(-7.498984336853027px, -163.3396453857422px);}0%{-webkit-transform: translate(7.498984336853027px, 163.3396453857422px) scale(0.9, 0.9) translate(-7.498984336853027px, -163.3396453857422px);transform: translate(7.498984336853027px, 163.3396453857422px) scale(0.9, 0.9) translate(-7.498984336853027px, -163.3396453857422px);}100%{-webkit-transform: translate(7.498984336853027px, 163.3396453857422px) scale(1, 1) translate(-7.498984336853027px, -163.3396453857422px);transform: translate(7.498984336853027px, 163.3396453857422px) scale(1, 1) translate(-7.498984336853027px, -163.3396453857422px);}}@-webkit-keyframes el_mcpS9U_OyXr_Animation{0%{opacity: 0;}25%{opacity: 0;}30%{opacity: 1;}35%{opacity: 1;}38.33%{opacity: 0;}100%{opacity: 0;}}@keyframes el_mcpS9U_OyXr_Animation{0%{opacity: 0;}25%{opacity: 0;}30%{opacity: 1;}35%{opacity: 1;}38.33%{opacity: 0;}100%{opacity: 0;}}@-webkit-keyframes el_AaiulM1Tjej_dpsumF8PvKW_Animation{30%{-webkit-transform: translate(187.4989776611328px, 162.34254455566406px) scale(0.9, 0.9) translate(-187.4989776611328px, -162.34254455566406px);transform: translate(187.4989776611328px, 162.34254455566406px) scale(0.9, 0.9) translate(-187.4989776611328px, -162.34254455566406px);}35%{-webkit-transform: translate(187.4989776611328px, 162.34254455566406px) scale(1, 1) translate(-187.4989776611328px, -162.34254455566406px);transform: translate(187.4989776611328px, 162.34254455566406px) scale(1, 1) translate(-187.4989776611328px, -162.34254455566406px);}0%{-webkit-transform: translate(187.4989776611328px, 162.34254455566406px) scale(0.9, 0.9) translate(-187.4989776611328px, -162.34254455566406px);transform: translate(187.4989776611328px, 162.34254455566406px) scale(0.9, 0.9) translate(-187.4989776611328px, -162.34254455566406px);}100%{-webkit-transform: translate(187.4989776611328px, 162.34254455566406px) scale(1, 1) translate(-187.4989776611328px, -162.34254455566406px);transform: translate(187.4989776611328px, 162.34254455566406px) scale(1, 1) translate(-187.4989776611328px, -162.34254455566406px);}}@keyframes el_AaiulM1Tjej_dpsumF8PvKW_Animation{30%{-webkit-transform: translate(187.4989776611328px, 162.34254455566406px) scale(0.9, 0.9) translate(-187.4989776611328px, -162.34254455566406px);transform: translate(187.4989776611328px, 162.34254455566406px) scale(0.9, 0.9) translate(-187.4989776611328px, -162.34254455566406px);}35%{-webkit-transform: translate(187.4989776611328px, 162.34254455566406px) scale(1, 1) translate(-187.4989776611328px, -162.34254455566406px);transform: translate(187.4989776611328px, 162.34254455566406px) scale(1, 1) translate(-187.4989776611328px, -162.34254455566406px);}0%{-webkit-transform: translate(187.4989776611328px, 162.34254455566406px) scale(0.9, 0.9) translate(-187.4989776611328px, -162.34254455566406px);transform: translate(187.4989776611328px, 162.34254455566406px) scale(0.9, 0.9) translate(-187.4989776611328px, -162.34254455566406px);}100%{-webkit-transform: translate(187.4989776611328px, 162.34254455566406px) scale(1, 1) translate(-187.4989776611328px, -162.34254455566406px);transform: translate(187.4989776611328px, 162.34254455566406px) scale(1, 1) translate(-187.4989776611328px, -162.34254455566406px);}}@-webkit-keyframes el_AaiulM1Tjej_Animation{0%{opacity: 0;}30%{opacity: 0;}35%{opacity: 1;}38.33%{opacity: 0;}100%{opacity: 0;}}@keyframes el_AaiulM1Tjej_Animation{0%{opacity: 0;}30%{opacity: 0;}35%{opacity: 1;}38.33%{opacity: 0;}100%{opacity: 0;}}@-webkit-keyframes el_9xbL4lD6QtA_hAid5jz6h_Animation{41.67%{-webkit-transform: translate(260.69498443603516px, 245.42000579833984px) rotate(45deg) translate(-260.69498443603516px, -245.42000579833984px);transform: translate(260.69498443603516px, 245.42000579833984px) rotate(45deg) translate(-260.69498443603516px, -245.42000579833984px);}51.67%{-webkit-transform: translate(260.69498443603516px, 245.42000579833984px) rotate(45deg) translate(-260.69498443603516px, -245.42000579833984px);transform: translate(260.69498443603516px, 245.42000579833984px) rotate(45deg) translate(-260.69498443603516px, -245.42000579833984px);}0%{-webkit-transform: translate(260.69498443603516px, 245.42000579833984px) rotate(45deg) translate(-260.69498443603516px, -245.42000579833984px);transform: translate(260.69498443603516px, 245.42000579833984px) rotate(45deg) translate(-260.69498443603516px, -245.42000579833984px);}100%{-webkit-transform: translate(260.69498443603516px, 245.42000579833984px) rotate(45deg) translate(-260.69498443603516px, -245.42000579833984px);transform: translate(260.69498443603516px, 245.42000579833984px) rotate(45deg) translate(-260.69498443603516px, -245.42000579833984px);}}@keyframes el_9xbL4lD6QtA_hAid5jz6h_Animation{41.67%{-webkit-transform: translate(260.69498443603516px, 245.42000579833984px) rotate(45deg) translate(-260.69498443603516px, -245.42000579833984px);transform: translate(260.69498443603516px, 245.42000579833984px) rotate(45deg) translate(-260.69498443603516px, -245.42000579833984px);}51.67%{-webkit-transform: translate(260.69498443603516px, 245.42000579833984px) rotate(45deg) translate(-260.69498443603516px, -245.42000579833984px);transform: translate(260.69498443603516px, 245.42000579833984px) rotate(45deg) translate(-260.69498443603516px, -245.42000579833984px);}0%{-webkit-transform: translate(260.69498443603516px, 245.42000579833984px) rotate(45deg) translate(-260.69498443603516px, -245.42000579833984px);transform: translate(260.69498443603516px, 245.42000579833984px) rotate(45deg) translate(-260.69498443603516px, -245.42000579833984px);}100%{-webkit-transform: translate(260.69498443603516px, 245.42000579833984px) rotate(45deg) translate(-260.69498443603516px, -245.42000579833984px);transform: translate(260.69498443603516px, 245.42000579833984px) rotate(45deg) translate(-260.69498443603516px, -245.42000579833984px);}}@-webkit-keyframes el_9xbL4lD6QtA_Animation{0%{opacity: 0;}41.67%{opacity: 0;}46.67%{opacity: 1;}100%{opacity: 1;}}@keyframes el_9xbL4lD6QtA_Animation{0%{opacity: 0;}41.67%{opacity: 0;}46.67%{opacity: 1;}100%{opacity: 1;}}#el_9EG4tq3lI8X *{-webkit-animation-duration: 2s;animation-duration: 2s;-webkit-animation-iteration-count: infinite;animation-iteration-count: infinite;-webkit-animation-timing-function: cubic-bezier(0, 0, 1, 1);animation-timing-function: cubic-bezier(0, 0, 1, 1);}#el_9xbL4lD6QtA{fill: none;stroke: #fff;stroke-width: 15;-webkit-animation-name: el_9xbL4lD6QtA_Animation;animation-name: el_9xbL4lD6QtA_Animation;opacity: 0;}#el_AaiulM1Tjej{fill: none;stroke: #fff;stroke-width: 15;-webkit-animation-name: el_AaiulM1Tjej_Animation;animation-name: el_AaiulM1Tjej_Animation;opacity: 0;}#el_mcpS9U_OyXr{fill: none;stroke: #fff;stroke-width: 15;-webkit-animation-name: el_mcpS9U_OyXr_Animation;animation-name: el_mcpS9U_OyXr_Animation;opacity: 0;}#el_zjTe5OYoCIt{fill: none;stroke: #fff;stroke-width: 15;-webkit-animation-name: el_zjTe5OYoCIt_Animation;animation-name: el_zjTe5OYoCIt_Animation;opacity: 0;}#el_xXir7JY0TJL{fill: none;stroke: #fff;stroke-width: 15;-webkit-animation-name: el_xXir7JY0TJL_Animation;animation-name: el_xXir7JY0TJL_Animation;opacity: 0;}#el_WNHItZ_5dIP{fill: none;stroke: #fff;stroke-width: 15;-webkit-animation-name: el_WNHItZ_5dIP_Animation;animation-name: el_WNHItZ_5dIP_Animation;opacity: 0;}#el_mQ5PsDJvQ_w{fill: none;stroke: #fff;stroke-width: 15;-webkit-animation-name: el_mQ5PsDJvQ_w_Animation;animation-name: el_mQ5PsDJvQ_w_Animation;opacity: 0;}#el_jNj_Ojex4_J{fill: none;stroke: #fff;stroke-width: 15;-webkit-animation-name: el_jNj_Ojex4_J_Animation;animation-name: el_jNj_Ojex4_J_Animation;opacity: 0;}#el_Dk8FEzzplgS{fill: none;stroke: #fff;stroke-width: 15;-webkit-animation-name: el_Dk8FEzzplgS_Animation;animation-name: el_Dk8FEzzplgS_Animation;opacity: 0;}#el_9xbL4lD6QtA_hAid5jz6h{-webkit-animation-name: el_9xbL4lD6QtA_hAid5jz6h_Animation;animation-name: el_9xbL4lD6QtA_hAid5jz6h_Animation;-webkit-transform: translate(260.69498443603516px, 245.42000579833984px) rotate(45deg) translate(-260.69498443603516px, -245.42000579833984px);transform: translate(260.69498443603516px, 245.42000579833984px) rotate(45deg) translate(-260.69498443603516px, -245.42000579833984px);}#el_AaiulM1Tjej_dpsumF8PvKW{-webkit-animation-name: el_AaiulM1Tjej_dpsumF8PvKW_Animation;animation-name: el_AaiulM1Tjej_dpsumF8PvKW_Animation;-webkit-transform: translate(187.4989776611328px, 162.34254455566406px) scale(0.9, 0.9) translate(-187.4989776611328px, -162.34254455566406px);transform: translate(187.4989776611328px, 162.34254455566406px) scale(0.9, 0.9) translate(-187.4989776611328px, -162.34254455566406px);}#el_mcpS9U_OyXr_jBpwwM1hv{-webkit-animation-name: el_mcpS9U_OyXr_jBpwwM1hv_Animation;animation-name: el_mcpS9U_OyXr_jBpwwM1hv_Animation;-webkit-transform: translate(7.498984336853027px, 163.3396453857422px) scale(0.9, 0.9) translate(-7.498984336853027px, -163.3396453857422px);transform: translate(7.498984336853027px, 163.3396453857422px) scale(0.9, 0.9) translate(-7.498984336853027px, -163.3396453857422px);}#el_zjTe5OYoCIt_0vOtCnCy8{-webkit-animation-name: el_zjTe5OYoCIt_0vOtCnCy8_Animation;animation-name: el_zjTe5OYoCIt_0vOtCnCy8_Animation;-webkit-transform: translate(96.9190902709961px, 319.2093505859375px) scale(0.9, 0.9) translate(-96.9190902709961px, -319.2093505859375px);transform: translate(96.9190902709961px, 319.2093505859375px) scale(0.9, 0.9) translate(-96.9190902709961px, -319.2093505859375px);}#el_xXir7JY0TJL_jlBQhQ2o8{-webkit-animation-name: el_xXir7JY0TJL_jlBQhQ2o8_Animation;animation-name: el_xXir7JY0TJL_jlBQhQ2o8_Animation;-webkit-transform: translate(277.8490295410156px, 319.2093811035156px) scale(0.9, 0.9) translate(-277.8490295410156px, -319.2093811035156px);transform: translate(277.8490295410156px, 319.2093811035156px) scale(0.9, 0.9) translate(-277.8490295410156px, -319.2093811035156px);}#el_WNHItZ_5dIP_bgBoOm849{-webkit-animation-name: el_WNHItZ_5dIP_bgBoOm849_Animation;animation-name: el_WNHItZ_5dIP_bgBoOm849_Animation;-webkit-transform: translate(367.2789306640625px, 163.3396453857422px) scale(0.9, 0.9) translate(-367.2789306640625px, -163.3396453857422px);transform: translate(367.2789306640625px, 163.3396453857422px) scale(0.9, 0.9) translate(-367.2789306640625px, -163.3396453857422px);}#el_mQ5PsDJvQ_w_dnWvsCSzD{-webkit-animation-name: el_mQ5PsDJvQ_w_dnWvsCSzD_Animation;animation-name: el_mQ5PsDJvQ_w_dnWvsCSzD_Animation;-webkit-transform: translate(277.8491516113281px, 7.499134063720703px) scale(0.9, 0.9) translate(-277.8491516113281px, -7.499134063720703px);transform: translate(277.8491516113281px, 7.499134063720703px) scale(0.9, 0.9) translate(-277.8491516113281px, -7.499134063720703px);}#el_jNj_Ojex4_J_YqWL7T-yk{-webkit-animation-name: el_jNj_Ojex4_J_YqWL7T-yk_Animation;animation-name: el_jNj_Ojex4_J_YqWL7T-yk_Animation;-webkit-transform: translate(96.92898559570312px, 7.499119758605957px) scale(0.9, 0.9) translate(-96.92898559570312px, -7.499119758605957px);transform: translate(96.92898559570312px, 7.499119758605957px) scale(0.9, 0.9) translate(-96.92898559570312px, -7.499119758605957px);}#el_Dk8FEzzplgS_4gChEk2Wd{-webkit-animation-name: el_Dk8FEzzplgS_4gChEk2Wd_Animation;animation-name: el_Dk8FEzzplgS_4gChEk2Wd_Animation;-webkit-transform: translate(260.8499517440796px, 245.42241382598877px) rotate(0deg) translate(-260.8499517440796px, -245.42241382598877px);transform: translate(260.8499517440796px, 245.42241382598877px) rotate(0deg) translate(-260.8499517440796px, -245.42241382598877px);}#el_Dk8FEzzplgS_WtLBTS7LO{-webkit-animation-name: el_Dk8FEzzplgS_WtLBTS7LO_Animation;animation-name: el_Dk8FEzzplgS_WtLBTS7LO_Animation;-webkit-transform: translate(260.8499517440796px, 245.42241382598877px) scale(1, 1) translate(-260.8499517440796px, -245.42241382598877px);transform: translate(260.8499517440796px, 245.42241382598877px) scale(1, 1) translate(-260.8499517440796px, -245.42241382598877px);}
  </style>
  <g id="el_9xbL4lD6QtA_hAid5jz6h" data-animator-group="true" data-animator-type="1">
    <g id="el_9xbL4lD6QtA">
      <g id="el_wTeiyQXkesk" stroke-linecap="round">
        <path id="el_jgJTMN0VYXr" stroke-miterlimit="10" d="M277.85 56.86l.76 67.07a15 15 0 0 0 7.65 12.91l58.46 32.87a15 15 0 0 0 15-.17l57.7-34.19a15 15 0 0 0 7.35-13.08l-.76-67.07"/>
        <path id="el_D2rPvDaFR1y" stroke-linejoin="round" d="M432.33 165.42l-57.7 34.19a15 15 0 0 0-7.35 13.08l.76 67.06a15 15 0 0 0 7.65 12.91l58.46 32.87"/>
        <path id="el_Hdn6AS4msai" stroke-miterlimit="10" d="M424.78 433.98l-.76-67.07a15 15 0 0 0-7.64-12.91l-58.47-32.87a15 15 0 0 0-15 .17l-57.7 34.19a15 15 0 0 0-7.36 13.08l.76 67.07"/>
      </g>
      <path id="el_jU_5bWXk9P4" stroke-miterlimit="10" d="M252.5 164.42l-57.65 34.22a15 15 0 0 0-7.35 13.08l.76 67.06a15 15 0 0 0 7.59 12.91l58.46 32.87a15 15 0 0 0 15-.17l57.7-34.19a15 15 0 0 0 7.35-13.08l-.76-67.06a15 15 0 0 0-7.65-12.91l-58.46-32.87a15 15 0 0 0-14.99.14z"/>
      <g id="el_VzyKXU8_BeO" stroke-linecap="round">
        <path id="el_t7OjzDl5-y4" stroke-miterlimit="10" d="M243.53 56.86l-.76 67.07a15 15 0 0 1-7.65 12.91l-58.46 32.87a15 15 0 0 1-15-.17l-57.7-34.19a15 15 0 0 1-7.35-13.08l.76-67.07"/>
        <path id="el_isxQKlcpqB6" stroke-linejoin="round" d="M89.06 165.42l57.7 34.19a15 15 0 0 1 7.35 13.08l-.76 67.06a15 15 0 0 1-7.65 12.91l-58.46 32.87"/>
        <path id="el_9oXGGzXZGw9" stroke-miterlimit="10" d="M96.61 433.98l.76-67.07a15 15 0 0 1 7.65-12.91l58.46-32.87a15 15 0 0 1 15 .17l57.7 34.19a15 15 0 0 1 7.35 13.08l-.76 67.07"/>
      </g>
    </g>
  </g>
  <g id="el_AaiulM1Tjej_dpsumF8PvKW" data-animator-group="true" data-animator-type="2">
    <path id="el_AaiulM1Tjej" stroke-miterlimit="10" d="M252.5 164.42l-57.65 34.22a15 15 0 0 0-7.35 13.08l.76 67.06a15 15 0 0 0 7.59 12.91l58.46 32.87a15 15 0 0 0 15-.17l57.7-34.19a15 15 0 0 0 7.35-13.08l-.76-67.06a15 15 0 0 0-7.65-12.91l-58.46-32.87a15 15 0 0 0-14.99.14z"/>
  </g>
  <g id="el_mcpS9U_OyXr_jBpwwM1hv" data-animator-group="true" data-animator-type="2">
    <path id="el_mcpS9U_OyXr" stroke-miterlimit="10" d="M89.37 165.42l57.7 34.19a15 15 0 0 1 7.35 13.08l-.76 67.06a15 15 0 0 1-7.65 12.91l-58.46 32.9a15 15 0 0 1-15-.17l-57.7-34.19a15 15 0 0 1-7.35-13.08l.76-67.06a15 15 0 0 1 7.65-12.91l58.46-32.87a15 15 0 0 1 15 .14z" data-name="6"/>
  </g>
  <g id="el_zjTe5OYoCIt_0vOtCnCy8" data-animator-group="true" data-animator-type="2">
    <path id="el_zjTe5OYoCIt" stroke-miterlimit="10" d="M178.79 321.3l57.7 34.19a15 15 0 0 1 7.36 13.08l-.76 67.07a15 15 0 0 1-7.65 12.9l-58.47 32.88a15 15 0 0 1-15-.17l-57.7-34.19a15 15 0 0 1-7.35-13.07l.76-67.07a15 15 0 0 1 7.64-12.91l58.47-32.87a15 15 0 0 1 15 .16z" data-name="5"/>
  </g>
  <g id="el_xXir7JY0TJL_jlBQhQ2o8" data-animator-group="true" data-animator-type="2">
    <path id="el_xXir7JY0TJL" stroke-miterlimit="10" d="M342.91 321.3l-57.7 34.19a15 15 0 0 0-7.36 13.08l.76 67.07a15 15 0 0 0 7.65 12.9l58.47 32.88a15 15 0 0 0 15-.17l57.7-34.19a15 15 0 0 0 7.35-13.07l-.76-67.07a15 15 0 0 0-7.64-12.91l-58.47-32.87a15 15 0 0 0-15 .16z" data-name="4"/>
  </g>
  <g id="el_WNHItZ_5dIP_bgBoOm849" data-animator-group="true" data-animator-type="2">
    <path id="el_WNHItZ_5dIP" stroke-miterlimit="10" d="M432.33 165.42l-57.7 34.19a15 15 0 0 0-7.35 13.08l.76 67.06a15 15 0 0 0 7.65 12.91l58.46 32.87a15 15 0 0 0 15-.17l57.7-34.16a15 15 0 0 0 7.35-13.08l-.76-67.06a15 15 0 0 0-7.65-12.91l-58.46-32.87a15 15 0 0 0-15 .14z" data-name="3"/>
  </g>
  <g id="el_mQ5PsDJvQ_w_dnWvsCSzD" data-animator-group="true" data-animator-type="2">
    <path id="el_mQ5PsDJvQ_w" stroke-miterlimit="10" d="M342.91 9.6l-57.7 34.19a15 15 0 0 0-7.36 13.07l.76 67.07a15 15 0 0 0 7.65 12.91l58.46 32.87a15 15 0 0 0 15-.17l57.7-34.19a15 15 0 0 0 7.35-13.08l-.76-67.07a15 15 0 0 0-7.64-12.9L357.91 9.42a15 15 0 0 0-15 .18z" data-name="2"/>
  </g>
  <g id="el_jNj_Ojex4_J_YqWL7T-yk" data-animator-group="true" data-animator-type="2">
    <path id="el_jNj_Ojex4_J" stroke-miterlimit="10" d="M178.79 9.6l57.7 34.19a15 15 0 0 1 7.36 13.07l-.76 67.07a15 15 0 0 1-7.65 12.91l-58.46 32.87a15 15 0 0 1-15-.17l-57.7-34.19a15 15 0 0 1-7.35-13.08l.76-67.07a15 15 0 0 1 7.64-12.9l58.46-32.88a15 15 0 0 1 15 .18z" data-name="1"/>
  </g>
  <g id="el_Dk8FEzzplgS_4gChEk2Wd" data-animator-group="true" data-animator-type="1">
    <g id="el_Dk8FEzzplgS_WtLBTS7LO" data-animator-group="true" data-animator-type="2">
      <g id="el_Dk8FEzzplgS">
        <g id="el_bMxppvoIajs" stroke-linecap="round">
          <path id="el_ow3fb2PaiaY" stroke-miterlimit="10" d="M277.85 56.86l.76 67.07a15 15 0 0 0 7.65 12.91l58.46 32.87a15 15 0 0 0 15-.17l57.7-34.19a15 15 0 0 0 7.35-13.08l-.76-67.07"/>
          <path id="el_uvOR4oEGEVp" stroke-linejoin="round" d="M432.33 165.42l-57.7 34.19a15 15 0 0 0-7.35 13.08l.76 67.06a15 15 0 0 0 7.65 12.91l58.46 32.87"/>
          <path id="el_07Li8ZZOPz6" stroke-miterlimit="10" d="M424.78 433.98l-.76-67.07a15 15 0 0 0-7.64-12.91l-58.47-32.87a15 15 0 0 0-15 .17l-57.7 34.19a15 15 0 0 0-7.36 13.08l.76 67.07"/>
        </g>
        <path id="el_PUTkTzVDmXX" stroke-miterlimit="10" d="M252.5 164.42l-57.65 34.22a15 15 0 0 0-7.35 13.08l.76 67.06a15 15 0 0 0 7.59 12.91l58.46 32.87a15 15 0 0 0 15-.17l57.7-34.19a15 15 0 0 0 7.35-13.08l-.76-67.06a15 15 0 0 0-7.65-12.91l-58.46-32.87a15 15 0 0 0-14.99.14z"/>
        <g id="el_VKQ1pJE3cvp" stroke-linecap="round">
          <path id="el_ChhrDaS3Lq0" stroke-miterlimit="10" d="M243.53 56.86l-.76 67.07a15 15 0 0 1-7.65 12.91l-58.46 32.87a15 15 0 0 1-15-.17l-57.7-34.19a15 15 0 0 1-7.35-13.08l.76-67.07"/>
          <path id="el_g782jWSXLXv" stroke-linejoin="round" d="M89.06 165.42l57.7 34.19a15 15 0 0 1 7.35 13.08l-.76 67.06a15 15 0 0 1-7.65 12.91l-58.46 32.87"/>
          <path id="el_tsDVe0vEIZr" stroke-miterlimit="10" d="M96.61 433.98l.76-67.07a15 15 0 0 1 7.65-12.91l58.46-32.87a15 15 0 0 1 15 .17l57.7 34.19a15 15 0 0 1 7.35 13.08l-.76 67.07"/>
        </g>
        <path id="el_fQVN30uFnZ5" stroke-miterlimit="10" d="M252.5 164.42l-57.65 34.22a15 15 0 0 0-7.35 13.08l.76 67.06a15 15 0 0 0 7.59 12.91l58.46 32.87a15 15 0 0 0 15-.17l57.7-34.19a15 15 0 0 0 7.35-13.08l-.76-67.06a15 15 0 0 0-7.65-12.91l-58.46-32.87a15 15 0 0 0-14.99.14zm-163.13 1l57.7 34.19a15 15 0 0 1 7.35 13.08l-.76 67.06a15 15 0 0 1-7.65 12.91l-58.46 32.9a15 15 0 0 1-15-.17l-57.7-34.19a15 15 0 0 1-7.35-13.08l.76-67.06a15 15 0 0 1 7.65-12.91l58.46-32.87a15 15 0 0 1 15 .14zm89.42 155.88l57.7 34.19a15 15 0 0 1 7.36 13.08l-.76 67.07a15 15 0 0 1-7.65 12.9l-58.47 32.88a15 15 0 0 1-15-.17l-57.7-34.19a15 15 0 0 1-7.35-13.07l.76-67.07a15 15 0 0 1 7.64-12.91l58.47-32.87a15 15 0 0 1 15 .16zm164.12 0l-57.7 34.19a15 15 0 0 0-7.36 13.08l.76 67.07a15 15 0 0 0 7.65 12.9l58.47 32.88a15 15 0 0 0 15-.17l57.7-34.19a15 15 0 0 0 7.35-13.07l-.76-67.07a15 15 0 0 0-7.64-12.91l-58.47-32.87a15 15 0 0 0-15 .16zm89.42-155.88l-57.7 34.19a15 15 0 0 0-7.35 13.08l.76 67.06a15 15 0 0 0 7.65 12.91l58.46 32.87a15 15 0 0 0 15-.17l57.7-34.16a15 15 0 0 0 7.35-13.08l-.76-67.06a15 15 0 0 0-7.65-12.91l-58.46-32.87a15 15 0 0 0-15 .14zM342.91 9.6l-57.7 34.19a15 15 0 0 0-7.36 13.07l.76 67.07a15 15 0 0 0 7.65 12.91l58.46 32.87a15 15 0 0 0 15-.17l57.7-34.19a15 15 0 0 0 7.35-13.08l-.76-67.07a15 15 0 0 0-7.64-12.9L357.91 9.42a15 15 0 0 0-15 .18zm-164.12 0l57.7 34.19a15 15 0 0 1 7.36 13.07l-.76 67.07a15 15 0 0 1-7.65 12.91l-58.46 32.87a15 15 0 0 1-15-.17l-57.7-34.19a15 15 0 0 1-7.35-13.08l.76-67.07a15 15 0 0 1 7.64-12.9l58.46-32.88a15 15 0 0 1 15 .18z"/>
      </g>
    </g>
  </g>
</svg>
