<svg xmlns="http://www.w3.org/2000/svg" id="Layer_2" viewBox="0 0 262 570">
  <style>
    .st0{fill:#7de314}.st1{fill:#01cc9b}.st2{fill:none}.st3{fill:#5059ab}.st4{fill:#fff}.st5{fill:#14a0c0}
  </style>
  <path d="M131.2 121.2c-.5 0-.8.1-.8.3v17.1h1.6v-17.1c0-.2-.4-.3-.8-.3z" class="st0"/>
  <path d="M131.2 135.4c-.3 0-.7 0-1 .1-1.5.4-2.6 1.8-2.6 3.4 0 2 1.6 3.6 3.6 3.6s3.6-1.6 3.6-3.6c0-1.6-1.1-3-2.6-3.4-.4-.1-.7-.1-1-.1zM131.2 117.6c-.3 0-.7 0-1 .1-1.5.4-2.6 1.8-2.6 3.4 0 2 1.6 3.6 3.6 3.6s3.6-1.6 3.6-3.6c0-1.6-1.1-3-2.6-3.4-.4 0-.7-.1-1-.1z" class="st0"/>
  <path d="M21.8 75.2h-3.1l-.5 1.5H16l3-8.4h2.4l3 8.4h-2.2l-.4-1.5zm-1.5-4.7l-1 3.1h2.1l-1.1-3.1zM29.5 69.9c1.6 0 3 1.3 3 3.4 0 2.1-1.3 3.5-3 3.5-1 0-1.7-.5-2.1-1v4.1h-2.1V70h2.1v.9c.5-.6 1.2-1 2.1-1zm-.6 1.8c-.8 0-1.5.6-1.5 1.7s.7 1.7 1.5 1.7 1.5-.6 1.5-1.7-.7-1.7-1.5-1.7zM37.7 69.9c1.6 0 3 1.3 3 3.4 0 2.1-1.3 3.5-3 3.5-1 0-1.7-.5-2.1-1v4.1h-2.1V70h2.1v.9c.4-.6 1.1-1 2.1-1zm-.6 1.8c-.8 0-1.5.6-1.5 1.7s.7 1.7 1.5 1.7 1.5-.6 1.5-1.7-.7-1.7-1.5-1.7zM41.7 67.8h2.1v8.9h-2.1v-8.9zM45.1 68.2c0-.6.5-1.1 1.2-1.1s1.2.5 1.2 1.1c0 .6-.5 1.1-1.2 1.1s-1.2-.5-1.2-1.1zm.2 1.8h2.1v6.7h-2.1V70zM51.8 69.9c1.7 0 2.9.9 3.2 2.5h-2.2c-.2-.5-.5-.8-1.1-.8-.7 0-1.2.6-1.2 1.7S51 75 51.7 75c.6 0 .9-.3 1.1-.8H55c-.3 1.5-1.5 2.5-3.2 2.5-2 0-3.4-1.3-3.4-3.4 0-2.1 1.4-3.4 3.4-3.4zM58.6 69.9c1 0 1.7.5 2.1 1V70h2.1v6.7h-2.1v-.9c-.4.6-1.1 1-2.1 1-1.6 0-2.9-1.3-2.9-3.5 0-2.1 1.3-3.4 2.9-3.4zm.6 1.8c-.8 0-1.5.6-1.5 1.6s.7 1.7 1.5 1.7 1.5-.6 1.5-1.7-.7-1.6-1.5-1.6zM64.5 71.7h-.8V70h.8v-1.6h2.1V70h1.3v1.7h-1.3v2.7c0 .4.2.6.6.6h.7v1.7h-1c-1.4 0-2.4-.6-2.4-2.3v-2.7zM68.9 68.2c0-.6.5-1.1 1.2-1.1s1.2.5 1.2 1.1c0 .6-.5 1.1-1.2 1.1s-1.2-.5-1.2-1.1zm.2 1.8h2.1v6.7h-2.1V70zM75.7 76.8c-2 0-3.5-1.3-3.5-3.4 0-2.1 1.5-3.4 3.5-3.4s3.5 1.3 3.5 3.4c0 2-1.6 3.4-3.5 3.4zm0-1.8c.7 0 1.4-.5 1.4-1.7 0-1.1-.7-1.7-1.4-1.7s-1.4.5-1.4 1.7c0 1.1.6 1.7 1.4 1.7zM84.9 73c0-.9-.5-1.4-1.3-1.4s-1.3.5-1.3 1.4v3.6h-2.1V70h2.1v.9c.4-.6 1.1-1 2-1 1.5 0 2.6 1.1 2.6 2.9v3.9h-2V73zM93 68.2V75h2.7v1.6H91v-8.4h2zM99.2 69.9c1 0 1.7.5 2.1 1V70h2.1v6.7h-2.1v-.9c-.4.6-1.1 1-2.1 1-1.6 0-2.9-1.3-2.9-3.5-.1-2.1 1.2-3.4 2.9-3.4zm.6 1.8c-.8 0-1.5.6-1.5 1.6S99 75 99.8 75s1.5-.6 1.5-1.7-.8-1.6-1.5-1.6zM109.4 70h2.2l-4.2 9.9h-2.2l1.5-3.4L104 70h2.3l1.5 4.2 1.6-4.2zM115.3 76.8c-2 0-3.4-1.3-3.4-3.4 0-2.1 1.4-3.4 3.4-3.4s3.3 1.3 3.3 3.3v.6H114c.1.9.6 1.3 1.3 1.3.6 0 .9-.3 1.1-.6h2.2c-.4 1.1-1.6 2.2-3.3 2.2zm-1.3-4.1h2.6c0-.7-.6-1.2-1.3-1.2-.7 0-1.2.4-1.3 1.2zM121.8 76.7h-2.1V70h2.1v1.1c.5-.7 1.2-1.2 2.1-1.2v2.2h-.6c-1 0-1.5.3-1.5 1.5v3.1zM125.8 71.9c-.7 0-1.2-.5-1.2-1.1 0-.6.5-1.1 1.2-1.1s1.2.5 1.2 1.1c.1.6-.4 1.1-1.2 1.1zm0 4.9c-.7 0-1.2-.5-1.2-1.1 0-.6.5-1.1 1.2-1.1s1.2.5 1.2 1.1c.1.6-.4 1.1-1.2 1.1zM130.8 68.2h5.5v1.6h-3.4v1.8h2.6v1.6h-2.6v3.4h-2.1v-8.4zM140.4 76.8c-2 0-3.5-1.3-3.5-3.4 0-2.1 1.5-3.4 3.5-3.4s3.5 1.3 3.5 3.4c.1 2-1.5 3.4-3.5 3.4zm0-1.8c.7 0 1.4-.5 1.4-1.7 0-1.1-.7-1.7-1.4-1.7s-1.4.5-1.4 1.7c.1 1.1.7 1.7 1.4 1.7zM147.1 76.7H145V70h2.1v1.1c.5-.7 1.2-1.2 2.1-1.2v2.2h-.6c-1 0-1.5.3-1.5 1.5v3.1zM155.7 76.8c-2 0-3.4-1.3-3.4-3.4 0-2.1 1.4-3.4 3.4-3.4s3.3 1.3 3.3 3.3v.6h-4.6c.1.9.6 1.3 1.3 1.3.6 0 .9-.3 1.1-.6h2.2c-.4 1.1-1.6 2.2-3.3 2.2zm-1.3-4.1h2.6c0-.7-.6-1.2-1.3-1.2-.7 0-1.2.4-1.3 1.2zM164.7 73c0-.9-.5-1.4-1.3-1.4s-1.3.5-1.3 1.4v3.6H160V70h2.1v.9c.4-.6 1.1-1 2-1 1.5 0 2.6 1.1 2.6 2.9v3.9h-2V73zM170.7 69.9c.9 0 1.7.4 2.1 1v-3.1h2.1v8.9h-2.1v-1c-.4.6-1.1 1.1-2.1 1.1-1.6 0-3-1.3-3-3.5.1-2.1 1.4-3.4 3-3.4zm.6 1.8c-.8 0-1.5.6-1.5 1.6s.7 1.7 1.5 1.7 1.5-.6 1.5-1.7-.7-1.6-1.5-1.6zM185.5 76.7h-2.1v-.9c-.4.6-1.1 1-2 1-1.5 0-2.6-1.1-2.6-2.9V70h2v3.6c0 .9.5 1.4 1.3 1.4s1.3-.5 1.3-1.4V70h2.1v6.7zM189.7 76.8c-1.8 0-3-1-3.1-2.3h2c0 .5.5.8 1 .8s.8-.2.8-.5c0-1.1-3.6-.3-3.6-2.8 0-1.1 1-2.1 2.7-2.1 1.7 0 2.7 1 2.8 2.3h-1.9c-.1-.5-.4-.8-1-.8-.5 0-.7.2-.7.5 0 1.1 3.6.3 3.7 2.8 0 1.2-1 2.1-2.7 2.1zM196.7 76.8c-2 0-3.4-1.3-3.4-3.4 0-2.1 1.4-3.4 3.4-3.4s3.3 1.3 3.3 3.3v.6h-4.6c.1.9.6 1.3 1.3 1.3.6 0 .9-.3 1.1-.6h2.2c-.5 1.1-1.7 2.2-3.3 2.2zm-1.4-4.1h2.6c0-.7-.6-1.2-1.3-1.2-.6 0-1.2.4-1.3 1.2zM203.1 76.7H201V70h2.1v1.1c.5-.7 1.2-1.2 2.1-1.2v2.2h-.6c-1 0-1.5.3-1.5 1.5v3.1zM215.4 76.7h-2.1v-.9c-.4.6-1.1 1-2 1-1.5 0-2.6-1.1-2.6-2.9V70h2v3.6c0 .9.5 1.4 1.3 1.4s1.3-.5 1.3-1.4V70h2.1v6.7zM219.6 76.8c-1.8 0-3-1-3.1-2.3h2c0 .5.5.8 1 .8s.8-.2.8-.5c0-1.1-3.6-.3-3.6-2.8 0-1.1 1-2.1 2.7-2.1 1.7 0 2.7 1 2.8 2.3h-1.9c-.1-.5-.4-.8-1-.8-.5 0-.7.2-.7.5 0 1.1 3.6.3 3.7 2.8 0 1.2-1.1 2.1-2.7 2.1zM226.1 69.9c1 0 1.7.5 2.1 1V70h2.1v6.7h-2.1v-.9c-.4.6-1.1 1-2.1 1-1.6 0-2.9-1.3-2.9-3.5-.1-2.1 1.2-3.4 2.9-3.4zm.6 1.8c-.8 0-1.5.6-1.5 1.6s.7 1.7 1.5 1.7 1.5-.6 1.5-1.7-.7-1.6-1.5-1.6zM234.2 69.9c1 0 1.7.4 2.1 1V70h2.1v6.7c0 1.8-1 3.3-3.3 3.3-2 0-3.3-1-3.5-2.6h2c.1.5.6.8 1.3.8.8 0 1.4-.4 1.4-1.5v-.9c-.4.6-1.1 1.1-2.1 1.1-1.6 0-3-1.3-3-3.5.1-2.2 1.4-3.5 3-3.5zm.6 1.8c-.8 0-1.5.6-1.5 1.6s.7 1.7 1.5 1.7 1.5-.6 1.5-1.7-.7-1.6-1.5-1.6zM242.8 76.8c-2 0-3.4-1.3-3.4-3.4 0-2.1 1.4-3.4 3.4-3.4s3.3 1.3 3.3 3.3v.6h-4.6c.1.9.6 1.3 1.3 1.3.6 0 .9-.3 1.1-.6h2.2c-.4 1.1-1.6 2.2-3.3 2.2zm-1.3-4.1h2.6c0-.7-.6-1.2-1.3-1.2-.7 0-1.2.4-1.3 1.2z"/>
  <g>
    <path d="M82.4 90.9c0 2.2-1.4 3.5-3.7 3.5h-2.2v-7h2.2c2.3 0 3.7 1.4 3.7 3.5zm-3.7 2.8c1.8 0 2.8-1 2.8-2.7s-.9-2.8-2.8-2.8h-1.3v5.5h1.3zM85.8 88.8c1 0 1.7.5 2 1.1v-1h.9v5.5h-.9v-1c-.3.6-1 1.1-2 1.1-1.5 0-2.6-1.1-2.6-2.8 0-1.8 1.2-2.9 2.6-2.9zm.2.8c-1 0-1.8.7-1.8 2s.8 2 1.8 2 1.9-.7 1.9-2c0-1.2-.9-2-1.9-2zM90.5 89.7h-.7V89h.7v-1.4h.9V89h1.4v.7h-1.4v3.2c0 .5.2.7.8.7h.7v.8h-.8c-1 0-1.5-.4-1.5-1.5v-3.2zM96.2 88.8c1 0 1.7.5 2 1.1v-1h.9v5.5h-.9v-1c-.3.6-1 1.1-2 1.1-1.5 0-2.6-1.1-2.6-2.8 0-1.8 1.2-2.9 2.6-2.9zm.2.8c-1 0-1.8.7-1.8 2s.8 2 1.8 2 1.9-.7 1.9-2c0-1.2-.9-2-1.9-2zM106.6 94.5c-2 0-3.5-1.5-3.5-3.6s1.5-3.6 3.5-3.6 3.5 1.5 3.5 3.6-1.6 3.6-3.5 3.6zm0-.8c1.5 0 2.6-1.1 2.6-2.8 0-1.7-1.1-2.8-2.6-2.8s-2.6 1.1-2.6 2.8c0 1.7 1.1 2.8 2.6 2.8zM110.6 88.9h.9l1.3 4.6 1.4-4.6h.9l1.3 4.6 1.2-4.6h.9l-1.7 5.5h-.9l-1.3-4.3-1.3 4.3h-.9l-1.8-5.5zM123.5 91.3c0-1.1-.6-1.7-1.5-1.7s-1.6.6-1.6 1.8v3h-.9v-5.5h.9v.8c.4-.6 1-.9 1.8-.9 1.3 0 2.2.8 2.2 2.3v3.2h-.9v-3zM128.2 94.5c-1.6 0-2.7-1.1-2.7-2.8 0-1.7 1.1-2.8 2.7-2.8s2.6 1.1 2.6 2.6v.5h-4.4c.1 1.1.8 1.7 1.8 1.7.8 0 1.3-.4 1.5-1h1c-.2 1-1.1 1.8-2.5 1.8zm-1.7-3.2h3.5c0-1.1-.8-1.7-1.7-1.7-1 0-1.7.6-1.8 1.7zM133 94.4h-.9v-5.5h.9v.9c.3-.6.9-1 1.8-1v.9h-.2c-.9 0-1.5.4-1.5 1.7v3zM136.1 90.2c-.3 0-.6-.3-.6-.6 0-.4.3-.6.6-.6s.6.3.6.6-.3.6-.6.6zm0 4.3c-.3 0-.6-.3-.6-.6s.3-.6.6-.6.6.3.6.6-.3.6-.6.6zM144.7 92.9h-3l-.6 1.5h-1l2.5-6.9h1l2.5 6.9h-1l-.4-1.5zm-1.5-4.3l-1.3 3.5h2.5l-1.2-3.5zM149.6 91.5h-1.3v2.9h-.9v-7h2.2c1.6 0 2.4.9 2.4 2s-.7 2.1-2.4 2.1zm0-.8c1 0 1.5-.5 1.5-1.3s-.4-1.3-1.5-1.3h-1.3v2.6h1.3zM153.1 87.4h.9v7h-.9v-7zM158.1 85h.9l-2.7 11.1h-.9l2.7-11.1zM162.6 88.8c.9 0 1.6.4 2 1.1V87h.9v7.4h-.9v-1c-.3.6-1 1.1-2 1.1-1.5 0-2.6-1.1-2.6-2.8 0-1.8 1.1-2.9 2.6-2.9zm.2.8c-1 0-1.8.7-1.8 2s.8 2 1.8 2 1.9-.7 1.9-2c-.1-1.2-.9-2-1.9-2zM171.2 92.9h-3l-.6 1.5h-1l2.5-6.9h1l2.5 6.9h-1l-.4-1.5zm-1.5-4.3l-1.3 3.5h2.5l-1.2-3.5zM176.8 88.8c1.5 0 2.6 1.1 2.6 2.8 0 1.7-1.1 2.8-2.6 2.8-1 0-1.7-.5-2-1.1V97h-.9v-8.1h.9v1c.3-.5 1-1.1 2-1.1zm-.2.8c-1 0-1.9.8-1.9 2 0 1.3.9 2 1.9 2 1 0 1.9-.8 1.9-2s-.9-2-1.9-2zM183.6 88.8c1.5 0 2.6 1.1 2.6 2.8 0 1.7-1.1 2.8-2.6 2.8-1 0-1.7-.5-2-1.1V97h-.9v-8.1h.9v1c.2-.5 1-1.1 2-1.1zm-.2.8c-1 0-1.9.8-1.9 2 0 1.3.9 2 1.9 2 1 0 1.9-.8 1.9-2-.1-1.2-.9-2-1.9-2zM87.6 102.9c0 2.2-1.4 3.5-3.7 3.5h-2.2v-7h2.2c2.3 0 3.7 1.4 3.7 3.5zm-3.7 2.8c1.8 0 2.8-1 2.8-2.7s-.9-2.8-2.8-2.8h-1.3v5.5h1.3zM91.1 100.8c1 0 1.7.5 2 1.1v-1h.9v5.5h-.9v-1c-.3.6-1 1.1-2 1.1-1.5 0-2.6-1.1-2.6-2.8 0-1.8 1.1-2.9 2.6-2.9zm.2.8c-1 0-1.8.7-1.8 2s.8 2 1.8 2 1.9-.7 1.9-2c-.1-1.2-.9-2-1.9-2zM95.8 101.7h-.7v-.7h.7v-1.4h.9v1.4h1.4v.7h-1.4v3.2c0 .5.2.7.8.7h.7v.8h-.8c-1 0-1.5-.4-1.5-1.5v-3.2zM101.5 100.8c1 0 1.7.5 2 1.1v-1h.9v5.5h-.9v-1c-.3.6-1 1.1-2 1.1-1.5 0-2.6-1.1-2.6-2.8 0-1.8 1.1-2.9 2.6-2.9zm.2.8c-1 0-1.8.7-1.8 2s.8 2 1.8 2 1.9-.7 1.9-2c-.1-1.2-.9-2-1.9-2zM108.6 99.4h.9v4.4c0 1.3.7 1.8 1.7 1.8s1.7-.5 1.7-1.8v-4.4h.9v4.4c0 1.8-1.2 2.6-2.6 2.6s-2.6-.8-2.6-2.6v-4.4zM117.3 106.5c-1.3 0-2.2-.7-2.2-1.7h.9c0 .5.5.9 1.3.9.7 0 1.1-.4 1.1-.8 0-1.2-3.2-.5-3.2-2.5 0-.8.8-1.5 2-1.5s2 .7 2.1 1.7h-.9c0-.5-.5-.9-1.2-.9s-1.1.3-1.1.8c0 1.3 3.2.6 3.2 2.5 0 .8-.8 1.5-2 1.5zM123 106.5c-1.6 0-2.7-1.1-2.7-2.8 0-1.7 1.1-2.8 2.7-2.8s2.6 1.1 2.6 2.6v.5h-4.4c.1 1.1.8 1.7 1.8 1.7.8 0 1.3-.4 1.5-1h1c-.3 1-1.2 1.8-2.5 1.8zm-1.8-3.2h3.5c0-1.1-.8-1.7-1.7-1.7-.9 0-1.7.6-1.8 1.7zM127.7 106.4h-.9v-5.5h.9v.9c.3-.6.9-1 1.8-1v.9h-.2c-.9 0-1.5.4-1.5 1.7v3zM130.8 102.2c-.3 0-.6-.3-.6-.6 0-.4.3-.6.6-.6s.6.3.6.6-.2.6-.6.6zm0 4.3c-.3 0-.6-.3-.6-.6s.3-.6.6-.6.6.3.6.6-.2.6-.6.6zM139.5 104.9h-3l-.6 1.5h-1l2.5-6.9h1l2.5 6.9h-1l-.4-1.5zm-1.6-4.3l-1.3 3.5h2.5l-1.2-3.5zM144.3 103.5H143v2.9h-.9v-7h2.2c1.6 0 2.4.9 2.4 2s-.6 2.1-2.4 2.1zm0-.8c1 0 1.5-.5 1.5-1.3s-.4-1.3-1.5-1.3H143v2.6h1.3zM147.9 99.4h.9v7h-.9v-7zM152.8 97h.9l-2.7 11.1h-.9l2.7-11.1zM157.4 100.8c.9 0 1.6.4 2 1.1V99h.9v7.4h-.9v-1c-.3.6-1 1.1-2 1.1-1.5 0-2.6-1.1-2.6-2.8 0-1.8 1.1-2.9 2.6-2.9zm.1.8c-1 0-1.8.7-1.8 2s.8 2 1.8 2 1.9-.7 1.9-2c0-1.2-.9-2-1.9-2zM166 104.9h-3l-.6 1.5h-1l2.5-6.9h1l2.5 6.9h-1l-.4-1.5zm-1.5-4.3l-1.3 3.5h2.5l-1.2-3.5zM171.6 100.8c1.5 0 2.6 1.1 2.6 2.8 0 1.7-1.1 2.8-2.6 2.8-1 0-1.7-.5-2-1.1v3.6h-.9v-8.1h.9v1c.2-.4 1-1 2-1zm-.2.8c-1 0-1.9.8-1.9 2 0 1.3.9 2 1.9 2 1 0 1.9-.8 1.9-2-.1-1.2-.9-2-1.9-2zM178.3 100.8c1.5 0 2.6 1.1 2.6 2.8 0 1.7-1.1 2.8-2.6 2.8-1 0-1.7-.5-2-1.1v3.6h-.9v-8.1h.9v1c.3-.4 1-1 2-1zm-.2.8c-1 0-1.9.8-1.9 2 0 1.3.9 2 1.9 2 1 0 1.9-.8 1.9-2s-.9-2-1.9-2z"/>
  </g>
  <path d="M136.6 154.9h10l-1.9 3.8h-10l1.9-3.8zm9.1 12.9v-8.3l1.3-2.5v7.9l-1.3 2.9zm-1.3 2.3H140v-5.7h-1.3v5.7h-4.4V160h10.1v10.1zm-5.6 3.8h-2.5c-.2 0-.5.1-.6.3l-2.5 5.1c0 .1-.1.2-.1.3v5.1h-3.8v-10.1c0-.3-.3-.6-.6-.6H121v-2.5h5.1c.2 0 .5-.1.6-.4l2.4-5.3h4v5.1c0 .3.3.6.6.6h5.1v2.4zm7.8 1.3l-1.9 3.8H140v-3.8h6.6zm-.9 12.8v-8.3l1.3-2.5v7.9l-1.3 2.9zm-11-9l1.9-3.8h2.1v3.8h-4zm9.7 11.4h-10.1V186h5.7v-1.3h-5.7v-4.4h10.1v10.1zm-17.7-2.4v-2.1h.9l-.9 2.1zm-1.2 2.4h-10.1v-10.1h4.4v5.7h1.3v-5.7h4.4v10.1zm.2-11.4H121v-3.8h6.6l-1.9 3.8zm2.3 5.7h-1.3v-4.9l1.3-2.5v7.4zm-10.4-9.5h2.1v3.8h-4l1.9-3.8zm-2.3-15.2h10.1v4.4h-5.7v1.3h5.7v4.4h-10.1V160zm2.3-5.1h10l-1.9 3.8h-10l1.9-3.8zm9.1 9.5v-4.9l1.3-2.5v7.4h-1.3zm0 1.3h.9l-.9 2.1v-2.1zm6.4-1.3h-3.8v-10.1c0-.3-.3-.6-.6-.6h-11.4c-.2 0-.5.1-.6.3l-2.5 5.1c0 .1-.1.2-.1.3v11.4c0 .3.3.6.6.6h5.1v2.5h-2.5c-.2 0-.5.1-.6.3l-2.5 5.1c0 .1-.1.2-.1.3V191c0 .3.3.6.6.6h11.4c.2 0 .5-.1.6-.4l2.4-5.3h4v5.1c0 .3.3.6.6.6h11.4c.2 0 .5-.1.6-.4l2.5-5.7c0-.1.1-.2.1-.3v-10.8c0-.3-.3-.6-.6-.6H140v-2.5h5.1c.2 0 .5-.1.6-.4l2.5-5.7c0-.1.1-.2.1-.3v-10.8c0-.3-.3-.6-.6-.6h-11.4c-.2 0-.5.1-.6.3l-2.5 5.1c0 .1-.1.2-.1.3v5.2z" class="st1"/>
  <rect width="28.6" height="31.8" x="890.7" y="381.1" class="st2"/>
  <g>
    <path d="M137.4 470.9a2 2 0 0 0 2-2V460a2 2 0 0 0-2-2H125a2 2 0 0 0-2 2v8.9c0 1.1.9 2 2 2h5.5v1.7h-1.7c-.4 0-.8.3-.8.8 0 .4.3.8.8.8h5c.4 0 .8-.3.8-.8 0-.4-.3-.8-.8-.8h-1.7v-1.7h5.3zm-12.5-1.5c-.3 0-.5-.2-.5-.5V460c0-.3.2-.5.5-.5h12.4c.3 0 .5.2.5.5v8.9c0 .3-.2.5-.5.5h-12.4zm0 0M126.9 476.5h-12.4a2 2 0 0 0-2 2v8.9c0 1.1.9 2 2 2h5.5v1.7h-1.7c-.4 0-.8.3-.8.8 0 .4.3.8.8.8h5c.4 0 .8-.3.8-.8 0-.4-.3-.8-.8-.8h-1.7v-1.7h5.5a2 2 0 0 0 2-2v-8.9c-.1-1-1-2-2.2-2zm.6 11c0 .3-.2.5-.5.5h-12.4c-.3 0-.5-.2-.5-.5v-8.9c0-.3.2-.5.5-.5H127c.3 0 .5.2.5.5v8.9zm0 0M147.8 476.5h-12.4a2 2 0 0 0-2 2v8.9c0 1.1.9 2 2 2h5.5v1.7h-1.7c-.4 0-.8.3-.8.8 0 .4.3.8.8.8h5c.4 0 .8-.3.8-.8 0-.4-.3-.8-.8-.8h-1.7v-1.7h5.5a2 2 0 0 0 2-2v-8.9c-.1-1-1-2-2.2-2zm.6 11c0 .3-.2.5-.5.5h-12.4c-.3 0-.5-.2-.5-.5v-8.9c0-.3.2-.5.5-.5h12.4c.3 0 .5.2.5.5v8.9zm0 0M114.6 463.2v10.2c0 .4.3.8.8.8.4 0 .8-.3.8-.8V464h4.1c.4 0 .8-.3.8-.8 0-.4-.3-.8-.8-.8h-4.8c-.6 0-.9.4-.9.8zm0 0M147 474.1c.4 0 .8-.3.8-.8v-10.2c0-.4-.3-.8-.8-.8h-4.8c-.4 0-.8.3-.8.8 0 .4.3.8.8.8h4.1v9.4c0 .5.3.8.7.8zm0 0" class="st3"/>
  </g>
  <g>
    <path d="M112.8 42.2h36.6v-21c0-.7-.6-1.3-1.3-1.3h-34c-.7 0-1.3.6-1.3 1.3v21zm37.3 1.3h-38c-.4 0-.7-.3-.7-.7V21.2c0-1.4 1.2-2.6 2.6-2.6h34c1.4 0 2.6 1.2 2.6 2.6v21.6c.2.4-.1.7-.5.7z" class="st0"/>
    <path d="M112.8 43.5v2.6c0 .7.6 1.3 1.3 1.3h34c.7 0 1.3-.6 1.3-1.3v-2.6h-36.6zm35.4 5.2h-34c-1.4 0-2.6-1.2-2.6-2.6v-3.3c0-.4.3-.7.7-.7h38c.4 0 .7.3.7.7v3.3c-.2 1.4-1.4 2.6-2.8 2.6z" class="st0"/>
    <path d="M133.1 46.1h-3.9c-.4 0-.7-.3-.7-.7 0-.4.3-.7.7-.7h3.9c.4 0 .7.3.7.7 0 .4-.3.7-.7.7zM115.5 42.2h31.4V22.5h-31.4v19.7zm32 1.3h-32.7c-.4 0-.7-.3-.7-.7V21.9c0-.4.3-.7.7-.7h32.7c.4 0 .7.3.7.7v20.9c0 .4-.3.7-.7.7zM122.7 53.9c-.4 0-.7.3-.7.7 0 .4.3.7.7.7h17c.4 0 .7-.3.7-.7 0-.4-.3-.7-.7-.7h-17zm17 2.7h-17c-1.1 0-2-.9-2-2s.9-2 2-2h17c1.1 0 2 .9 2 2s-.9 2-2 2z" class="st0"/>
    <path d="M127.2 52.6h8c-.8-.9-1.3-2.2-1.4-3.9h-5.3c-.1 1.7-.5 3-1.3 3.9zm11.2 1.3H124c-.4 0-.7-.3-.7-.7 0-.4.3-.7.7-.7 2.2 0 3.3-1.5 3.3-4.6 0-.4.3-.7.7-.7h6.5c.4 0 .7.3.7.7 0 3 1.1 4.6 3.3 4.6.4 0 .7.3.7.7-.2.4-.5.7-.8.7zM138.4 37.6c.2 0 .4.1.6.3l1.4 1.4.9-.9-1.5-1.5c-.1-.1-.2-.3-.2-.5s.1-.4.2-.5l.5-.5-4.3-1.3 1.3 4.3.5-.5c.2-.2.4-.3.6-.3zm2.1 3.2c-.2 0-.3-.1-.5-.2l-1.6-1.6-.9.9c-.2.2-.4.2-.6.2-.2-.1-.4-.2-.5-.4l-2-6.5c-.1-.2 0-.5.2-.7.2-.2.4-.2.7-.2l6.5 2c.2.1.4.2.4.5s0 .5-.2.6l-.9.9 1.6 1.6c.3.3.3.7 0 .9l-1.9 1.9c0 .1-.1.1-.3.1zM121.3 27.1h17v-2h-17v2zm17.7 1.3h-18.3c-.4 0-.7-.3-.7-.7v-3.3c0-.4.3-.7.7-.7H139c.4 0 .7.3.7.7v3.3c0 .4-.3.7-.7.7zM124 33.7h3.9v-1.3H124v1.3zm4.5 1.3h-5.2c-.4 0-.7-.3-.7-.7v-2.6c0-.4.3-.7.7-.7h5.2c.4 0 .7.3.7.7v2.6c0 .4-.3.7-.7.7z" class="st0"/>
    <path d="M121.3 36.3h14l-.9-3.1c-.1-.2 0-.5.2-.7.2-.2.4-.2.7-.2l3.1.9V25h-17v11.3h-.1zm15 1.3h-15.6c-.4 0-.7-.3-.7-.7V24.5c0-.4.3-.7.7-.7H139c.4 0 .7.3.7.7v9.7c0 .2-.1.4-.3.5-.2.1-.4.2-.6.1L136 34l.8 2.8c.1.2 0 .4-.1.6 0 .1-.2.2-.4.2z" class="st0"/>
  </g>
  <g>
    <path d="M33.2 212h-3.9v-8.4h3.8c1.7 0 2.7.9 2.7 2.2 0 1-.6 1.7-1.4 1.9 1 .2 1.6 1.1 1.6 2 0 1.4-1 2.3-2.8 2.3zm-.5-6.7h-1.3v1.8h1.3c.7 0 1-.3 1-.9 0-.6-.3-.9-1-.9zm.1 3.2h-1.5v1.9h1.5c.7 0 1.1-.3 1.1-.9s-.4-1-1.1-1zM37.2 203.2h2.1v8.9h-2.1v-8.9zM43.8 212.1c-2 0-3.5-1.3-3.5-3.4 0-2.1 1.5-3.4 3.5-3.4s3.5 1.3 3.5 3.4c0 2.1-1.5 3.4-3.5 3.4zm0-1.7c.7 0 1.4-.5 1.4-1.7 0-1.1-.7-1.7-1.4-1.7s-1.4.5-1.4 1.7c0 1.1.7 1.7 1.4 1.7zM51.3 205.3c1.7 0 2.9.9 3.2 2.5h-2.2c-.2-.5-.5-.8-1.1-.8-.7 0-1.2.6-1.2 1.7s.5 1.7 1.2 1.7c.6 0 .9-.3 1.1-.8h2.2c-.3 1.5-1.5 2.5-3.2 2.5-2 0-3.4-1.3-3.4-3.4.1-2.1 1.5-3.4 3.4-3.4zM55.7 203.2h2.1v4.9l2-2.7h2.5l-2.8 3.4 2.8 3.3h-2.5l-2-2.8v2.8h-2.1v-8.9zM66 205.3c1.7 0 2.9.9 3.2 2.5H67c-.2-.5-.5-.8-1.1-.8-.7 0-1.2.6-1.2 1.7s.5 1.7 1.2 1.7c.6 0 .9-.3 1.1-.8h2.2c-.3 1.5-1.5 2.5-3.2 2.5-2 0-3.4-1.3-3.4-3.4.1-2.1 1.5-3.4 3.4-3.4zM70.3 203.2h2.1v3.1c.4-.6 1.1-1 2.1-1 1.5 0 2.5 1.1 2.5 2.9v3.9h-2v-3.6c0-.9-.5-1.4-1.3-1.4s-1.3.5-1.3 1.4v3.6h-2.1v-8.9zM81 205.3c1 0 1.7.5 2.1 1v-.9h2.1v6.7H83v-.9c-.4.6-1.1 1-2.1 1-1.6 0-2.9-1.3-2.9-3.5 0-2.1 1.3-3.4 3-3.4zm.6 1.7c-.8 0-1.5.6-1.5 1.6s.7 1.7 1.5 1.7 1.5-.6 1.5-1.7-.8-1.6-1.5-1.6zM86.4 203.6c0-.6.5-1.1 1.2-1.1s1.2.5 1.2 1.1c0 .6-.5 1.1-1.2 1.1s-1.2-.5-1.2-1.1zm.2 1.8h2.1v6.7h-2.1v-6.7zM94.7 208.4c0-.9-.5-1.4-1.3-1.4s-1.3.5-1.3 1.4v3.6H90v-6.7h2.1v.9c.4-.6 1.1-1 2-1 1.5 0 2.6 1.1 2.6 2.9v3.9h-2v-3.6zM102.8 203.6v6.8h2.7v1.6h-4.7v-8.4h2zM109 205.3c1 0 1.7.5 2.1 1v-.9h2.1v6.7h-2.1v-.9c-.4.6-1.1 1-2.1 1-1.6 0-2.9-1.3-2.9-3.5 0-2.1 1.3-3.4 2.9-3.4zm.6 1.7c-.8 0-1.5.6-1.5 1.6s.7 1.7 1.5 1.7 1.5-.6 1.5-1.7-.7-1.6-1.5-1.6zM119.2 205.4h2.2l-4.2 9.9H115l1.5-3.4-2.7-6.5h2.3l1.5 4.2 1.6-4.2zM125.2 212.1c-2 0-3.4-1.3-3.4-3.4 0-2.1 1.4-3.4 3.4-3.4s3.3 1.3 3.3 3.3v.6h-4.6c.1.9.6 1.3 1.3 1.3.6 0 .9-.3 1.1-.6h2.2c-.5 1.2-1.7 2.2-3.3 2.2zm-1.4-4h2.6c0-.7-.6-1.2-1.3-1.2-.6 0-1.1.4-1.3 1.2zM131.6 212h-2.1v-6.7h2.1v1.1c.5-.7 1.2-1.2 2.1-1.2v2.2h-.6c-1 0-1.5.3-1.5 1.5v3.1zM135.7 207.3c-.7 0-1.2-.5-1.2-1.1 0-.6.5-1.1 1.2-1.1s1.2.5 1.2 1.1c0 .6-.5 1.1-1.2 1.1zm0 4.8c-.7 0-1.2-.5-1.2-1.1 0-.6.5-1.1 1.2-1.1s1.2.5 1.2 1.1c0 .7-.5 1.1-1.2 1.1zM140.7 203.6h5.5v1.6h-3.4v1.8h2.6v1.6h-2.6v3.4h-2.1v-8.4zM150.3 212.1c-2 0-3.5-1.3-3.5-3.4 0-2.1 1.5-3.4 3.5-3.4s3.5 1.3 3.5 3.4c0 2.1-1.5 3.4-3.5 3.4zm0-1.7c.7 0 1.4-.5 1.4-1.7 0-1.1-.7-1.7-1.4-1.7s-1.4.5-1.4 1.7c0 1.1.6 1.7 1.4 1.7zM156.9 212h-2.1v-6.7h2.1v1.1c.5-.7 1.2-1.2 2.1-1.2v2.2h-.6c-1 0-1.5.3-1.5 1.5v3.1zM165.9 209h-1.3v3h-2.1v-8.4h3.3c2.1 0 3.1 1.2 3.1 2.7.1 1.4-.9 2.7-3 2.7zm-.2-1.6c.8 0 1.2-.4 1.2-1.1s-.3-1.1-1.2-1.1h-1.1v2.1h1.1zM173 212.1c-2 0-3.4-1.3-3.4-3.4 0-2.1 1.4-3.4 3.4-3.4s3.3 1.3 3.3 3.3v.6h-4.6c.1.9.6 1.3 1.3 1.3.6 0 .9-.3 1.1-.6h2.2c-.4 1.2-1.6 2.2-3.3 2.2zm-1.3-4h2.6c0-.7-.6-1.2-1.3-1.2-.7 0-1.2.4-1.3 1.2zM179.5 212h-2.1v-6.7h2.1v1.1c.5-.7 1.2-1.2 2.1-1.2v2.2h-.6c-1 0-1.5.3-1.5 1.5v3.1zM185.3 212.1c-1.8 0-3-1-3.1-2.3h2c0 .5.5.8 1 .8s.8-.2.8-.5c0-1.1-3.6-.3-3.6-2.8 0-1.1 1-2.1 2.7-2.1 1.7 0 2.7 1 2.8 2.3H186c-.1-.5-.4-.8-1-.8-.5 0-.7.2-.7.5 0 1.1 3.6.3 3.7 2.8 0 1.3-1 2.1-2.7 2.1zM189.1 203.6c0-.6.5-1.1 1.2-1.1s1.2.5 1.2 1.1c0 .6-.5 1.1-1.2 1.1s-1.2-.5-1.2-1.1zm.2 1.8h2.1v6.7h-2.1v-6.7zM195.5 212.1c-1.8 0-3-1-3.1-2.3h2c0 .5.5.8 1 .8s.8-.2.8-.5c0-1.1-3.6-.3-3.6-2.8 0-1.1 1-2.1 2.7-2.1 1.7 0 2.7 1 2.8 2.3h-1.9c-.1-.5-.4-.8-1-.8-.5 0-.7.2-.7.5 0 1.1 3.6.3 3.7 2.8 0 1.3-1 2.1-2.7 2.1zM199.8 207.1h-.8v-1.7h.8v-1.6h2.1v1.6h1.3v1.7h-1.3v2.7c0 .4.2.6.6.6h.7v1.7h-1c-1.4 0-2.4-.6-2.4-2.3v-2.7zM207.4 212.1c-2 0-3.4-1.3-3.4-3.4 0-2.1 1.4-3.4 3.4-3.4s3.3 1.3 3.3 3.3v.6H206c.1.9.6 1.3 1.3 1.3.6 0 .9-.3 1.1-.6h2.2c-.4 1.2-1.6 2.2-3.2 2.2zm-1.4-4h2.6c0-.7-.6-1.2-1.3-1.2-.6 0-1.2.4-1.3 1.2zM216.4 208.4c0-.9-.5-1.4-1.3-1.4s-1.3.5-1.3 1.4v3.6h-2.1v-6.7h2.1v.9c.4-.6 1.1-1 2-1 1.5 0 2.6 1.1 2.6 2.9v3.9h-2v-3.6zM222.8 205.3c1.7 0 2.9.9 3.2 2.5h-2.2c-.2-.5-.5-.8-1.1-.8-.7 0-1.2.6-1.2 1.7s.5 1.7 1.2 1.7c.6 0 .9-.3 1.1-.8h2.2c-.3 1.5-1.5 2.5-3.2 2.5-2 0-3.4-1.3-3.4-3.4.1-2.1 1.4-3.4 3.4-3.4zM230.1 212.1c-2 0-3.4-1.3-3.4-3.4 0-2.1 1.4-3.4 3.4-3.4s3.3 1.3 3.3 3.3v.6h-4.6c.1.9.6 1.3 1.3 1.3.6 0 .9-.3 1.1-.6h2.2c-.5 1.2-1.6 2.2-3.3 2.2zm-1.3-4h2.6c0-.7-.6-1.2-1.3-1.2-.7 0-1.2.4-1.3 1.2z"/>
  </g>
  <g>
    <path d="M46.7 226.6h-2.8v2.3h2.5v.7h-2.5v2.4h2.8v.8H43v-7h3.7v.8zM52.1 229.7c0-1.1-.6-1.7-1.5-1.7s-1.6.6-1.6 1.8v3h-.9v-5.5h.9v.8c.4-.6 1-.9 1.8-.9 1.3 0 2.2.8 2.2 2.3v3.2h-.9v-3zM56.8 227.2c1.4 0 2.2.7 2.5 1.8h-1c-.2-.7-.7-1.1-1.5-1.1-1 0-1.7.7-1.7 2 0 1.4.7 2.1 1.7 2.1.8 0 1.3-.4 1.5-1.1h1c-.3 1.1-1.2 1.8-2.5 1.8-1.6 0-2.7-1.1-2.7-2.8 0-1.6 1.2-2.7 2.7-2.7zM61.5 232.8h-.9v-5.5h.9v.9c.3-.6.9-1 1.8-1v.9H63c-.9 0-1.5.4-1.5 1.7v3zM68.1 227.3h.9l-3.3 8.1h-.9l1.1-2.6-2.2-5.4h1l1.7 4.4 1.7-4.5zM72.9 227.2c1.5 0 2.6 1.1 2.6 2.8 0 1.7-1.1 2.8-2.6 2.8-1 0-1.7-.5-2-1.1v3.6H70v-8.1h.9v1c.3-.5 1-1 2-1zm-.2.8c-1 0-1.9.8-1.9 2 0 1.3.9 2 1.9 2 1 0 1.9-.8 1.9-2-.1-1.3-.9-2-1.9-2zM76.9 228.1h-.7v-.7h.7V226h.9v1.4h1.4v.7h-1.4v3.2c0 .5.2.7.8.7h.7v.8h-.8c-1 0-1.5-.4-1.5-1.5v-3.2zM82.7 232.9c-1.6 0-2.7-1.1-2.7-2.8 0-1.7 1.1-2.8 2.7-2.8s2.6 1.1 2.6 2.6v.5h-4.4c.1 1.1.8 1.7 1.8 1.7.8 0 1.3-.4 1.5-1h1c-.3 1-1.2 1.8-2.5 1.8zm-1.8-3.2h3.5c0-1.1-.8-1.7-1.7-1.7-.9 0-1.7.6-1.8 1.7zM88.8 227.2c.9 0 1.6.4 2 1.1v-2.9h.9v7.4h-.9v-1c-.3.6-1 1.1-2 1.1-1.5 0-2.6-1.1-2.6-2.8 0-1.8 1.1-2.9 2.6-2.9zm.2.8c-1 0-1.8.7-1.8 2s.8 2 1.8 2 1.9-.7 1.9-2c-.1-1.2-.9-2-1.9-2zM95.9 225.9h1l2.6 5.7 2.6-5.7h1v6.9h-.9v-5.2l-2.3 5.2h-.6l-2.3-5.2v5.2h-.9v-6.9zM106.9 232.9c-1.6 0-2.7-1.1-2.7-2.8 0-1.7 1.1-2.8 2.7-2.8s2.6 1.1 2.6 2.6v.5h-4.4c.1 1.1.8 1.7 1.8 1.7.8 0 1.3-.4 1.5-1h1c-.2 1-1.1 1.8-2.5 1.8zm-1.7-3.2h3.5c0-1.1-.8-1.7-1.7-1.7-1 0-1.7.6-1.8 1.7zM111 228.1h-.7v-.7h.7V226h.9v1.4h1.4v.7h-1.4v3.2c0 .5.2.7.8.7h.7v.8h-.8c-1 0-1.5-.4-1.5-1.5v-3.2zM116.7 227.2c1 0 1.7.5 2 1.1v-1h.9v5.5h-.9v-1c-.3.6-1 1.1-2 1.1-1.5 0-2.6-1.1-2.6-2.8 0-1.8 1.1-2.9 2.6-2.9zm.1.8c-1 0-1.8.7-1.8 2s.8 2 1.8 2 1.9-.7 1.9-2c0-1.2-.9-2-1.9-2zM123.4 227.2c.9 0 1.6.4 2 1.1v-2.9h.9v7.4h-.9v-1c-.3.6-1 1.1-2 1.1-1.5 0-2.6-1.1-2.6-2.8 0-1.8 1.1-2.9 2.6-2.9zm.2.8c-1 0-1.8.7-1.8 2s.8 2 1.8 2 1.9-.7 1.9-2c0-1.2-.9-2-1.9-2zM130.2 227.2c1 0 1.7.5 2 1.1v-1h.9v5.5h-.9v-1c-.3.6-1 1.1-2 1.1-1.5 0-2.6-1.1-2.6-2.8 0-1.8 1.1-2.9 2.6-2.9zm.2.8c-1 0-1.8.7-1.8 2s.8 2 1.8 2 1.9-.7 1.9-2c-.1-1.2-.9-2-1.9-2zM134.9 228.1h-.7v-.7h.7V226h.9v1.4h1.4v.7h-1.4v3.2c0 .5.2.7.8.7h.7v.8h-.8c-1 0-1.5-.4-1.5-1.5v-3.2zM140.6 227.2c1 0 1.7.5 2 1.1v-1h.9v5.5h-.9v-1c-.3.6-1 1.1-2 1.1-1.5 0-2.6-1.1-2.6-2.8 0-1.8 1.1-2.9 2.6-2.9zm.2.8c-1 0-1.8.7-1.8 2s.8 2 1.8 2 1.9-.7 1.9-2c-.1-1.2-.9-2-1.9-2zM150 232.9c-1.4 0-2.4-.8-2.4-1.9h1c.1.6.5 1.2 1.4 1.2.9 0 1.4-.5 1.4-1.2 0-1.9-3.8-.7-3.8-3.3 0-1.1.9-1.9 2.3-1.9 1.3 0 2.2.7 2.3 1.8h-1c-.1-.5-.5-1-1.3-1-.7 0-1.3.4-1.3 1.1 0 1.8 3.8.7 3.8 3.3-.1.9-.9 1.9-2.4 1.9zM153.8 228.1h-.7v-.7h.7V226h.9v1.4h1.4v.7h-1.4v3.2c0 .5.2.7.8.7h.7v.8h-.8c-1 0-1.5-.4-1.5-1.5v-3.2zM159.6 232.9c-1.5 0-2.7-1.1-2.7-2.8 0-1.7 1.2-2.8 2.8-2.8 1.6 0 2.8 1.1 2.8 2.8-.1 1.7-1.3 2.8-2.9 2.8zm0-.8c.9 0 1.9-.6 1.9-2s-.9-2-1.8-2c-1 0-1.8.6-1.8 2-.1 1.3.8 2 1.7 2zM164.6 232.8h-.9v-5.5h.9v.9c.3-.6.9-1 1.8-1v.9h-.2c-.9 0-1.5.4-1.5 1.7v3zM169.6 227.2c1 0 1.7.5 2 1.1v-1h.9v5.5h-.9v-1c-.3.6-1 1.1-2 1.1-1.5 0-2.6-1.1-2.6-2.8 0-1.8 1.2-2.9 2.6-2.9zm.2.8c-1 0-1.8.7-1.8 2s.8 2 1.8 2 1.9-.7 1.9-2c0-1.2-.9-2-1.9-2zM176.4 227.2c1 0 1.7.5 2 1.1v-1h.9v5.6c0 1.5-1 2.6-2.6 2.6-1.4 0-2.5-.7-2.6-1.9h.9c.2.7.8 1.1 1.7 1.1 1 0 1.7-.6 1.7-1.8v-1.1c-.3.6-1 1.1-2 1.1-1.5 0-2.6-1.1-2.6-2.8 0-1.8 1.1-2.9 2.6-2.9zm.2.8c-1 0-1.8.7-1.8 2s.8 2 1.8 2 1.9-.7 1.9-2c-.1-1.2-.9-2-1.9-2zM183.3 232.9c-1.6 0-2.7-1.1-2.7-2.8 0-1.7 1.1-2.8 2.7-2.8s2.6 1.1 2.6 2.6v.5h-4.4c.1 1.1.8 1.7 1.8 1.7.8 0 1.3-.4 1.5-1h1c-.3 1-1.2 1.8-2.5 1.8zm-1.8-3.2h3.5c0-1.1-.8-1.7-1.7-1.7-1 0-1.7.6-1.8 1.7zM192.2 232.9c-1.5 0-2.7-1.1-2.7-2.8 0-1.7 1.2-2.8 2.8-2.8 1.6 0 2.8 1.1 2.8 2.8-.1 1.7-1.4 2.8-2.9 2.8zm0-.8c.9 0 1.9-.6 1.9-2s-.9-2-1.8-2c-1 0-1.8.6-1.8 2-.1 1.3.7 2 1.7 2zM200.2 229.7c0-1.1-.6-1.7-1.5-1.7s-1.6.6-1.6 1.8v3h-.9v-5.5h.9v.8c.4-.6 1-.9 1.8-.9 1.3 0 2.2.8 2.2 2.3v3.2h-.9v-3zM204.8 225.8h4.7v.7h-1.9v6.2h-.9v-6.2h-1.9v-.7zM214.4 226.6h-2.8v2.3h2.5v.7h-2.5v2.4h2.8v.8h-3.7v-7h3.7v.8zM219.5 226.6h-2.8v2.3h2.5v.7h-2.5v2.4h2.8v.8h-3.7v-7h3.7v.8zM98.1 244.8h-.9v-5.5h.9v.9c.3-.6.9-1 1.8-1v.9h-.2c-.9 0-1.5.4-1.5 1.7v3zM103.3 244.9c-1.5 0-2.7-1.1-2.7-2.8 0-1.7 1.2-2.8 2.8-2.8 1.6 0 2.8 1.1 2.8 2.8-.1 1.7-1.3 2.8-2.9 2.8zm0-.8c.9 0 1.9-.6 1.9-2s-.9-2-1.8-2c-1 0-1.8.6-1.8 2-.1 1.3.8 2 1.7 2zM112.2 244.8h-.9v-.8c-.4.6-1 .9-1.7.9-1.3 0-2.2-.8-2.2-2.3v-3.2h.9v3.1c0 1.1.6 1.7 1.5 1.7s1.6-.6 1.6-1.8v-3h.9v5.4zM113.9 240.1h-.7v-.7h.7V238h.9v1.4h1.4v.7h-1.4v3.2c0 .5.2.7.8.7h.7v.8h-.8c-1 0-1.5-.4-1.5-1.5v-3.2zM117.2 237.8c0-.3.3-.6.6-.6s.6.3.6.6-.3.6-.6.6-.6-.2-.6-.6zm.2 1.5h.9v5.5h-.9v-5.5zM123.9 241.7c0-1.1-.6-1.7-1.5-1.7s-1.6.6-1.6 1.8v3h-.9v-5.5h.9v.8c.4-.6 1-.9 1.8-.9 1.3 0 2.2.8 2.2 2.3v3.2h-.9v-3zM128.5 239.2c1 0 1.7.5 2 1.1v-1h.9v5.6c0 1.5-1 2.6-2.6 2.6-1.4 0-2.5-.7-2.6-1.9h.9c.2.7.8 1.1 1.7 1.1 1 0 1.7-.6 1.7-1.8v-1.1c-.3.6-1 1.1-2 1.1-1.5 0-2.6-1.1-2.6-2.8 0-1.8 1.1-2.9 2.6-2.9zm.2.8c-1 0-1.8.7-1.8 2s.8 2 1.8 2 1.9-.7 1.9-2c-.1-1.2-.9-2-1.9-2zM139.7 241.7c0-1.1-.6-1.7-1.5-1.7s-1.6.6-1.6 1.8v3h-.9v-5.5h.9v.8c.4-.6 1-.9 1.8-.9 1.3 0 2.2.8 2.2 2.3v3.2h-.9v-3zM144.5 244.9c-1.5 0-2.7-1.1-2.7-2.8 0-1.7 1.2-2.8 2.8-2.8 1.6 0 2.8 1.1 2.8 2.8-.1 1.7-1.4 2.8-2.9 2.8zm0-.8c.9 0 1.9-.6 1.9-2s-.9-2-1.8-2c-1 0-1.8.6-1.8 2-.1 1.3.7 2 1.7 2zM150.7 239.2c.9 0 1.6.4 2 1.1v-2.9h.9v7.4h-.9v-1c-.3.6-1 1.1-2 1.1-1.5 0-2.6-1.1-2.6-2.8 0-1.8 1.2-2.9 2.6-2.9zm.2.8c-1 0-1.8.7-1.8 2s.8 2 1.8 2 1.9-.7 1.9-2c0-1.2-.9-2-1.9-2zM157.6 244.9c-1.6 0-2.7-1.1-2.7-2.8 0-1.7 1.1-2.8 2.7-2.8s2.6 1.1 2.6 2.6v.5h-4.4c.1 1.1.8 1.7 1.8 1.7.8 0 1.3-.4 1.5-1h1c-.3 1-1.1 1.8-2.5 1.8zm-1.8-3.2h3.5c0-1.1-.8-1.7-1.7-1.7-.9 0-1.7.6-1.8 1.7zM163.4 244.9c-1.3 0-2.2-.7-2.2-1.7h.9c0 .5.5.9 1.3.9.7 0 1.1-.4 1.1-.8 0-1.2-3.2-.5-3.2-2.5 0-.8.8-1.5 2-1.5s2 .7 2.1 1.7h-.9c0-.5-.5-.9-1.2-.9s-1.1.3-1.1.8c0 1.3 3.2.6 3.2 2.5 0 .8-.8 1.5-2 1.5zM57.9 249.8h1l1.5 5.9 1.7-5.9h1l1.6 5.9 1.5-5.9h1l-2 7h-1l-1.6-5.6-1.7 5.6h-1l-2-7zM70.4 251.2c1 0 1.7.5 2 1.1v-1h.9v5.5h-.9v-1c-.3.6-1 1.1-2 1.1-1.5 0-2.6-1.1-2.6-2.8 0-1.8 1.2-2.9 2.6-2.9zm.2.8c-1 0-1.8.7-1.8 2s.8 2 1.8 2 1.9-.7 1.9-2c0-1.2-.9-2-1.9-2zM74.9 249.4h.9v7.4h-.9v-7.4zM77.4 249.4h.9v7.4h-.9v-7.4zM82.2 256.9c-1.6 0-2.7-1.1-2.7-2.8 0-1.7 1.1-2.8 2.7-2.8s2.6 1.1 2.6 2.6v.5h-4.4c.1 1.1.8 1.7 1.8 1.7.8 0 1.3-.4 1.5-1h1c-.2 1-1.1 1.8-2.5 1.8zm-1.7-3.2H84c0-1.1-.8-1.7-1.7-1.7-1 0-1.7.6-1.8 1.7zM86.3 252.1h-.7v-.7h.7V250h.9v1.4h1.4v.7h-1.4v3.2c0 .5.2.7.8.7h.7v.8h-.8c-1 0-1.5-.4-1.5-1.5v-3.2zM94.6 251.2c1 0 1.7.5 2 1.1v-1h.9v5.5h-.9v-1c-.3.6-1 1.1-2 1.1-1.5 0-2.6-1.1-2.6-2.8 0-1.8 1.2-2.9 2.6-2.9zm.2.8c-1 0-1.8.7-1.8 2s.8 2 1.8 2 1.9-.7 1.9-2c0-1.2-.9-2-1.9-2zM103.1 253.7c0-1.1-.6-1.7-1.5-1.7s-1.6.6-1.6 1.8v3h-.9v-5.5h.9v.8c.4-.6 1-.9 1.8-.9 1.3 0 2.2.8 2.2 2.3v3.2h-.9v-3zM107.8 251.2c.9 0 1.6.4 2 1.1v-2.9h.9v7.4h-.9v-1c-.3.6-1 1.1-2 1.1-1.5 0-2.6-1.1-2.6-2.8 0-1.8 1.1-2.9 2.6-2.9zm.2.8c-1 0-1.8.7-1.8 2s.8 2 1.8 2 1.9-.7 1.9-2c-.1-1.2-.9-2-1.9-2zM116.9 256.9c-1.3 0-2.2-.7-2.2-1.7h.9c0 .5.5.9 1.3.9.7 0 1.1-.4 1.1-.8 0-1.2-3.2-.5-3.2-2.5 0-.8.8-1.5 2-1.5s2 .7 2.1 1.7h-.9c0-.5-.5-.9-1.2-.9s-1.1.3-1.1.8c0 1.3 3.2.6 3.2 2.5 0 .8-.8 1.5-2 1.5zM128.1 253.7c0-1.1-.6-1.7-1.5-1.7s-1.5.6-1.5 1.8v3h-.9v-3.1c0-1.1-.6-1.7-1.5-1.7s-1.5.6-1.5 1.8v3h-.9v-5.5h.9v.8c.4-.6 1-.9 1.7-.9.9 0 1.6.4 2 1.2.3-.8 1.1-1.2 1.9-1.2 1.3 0 2.2.8 2.2 2.3v3.2h-.9v-3zM132.7 251.2c1 0 1.7.5 2 1.1v-1h.9v5.5h-.9v-1c-.3.6-1 1.1-2 1.1-1.5 0-2.6-1.1-2.6-2.8 0-1.8 1.2-2.9 2.6-2.9zm.2.8c-1 0-1.8.7-1.8 2s.8 2 1.8 2 1.9-.7 1.9-2c0-1.2-.9-2-1.9-2zM138.1 256.8h-.9v-5.5h.9v.9c.3-.6.9-1 1.8-1v.9h-.2c-.9 0-1.5.4-1.5 1.7v3zM141.2 252.1h-.7v-.7h.7V250h.9v1.4h1.4v.7h-1.4v3.2c0 .5.2.7.8.7h.7v.8h-.8c-1 0-1.5-.4-1.5-1.5v-3.2zM149.6 251.2c1.4 0 2.2.7 2.5 1.8h-1c-.2-.7-.7-1.1-1.5-1.1-1 0-1.7.7-1.7 2 0 1.4.7 2.1 1.7 2.1.8 0 1.3-.4 1.5-1.1h1c-.3 1.1-1.2 1.8-2.5 1.8-1.6 0-2.7-1.1-2.7-2.8 0-1.6 1.1-2.7 2.7-2.7zM155.7 256.9c-1.5 0-2.7-1.1-2.7-2.8 0-1.7 1.2-2.8 2.8-2.8 1.6 0 2.8 1.1 2.8 2.8-.1 1.7-1.3 2.8-2.9 2.8zm0-.8c.9 0 1.9-.6 1.9-2s-.9-2-1.8-2c-1 0-1.8.6-1.8 2-.1 1.3.8 2 1.7 2zM163.7 253.7c0-1.1-.6-1.7-1.5-1.7s-1.6.6-1.6 1.8v3h-.9v-5.5h.9v.8c.4-.6 1-.9 1.8-.9 1.3 0 2.2.8 2.2 2.3v3.2h-.9v-3zM166.3 252.1h-.7v-.7h.7V250h.9v1.4h1.4v.7h-1.4v3.2c0 .5.2.7.8.7h.7v.8h-.8c-1 0-1.5-.4-1.5-1.5v-3.2zM170.7 256.8h-.9v-5.5h.9v.9c.3-.6.9-1 1.8-1v.9h-.2c-.9 0-1.5.4-1.5 1.7v3zM175.8 251.2c1 0 1.7.5 2 1.1v-1h.9v5.5h-.9v-1c-.3.6-1 1.1-2 1.1-1.5 0-2.6-1.1-2.6-2.8 0-1.8 1.1-2.9 2.6-2.9zm.1.8c-1 0-1.8.7-1.8 2s.8 2 1.8 2 1.9-.7 1.9-2c0-1.2-.9-2-1.9-2zM182.6 251.2c1.4 0 2.2.7 2.5 1.8h-1c-.2-.7-.7-1.1-1.5-1.1-1 0-1.7.7-1.7 2 0 1.4.7 2.1 1.7 2.1.8 0 1.3-.4 1.5-1.1h1c-.3 1.1-1.2 1.8-2.5 1.8-1.6 0-2.7-1.1-2.7-2.8 0-1.6 1.1-2.7 2.7-2.7zM186.5 252.1h-.7v-.7h.7V250h.9v1.4h1.4v.7h-1.4v3.2c0 .5.2.7.8.7h.7v.8h-.8c-1 0-1.5-.4-1.5-1.5v-3.2zM195 256.9c-1.5 0-2.7-1.1-2.7-2.8 0-1.7 1.2-2.8 2.8-2.8 1.6 0 2.8 1.1 2.8 2.8-.1 1.7-1.3 2.8-2.9 2.8zm0-.8c.9 0 1.9-.6 1.9-2s-.9-2-1.8-2c-1 0-1.8.6-1.8 2-.1 1.3.8 2 1.7 2zM203.1 253.7c0-1.1-.6-1.7-1.5-1.7s-1.6.6-1.6 1.8v3h-.9v-5.5h.9v.8c.4-.6 1-.9 1.8-.9 1.3 0 2.2.8 2.2 2.3v3.2h-.9v-3zM72.4 262.6h-2.8v2.3h2.5v.7h-2.5v2.4h2.8v.8h-3.7v-7h3.7v.8zM74 264.1h-.7v-.7h.7V262h.9v1.4h1.4v.7h-1.4v3.2c0 .5.2.7.8.7h.7v.8h-.8c-1 0-1.5-.4-1.5-1.5v-3.2zM77.5 261.4h.9v2.7c.4-.6 1-.9 1.8-.9 1.2 0 2.2.8 2.2 2.3v3.2h-.9v-3.1c0-1.1-.6-1.7-1.5-1.7s-1.6.6-1.6 1.8v3h-.9v-7.3zM86.2 268.9c-1.6 0-2.7-1.1-2.7-2.8 0-1.7 1.1-2.8 2.7-2.8s2.6 1.1 2.6 2.6v.5h-4.4c.1 1.1.8 1.7 1.8 1.7.8 0 1.3-.4 1.5-1h1c-.2 1-1.1 1.8-2.5 1.8zm-1.7-3.2H88c0-1.1-.8-1.7-1.7-1.7-1 0-1.7.6-1.8 1.7zM91 268.8h-.9v-5.5h.9v.9c.3-.6.9-1 1.8-1v.9h-.2c-.9 0-1.5.4-1.5 1.7v3zM96.2 268.9c-1.6 0-2.7-1.1-2.7-2.8 0-1.7 1.1-2.8 2.7-2.8s2.6 1.1 2.6 2.6v.5h-4.4c.1 1.1.8 1.7 1.8 1.7.8 0 1.3-.4 1.5-1h1c-.3 1-1.2 1.8-2.5 1.8zm-1.8-3.2h3.5c0-1.1-.8-1.7-1.7-1.7-1 0-1.7.6-1.8 1.7zM104.8 268.8h-.9v-.8c-.4.6-1 .9-1.7.9-1.3 0-2.2-.8-2.2-2.3v-3.2h.9v3.1c0 1.1.6 1.7 1.5 1.7s1.6-.6 1.6-1.8v-3h.9v5.4zM114.3 265.7c0-1.1-.6-1.7-1.5-1.7s-1.5.6-1.5 1.8v3h-.9v-3.1c0-1.1-.6-1.7-1.5-1.7s-1.5.6-1.5 1.8v3h-.9v-5.5h.9v.8c.4-.6 1-.9 1.7-.9.9 0 1.6.4 2 1.2.3-.8 1.1-1.2 1.9-1.2 1.3 0 2.2.8 2.2 2.3v3.2h-.9v-3zM121.7 270.7c-1.3-1.3-2-3.3-2-5.5 0-2.3.8-4.4 2.2-5.7h1v.1a7.61 7.61 0 0 0-2.2 5.6c0 2 .7 4 2.1 5.4v.1h-1.1zM124.1 264.1h-.7v-.7h.7v-.4c0-1.2.6-1.8 2-1.8v.8c-.8 0-1.1.3-1.1 1v.4h1.1v.7H125v4.7h-.9v-4.7zM129.6 268.9c-1.5 0-2.7-1.1-2.7-2.8 0-1.7 1.2-2.8 2.8-2.8 1.6 0 2.8 1.1 2.8 2.8-.1 1.7-1.4 2.8-2.9 2.8zm0-.8c.9 0 1.9-.6 1.9-2s-.9-2-1.8-2c-1 0-1.8.6-1.8 2-.1 1.3.7 2 1.7 2zM134.5 268.8h-.9v-5.5h.9v.9c.3-.6.9-1 1.8-1v.9h-.3c-.9 0-1.5.4-1.5 1.7v3zM139.8 261.8c0-.3.3-.6.6-.6s.6.3.6.6-.3.6-.6.6-.6-.2-.6-.6zm.2 1.5h.9v5.5h-.9v-5.5zM146.5 265.7c0-1.1-.6-1.7-1.5-1.7s-1.6.6-1.6 1.8v3h-.9v-5.5h.9v.8c.4-.6 1-.9 1.8-.9 1.3 0 2.2.8 2.2 2.3v3.2h-.9v-3zM151.2 263.2c1.4 0 2.2.7 2.5 1.8h-1c-.2-.7-.7-1.1-1.5-1.1-1 0-1.7.7-1.7 2 0 1.4.7 2.1 1.7 2.1.8 0 1.3-.4 1.5-1.1h1c-.3 1.1-1.2 1.8-2.5 1.8-1.6 0-2.7-1.1-2.7-2.8 0-1.6 1.1-2.7 2.7-2.7zM157.3 268.9c-1.6 0-2.7-1.1-2.7-2.8 0-1.7 1.1-2.8 2.7-2.8s2.6 1.1 2.6 2.6v.5h-4.4c.1 1.1.8 1.7 1.8 1.7.8 0 1.3-.4 1.5-1h1c-.3 1-1.2 1.8-2.5 1.8zm-1.8-3.2h3.5c0-1.1-.8-1.7-1.7-1.7-.9 0-1.7.6-1.8 1.7zM165.1 265.7c0-1.1-.6-1.7-1.5-1.7s-1.6.6-1.6 1.8v3h-.9v-5.5h.9v.8c.4-.6 1-.9 1.8-.9 1.3 0 2.2.8 2.2 2.3v3.2h-.9v-3zM167.7 264.1h-.7v-.7h.7V262h.9v1.4h1.4v.7h-1.4v3.2c0 .5.2.7.8.7h.7v.8h-.8c-1 0-1.5-.4-1.5-1.5v-3.2zM171 261.8c0-.3.3-.6.6-.6s.6.3.6.6-.3.6-.6.6-.6-.2-.6-.6zm.2 1.5h.9v5.5h-.9v-5.5zM173.9 263.3l1.7 4.6 1.7-4.6h1l-2.1 5.5h-1.1l-2.1-5.5h.9zM181.6 268.9c-1.6 0-2.7-1.1-2.7-2.8 0-1.7 1.1-2.8 2.7-2.8s2.6 1.1 2.6 2.6v.5h-4.4c.1 1.1.8 1.7 1.8 1.7.8 0 1.3-.4 1.5-1h1c-.3 1-1.1 1.8-2.5 1.8zm-1.8-3.2h3.5c0-1.1-.8-1.7-1.7-1.7-.9 0-1.7.6-1.8 1.7zM187.4 268.9c-1.3 0-2.2-.7-2.2-1.7h.9c0 .5.5.9 1.3.9.7 0 1.1-.4 1.1-.8 0-1.2-3.2-.5-3.2-2.5 0-.8.8-1.5 2-1.5s2 .7 2.1 1.7h-.9c0-.5-.5-.9-1.2-.9s-1.1.3-1.1.8c0 1.3 3.2.6 3.2 2.5 0 .8-.8 1.5-2 1.5zM190.4 270.7c1.4-1.5 2.1-3.5 2.1-5.5s-.7-4.1-2.2-5.6v-.1h.9c1.4 1.3 2.2 3.4 2.2 5.7 0 2.2-.8 4.3-2 5.5h-1z"/>
  </g>
  <g>
    <path d="M28 370.2c2 0 3.5 1.1 4 3h-2.3c-.3-.7-1-1.1-1.8-1.1-1.3 0-2.1.9-2.1 2.4s.9 2.4 2.1 2.4a2 2 0 0 0 1.8-1.1H32c-.5 1.8-2 2.9-4 2.9-2.5 0-4.2-1.8-4.2-4.3s1.8-4.2 4.2-4.2zM36.4 378.8c-2 0-3.5-1.3-3.5-3.4 0-2.1 1.5-3.4 3.5-3.4s3.5 1.3 3.5 3.4c0 2.1-1.6 3.4-3.5 3.4zm0-1.8c.7 0 1.4-.5 1.4-1.7 0-1.1-.7-1.7-1.4-1.7s-1.4.5-1.4 1.7.6 1.7 1.4 1.7zM42.5 372l1.5 4.8 1.5-4.8h2.2l-2.4 6.7h-2.5l-2.4-6.7h2.1zM51 371.9c1 0 1.7.5 2.1 1v-.9h2.1v6.7h-2.1v-.9c-.4.6-1.1 1-2.1 1-1.6 0-2.9-1.3-2.9-3.5 0-2.1 1.3-3.4 2.9-3.4zm.6 1.8c-.8 0-1.5.6-1.5 1.6s.7 1.7 1.5 1.7 1.5-.6 1.5-1.7-.7-1.6-1.5-1.6zM60.5 370.2c2 0 3.5 1.1 4 3h-2.3c-.3-.7-1-1.1-1.8-1.1-1.3 0-2.1.9-2.1 2.4s.9 2.4 2.1 2.4a2 2 0 0 0 1.8-1.1h2.3c-.5 1.8-2 2.9-4 2.9-2.5 0-4.2-1.8-4.2-4.3s1.7-4.2 4.2-4.2zM68.8 378.8c-2 0-3.5-1.3-3.5-3.4 0-2.1 1.5-3.4 3.5-3.4s3.5 1.3 3.5 3.4c0 2.1-1.5 3.4-3.5 3.4zm0-1.8c.7 0 1.4-.5 1.4-1.7 0-1.1-.7-1.7-1.4-1.7s-1.4.5-1.4 1.7.7 1.7 1.4 1.7zM75.4 378.7h-2.1V372h2.1v1.1c.5-.7 1.2-1.2 2.1-1.2v2.2H77c-1 0-1.5.3-1.5 1.5v3.1zM81.5 378.8c-2 0-3.4-1.3-3.4-3.4 0-2.1 1.4-3.4 3.4-3.4s3.3 1.3 3.3 3.3v.6h-4.6c.1.9.6 1.3 1.3 1.3.6 0 .9-.3 1.1-.6h2.2c-.4 1.2-1.6 2.2-3.3 2.2zm-1.3-4.1h2.6c0-.7-.6-1.2-1.3-1.2-.7 0-1.2.4-1.3 1.2zM86.9 373.9c-.7 0-1.2-.5-1.2-1.1 0-.6.5-1.1 1.2-1.1s1.2.5 1.2 1.1c0 .6-.5 1.1-1.2 1.1zm0 4.9c-.7 0-1.2-.5-1.2-1.1 0-.6.5-1.1 1.2-1.1s1.2.5 1.2 1.1c0 .6-.5 1.1-1.2 1.1zM95.8 370.2c2 0 3.5 1.1 4 3h-2.3c-.3-.7-1-1.1-1.8-1.1-1.3 0-2.1.9-2.1 2.4s.9 2.4 2.1 2.4a2 2 0 0 0 1.8-1.1h2.3c-.5 1.8-2 2.9-4 2.9-2.5 0-4.2-1.8-4.2-4.3s1.7-4.2 4.2-4.2zM105 378.8a4.2 4.2 0 0 1-4.3-4.3c0-2.5 1.9-4.3 4.3-4.3s4.3 1.8 4.3 4.3-1.9 4.3-4.3 4.3zm0-1.9c1.3 0 2.2-1 2.2-2.4 0-1.5-.9-2.4-2.2-2.4-1.4 0-2.2.9-2.2 2.4 0 1.4.8 2.4 2.2 2.4zM116.2 370.3h2.2l-3 8.4h-2.6l-3-8.4h2.2l2.1 6.4 2.1-6.4zM124.5 377.2h-3.1l-.5 1.5h-2.1l3-8.4h2.4l3 8.4H125l-.5-1.5zm-1.6-4.7l-1 3.1h2.1l-1.1-3.1zM133.9 375.7h-1.3v3h-2.1v-8.4h3.3c2.1 0 3.1 1.2 3.1 2.7.1 1.4-.8 2.7-3 2.7zm-.1-1.7c.8 0 1.2-.4 1.2-1.1s-.3-1.1-1.2-1.1h-1.1v2.1h1.1zM140.1 378.7H138V372h2.1v1.1c.5-.7 1.2-1.2 2.1-1.2v2.2h-.6c-1 0-1.5.3-1.5 1.5v3.1zM146.3 378.8c-2 0-3.5-1.3-3.5-3.4 0-2.1 1.5-3.4 3.5-3.4s3.5 1.3 3.5 3.4c0 2.1-1.6 3.4-3.5 3.4zm0-1.8c.7 0 1.4-.5 1.4-1.7 0-1.1-.7-1.7-1.4-1.7s-1.4.5-1.4 1.7.6 1.7 1.4 1.7zM151.2 373.7h-.8V372h.8v-1.6h2.1v1.6h1.3v1.7h-1.3v2.7c0 .4.2.6.6.6h.7v1.7h-1c-1.4 0-2.4-.6-2.4-2.3v-2.7zM158.8 378.8c-2 0-3.5-1.3-3.5-3.4 0-2.1 1.5-3.4 3.5-3.4s3.5 1.3 3.5 3.4c0 2.1-1.5 3.4-3.5 3.4zm0-1.8c.7 0 1.4-.5 1.4-1.7 0-1.1-.7-1.7-1.4-1.7s-1.4.5-1.4 1.7.6 1.7 1.4 1.7zM166.3 371.9c1.7 0 2.9.9 3.2 2.5h-2.2c-.2-.5-.5-.8-1.1-.8-.7 0-1.2.6-1.2 1.7s.5 1.7 1.2 1.7c.6 0 .9-.3 1.1-.8h2.2c-.3 1.5-1.5 2.5-3.2 2.5-2 0-3.4-1.3-3.4-3.4.1-2.1 1.5-3.4 3.4-3.4zM173.7 378.8c-2 0-3.5-1.3-3.5-3.4 0-2.1 1.5-3.4 3.5-3.4s3.5 1.3 3.5 3.4c0 2.1-1.5 3.4-3.5 3.4zm0-1.8c.7 0 1.4-.5 1.4-1.7 0-1.1-.7-1.7-1.4-1.7s-1.4.5-1.4 1.7.6 1.7 1.4 1.7zM178.3 369.8h2.1v8.9h-2.1v-8.9zM187.4 378.8c-1.8 0-3.2-.9-3.3-2.6h2.2c.1.6.5 1 1 1 .6 0 1-.3 1-.8 0-1.6-4.2-.7-4.2-3.7 0-1.6 1.3-2.5 3.1-2.5s3.1.9 3.2 2.5h-2.2c0-.5-.4-.9-1-.9-.5 0-.9.2-.9.8 0 1.5 4.2.8 4.2 3.6 0 1.4-1.1 2.6-3.1 2.6zM194.8 378.8c-2 0-3.5-1.3-3.5-3.4 0-2.1 1.5-3.4 3.5-3.4s3.5 1.3 3.5 3.4c0 2.1-1.5 3.4-3.5 3.4zm0-1.8c.7 0 1.4-.5 1.4-1.7 0-1.1-.7-1.7-1.4-1.7s-1.4.5-1.4 1.7.7 1.7 1.4 1.7zM199.6 373.7h-.7V372h.7v-.2c0-1.8 1.1-2.6 3.1-2.5v1.7c-.8 0-1.1.2-1.1.9v.1h1.1v1.7h-1.1v5h-2.1v-5zM204 373.7h-.8V372h.8v-1.6h2.1v1.6h1.3v1.7h-1.3v2.7c0 .4.2.6.6.6h.7v1.7h-1c-1.4 0-2.4-.6-2.4-2.3v-2.7zM207.9 372h2.1l.9 4.8 1.1-4.8h2.2l1.1 4.8.9-4.8h1.9l-1.8 6.7H214l-1.1-4.3-1.1 4.3h-2.3l-1.6-6.7zM221.5 371.9c1 0 1.7.5 2.1 1v-.9h2.1v6.7h-2.1v-.9c-.4.6-1.1 1-2.1 1-1.6 0-2.9-1.3-2.9-3.5 0-2.1 1.3-3.4 2.9-3.4zm.6 1.8c-.8 0-1.5.6-1.5 1.6s.7 1.7 1.5 1.7 1.5-.6 1.5-1.7-.7-1.6-1.5-1.6zM229.2 378.7h-2.1V372h2.1v1.1c.5-.7 1.2-1.2 2.1-1.2v2.2h-.6c-1 0-1.5.3-1.5 1.5v3.1zM235.2 378.8c-2 0-3.4-1.3-3.4-3.4 0-2.1 1.4-3.4 3.4-3.4s3.3 1.3 3.3 3.3v.6h-4.6c.1.9.6 1.3 1.3 1.3.6 0 .9-.3 1.1-.6h2.2c-.4 1.2-1.6 2.2-3.3 2.2zm-1.3-4.1h2.6c0-.7-.6-1.2-1.3-1.2-.7 0-1.2.4-1.3 1.2z"/>
  </g>
  <g>
    <path d="M75.1 389.4c1.5 0 2.7.8 3.2 2.1h-1.1c-.4-.8-1.1-1.3-2.1-1.3-1.5 0-2.5 1.1-2.5 2.8 0 1.7 1.1 2.8 2.5 2.8 1 0 1.8-.5 2.1-1.3h1.1a3.3 3.3 0 0 1-3.2 2.1c-1.9 0-3.5-1.5-3.5-3.5s1.6-3.7 3.5-3.7zM82.1 396.5c-1.6 0-2.7-1.1-2.7-2.8 0-1.7 1.1-2.8 2.7-2.8s2.6 1.1 2.6 2.6v.5h-4.4c.1 1.1.8 1.7 1.8 1.7.8 0 1.3-.4 1.5-1h1c-.3 1-1.2 1.8-2.5 1.8zm-1.8-3.2h3.5c0-1.1-.8-1.7-1.7-1.7-1 0-1.7.6-1.8 1.7zM89.9 393.3c0-1.1-.6-1.7-1.5-1.7s-1.6.6-1.6 1.8v3h-.9V391h.9v.8c.4-.6 1-.9 1.8-.9 1.3 0 2.2.8 2.2 2.3v3.2h-.9v-3.1zM92.5 391.7h-.7v-.7h.7v-1.4h.9v1.4h1.4v.7h-1.4v3.2c0 .5.2.7.8.7h.7v.8H94c-1 0-1.5-.4-1.5-1.5v-3.2zM96.8 396.4h-.9V391h.9v.9c.3-.6.9-1 1.8-1v.9h-.2c-.9 0-1.5.4-1.5 1.7v2.9zM99.5 389.4c0-.3.3-.6.6-.6s.6.3.6.6-.3.6-.6.6c-.3.1-.6-.2-.6-.6zm.2 1.6h.9v5.5h-.9V391zM102.3 391.7h-.7v-.7h.7v-.4c0-1.2.6-1.8 2-1.8v.8c-.8 0-1.1.3-1.1 1v.4h1.1v.7h-1.1v4.7h-.9v-4.7zM110.3 396.4h-.9v-.8c-.4.6-1 .9-1.7.9-1.3 0-2.2-.8-2.2-2.3V391h.9v3.1c0 1.1.6 1.7 1.5 1.7s1.6-.6 1.6-1.8v-3h.9v5.4zM114.1 390.9c1 0 1.7.5 2 1.1v-1h.9v5.6c0 1.5-1 2.6-2.6 2.6-1.4 0-2.5-.7-2.6-1.9h.9c.2.7.8 1.1 1.7 1.1 1 0 1.7-.6 1.7-1.8v-1.1c-.3.6-1 1.1-2 1.1-1.5 0-2.6-1.1-2.6-2.8 0-1.8 1.1-2.9 2.6-2.9zm.2.8c-1 0-1.8.7-1.8 2s.8 2 1.8 2 1.9-.7 1.9-2c-.1-1.3-.9-2-1.9-2zM120.9 396.5c-1.6 0-2.7-1.1-2.7-2.8 0-1.7 1.1-2.8 2.7-2.8s2.6 1.1 2.6 2.6v.5h-4.4c.1 1.1.8 1.7 1.8 1.7.8 0 1.3-.4 1.5-1h1c-.2 1-1.1 1.8-2.5 1.8zm-1.7-3.2h3.5c0-1.1-.8-1.7-1.7-1.7-1 0-1.7.6-1.8 1.7zM129.7 390.9c1 0 1.7.5 2 1.1v-1h.9v5.5h-.9v-1c-.3.6-1 1.1-2 1.1-1.5 0-2.6-1.1-2.6-2.8 0-1.8 1.1-2.9 2.6-2.9zm.2.8c-1 0-1.8.7-1.8 2s.8 2 1.8 2 1.9-.7 1.9-2c-.1-1.3-.9-2-1.9-2zM138.2 393.3c0-1.1-.6-1.7-1.5-1.7s-1.6.6-1.6 1.8v3h-.9V391h.9v.8c.4-.6 1-.9 1.8-.9 1.3 0 2.2.8 2.2 2.3v3.2h-.9v-3.1zM142.9 390.9c.9 0 1.6.4 2 1.1v-3h.9v7.4h-.9v-1c-.3.6-1 1.1-2 1.1-1.5 0-2.6-1.1-2.6-2.8 0-1.7 1.1-2.8 2.6-2.8zm.1.8c-1 0-1.8.7-1.8 2s.8 2 1.8 2 1.9-.7 1.9-2-.9-2-1.9-2zM153.2 389.4c1.5 0 2.7.8 3.2 2.1h-1.1c-.4-.8-1.1-1.3-2.1-1.3-1.5 0-2.5 1.1-2.5 2.8 0 1.7 1.1 2.8 2.5 2.8 1 0 1.8-.5 2.1-1.3h1.1a3.3 3.3 0 0 1-3.2 2.1c-1.9 0-3.5-1.5-3.5-3.5s1.5-3.7 3.5-3.7zM160.1 396.5c-1.5 0-2.7-1.1-2.7-2.8 0-1.7 1.2-2.8 2.8-2.8 1.6 0 2.8 1.1 2.8 2.8-.1 1.7-1.3 2.8-2.9 2.8zm0-.8c.9 0 1.9-.6 1.9-2s-.9-2-1.8-2c-1 0-1.8.6-1.8 2-.1 1.4.8 2 1.7 2zM164.5 391l1.7 4.6 1.7-4.6h1l-2.1 5.5h-1.1l-2.1-5.5h.9zM172 390.9c1 0 1.7.5 2 1.1v-1h.9v5.5h-.9v-1c-.3.6-1 1.1-2 1.1-1.5 0-2.6-1.1-2.6-2.8 0-1.8 1.2-2.9 2.6-2.9zm.2.8c-1 0-1.8.7-1.8 2s.8 2 1.8 2 1.9-.7 1.9-2-.9-2-1.9-2zM181.3 389.5h1l-2.6 7h-1l-2.6-7h1l2.2 6 2-6zM183.3 389.5h1l2.6 5.7 2.6-5.7h1v6.9h-.9v-5.2l-2.3 5.2h-.6l-2.3-5.2v5.2h-.9v-6.9zM20.8 401.5h4.7v.7h-1.9v6.2h-.9v-6.2h-1.9v-.7zM26.6 401h.9v2.7c.4-.6 1-.9 1.8-.9 1.2 0 2.2.8 2.2 2.3v3.2h-.9v-3.1c0-1.1-.6-1.7-1.5-1.7s-1.6.6-1.6 1.8v3h-.9V401zM33.9 408.4H33V403h.9v.9c.3-.6.9-1 1.8-1v.9h-.2c-.9 0-1.5.4-1.5 1.7v2.9zM39.1 408.5c-1.6 0-2.7-1.1-2.7-2.8 0-1.7 1.1-2.8 2.7-2.8s2.6 1.1 2.6 2.6v.5h-4.4c.1 1.1.8 1.7 1.8 1.7.8 0 1.3-.4 1.5-1h1c-.2 1-1.1 1.8-2.5 1.8zm-1.7-3.2h3.5c0-1.1-.8-1.7-1.7-1.7-1 0-1.7.6-1.8 1.7zM44.9 408.5c-1.3 0-2.2-.7-2.2-1.7h.9c0 .5.5.9 1.3.9.7 0 1.1-.4 1.1-.8 0-1.2-3.2-.5-3.2-2.5 0-.8.8-1.5 2-1.5s2 .7 2.1 1.7H46c0-.5-.5-.9-1.2-.9s-1.1.3-1.1.8c0 1.3 3.2.6 3.2 2.5 0 .8-.8 1.5-2 1.5zM48.2 401h.9v2.7c.4-.6 1-.9 1.8-.9 1.2 0 2.2.8 2.2 2.3v3.2h-.9v-3.1c0-1.1-.6-1.7-1.5-1.7s-1.6.6-1.6 1.8v3h-.9V401zM57 408.5c-1.5 0-2.7-1.1-2.7-2.8 0-1.7 1.2-2.8 2.8-2.8 1.6 0 2.8 1.1 2.8 2.8-.1 1.7-1.4 2.8-2.9 2.8zm0-.8c.9 0 1.9-.6 1.9-2s-.9-2-1.8-2c-1 0-1.8.6-1.8 2-.1 1.4.7 2 1.7 2zM61 401h.9v7.4H61V401zM65.7 402.9c.9 0 1.6.4 2 1.1v-3h.9v7.4h-.9v-1c-.3.6-1 1.1-2 1.1-1.5 0-2.6-1.1-2.6-2.8 0-1.7 1.1-2.8 2.6-2.8zm.2.8c-1 0-1.8.7-1.8 2s.8 2 1.8 2 1.9-.7 1.9-2c-.1-1.3-.9-2-1.9-2zM76.6 402.2h-2.8v2.3h2.5v.7h-2.5v2.4h2.8v.8h-3.7v-7h3.7v.8zM82 405.3c0-1.1-.6-1.7-1.5-1.7s-1.6.6-1.6 1.8v3H78V403h.9v.8c.4-.6 1-.9 1.8-.9 1.3 0 2.2.8 2.2 2.3v3.2H82v-3.1zM86.7 402.9c1.4 0 2.2.7 2.5 1.8h-1c-.2-.7-.7-1.1-1.5-1.1-1 0-1.7.7-1.7 2 0 1.4.7 2.1 1.7 2.1.8 0 1.3-.4 1.5-1.1h1c-.3 1.1-1.2 1.8-2.5 1.8-1.6 0-2.7-1.1-2.7-2.8.1-1.6 1.2-2.7 2.7-2.7zM91.4 408.4h-.9V403h.9v.9c.3-.6.9-1 1.8-1v.9H93c-.9 0-1.5.4-1.5 1.7v2.9zM98 403h.9l-3.3 8.1h-.9l1.1-2.6-2.2-5.4h1l1.7 4.4L98 403zM102.8 402.9c1.5 0 2.6 1.1 2.6 2.8 0 1.7-1.1 2.8-2.6 2.8-1 0-1.7-.5-2-1.1v3.6h-.9v-8h.9v1c.3-.6 1-1.1 2-1.1zm-.2.8c-1 0-1.9.8-1.9 2 0 1.3.9 2 1.9 2 1 0 1.9-.8 1.9-2 0-1.3-.9-2-1.9-2zM106.8 403.7h-.7v-.7h.7v-1.4h.9v1.4h1.4v.7h-1.4v3.2c0 .5.2.7.8.7h.7v.8h-.8c-1 0-1.5-.4-1.5-1.5v-3.2zM112.6 408.5c-1.6 0-2.7-1.1-2.7-2.8 0-1.7 1.1-2.8 2.7-2.8s2.6 1.1 2.6 2.6v.5h-4.4c.1 1.1.8 1.7 1.8 1.7.8 0 1.3-.4 1.5-1h1c-.3 1-1.1 1.8-2.5 1.8zm-1.8-3.2h3.5c0-1.1-.8-1.7-1.7-1.7-.9 0-1.7.6-1.8 1.7zM118.7 402.9c.9 0 1.6.4 2 1.1v-3h.9v7.4h-.9v-1c-.3.6-1 1.1-2 1.1-1.5 0-2.6-1.1-2.6-2.8 0-1.7 1.1-2.8 2.6-2.8zm.2.8c-1 0-1.8.7-1.8 2s.8 2 1.8 2 1.9-.7 1.9-2c-.1-1.3-.9-2-1.9-2zM126.8 405.3v3.2h-.9v-7h.9v3.2l2.9-3.2h1.1l-3.2 3.5 3.2 3.5h-1.2l-2.8-3.2zM134.2 408.5c-1.6 0-2.7-1.1-2.7-2.8 0-1.7 1.1-2.8 2.7-2.8s2.6 1.1 2.6 2.6v.5h-4.4c.1 1.1.8 1.7 1.8 1.7.8 0 1.3-.4 1.5-1h1c-.2 1-1.1 1.8-2.5 1.8zm-1.8-3.2h3.5c0-1.1-.8-1.7-1.7-1.7-.9 0-1.7.6-1.8 1.7zM141.8 403h.9l-3.3 8.1h-.9l1.1-2.6-2.2-5.4h1l1.7 4.4 1.7-4.5zM148.6 408.5c-1.4 0-2.4-.8-2.4-1.9h1c.1.6.5 1.2 1.4 1.2.9 0 1.4-.5 1.4-1.2 0-1.9-3.8-.7-3.8-3.3 0-1.1.9-1.9 2.3-1.9 1.3 0 2.2.7 2.3 1.8h-1c-.1-.5-.5-1-1.3-1-.7 0-1.3.4-1.3 1.1 0 1.8 3.8.7 3.8 3.3-.1.9-.9 1.9-2.4 1.9zM152.4 403.7h-.7v-.7h.7v-1.4h.9v1.4h1.4v.7h-1.4v3.2c0 .5.2.7.8.7h.7v.8h-.8c-1 0-1.5-.4-1.5-1.5v-3.2zM158.2 408.5c-1.5 0-2.7-1.1-2.7-2.8 0-1.7 1.2-2.8 2.8-2.8 1.6 0 2.8 1.1 2.8 2.8 0 1.7-1.3 2.8-2.9 2.8zm0-.8c.9 0 1.9-.6 1.9-2s-.9-2-1.8-2c-1 0-1.8.6-1.8 2-.1 1.4.8 2 1.7 2zM163.2 408.4h-.9V403h.9v.9c.3-.6.9-1 1.8-1v.9h-.2c-.9 0-1.5.4-1.5 1.7v2.9zM168.2 402.9c1 0 1.7.5 2 1.1v-1h.9v5.5h-.9v-1c-.3.6-1 1.1-2 1.1-1.5 0-2.6-1.1-2.6-2.8 0-1.8 1.2-2.9 2.6-2.9zm.2.8c-1 0-1.8.7-1.8 2s.8 2 1.8 2 1.9-.7 1.9-2-.9-2-1.9-2zM175 402.9c1 0 1.7.5 2 1.1v-1h.9v5.6c0 1.5-1 2.6-2.6 2.6-1.4 0-2.5-.7-2.6-1.9h.9c.2.7.8 1.1 1.7 1.1 1 0 1.7-.6 1.7-1.8v-1.1c-.3.6-1 1.1-2 1.1-1.5 0-2.6-1.1-2.6-2.8 0-1.8 1.1-2.9 2.6-2.9zm.2.8c-1 0-1.8.7-1.8 2s.8 2 1.8 2 1.9-.7 1.9-2c-.1-1.3-.9-2-1.9-2zM181.9 408.5c-1.6 0-2.7-1.1-2.7-2.8 0-1.7 1.1-2.8 2.7-2.8s2.6 1.1 2.6 2.6v.5h-4.4c.1 1.1.8 1.7 1.8 1.7.8 0 1.3-.4 1.5-1h1c-.3 1-1.2 1.8-2.5 1.8zm-1.8-3.2h3.5c0-1.1-.8-1.7-1.7-1.7-1 0-1.7.6-1.8 1.7zM190.8 408.5c-1.5 0-2.7-1.1-2.7-2.8 0-1.7 1.2-2.8 2.8-2.8 1.6 0 2.8 1.1 2.8 2.8-.1 1.7-1.4 2.8-2.9 2.8zm0-.8c.9 0 1.9-.6 1.9-2s-.9-2-1.8-2c-1 0-1.8.6-1.8 2-.1 1.4.7 2 1.7 2zM198.8 405.3c0-1.1-.6-1.7-1.5-1.7s-1.6.6-1.6 1.8v3h-.9V403h.9v.8c.4-.6 1-.9 1.8-.9 1.3 0 2.2.8 2.2 2.3v3.2h-.9v-3.1zM206 401.4c1.5 0 2.7.8 3.2 2.1h-1.1c-.4-.8-1.1-1.3-2.1-1.3-1.5 0-2.5 1.1-2.5 2.8 0 1.7 1.1 2.8 2.5 2.8 1 0 1.8-.5 2.1-1.3h1.1a3.3 3.3 0 0 1-3.2 2.1c-1.9 0-3.5-1.5-3.5-3.5s1.6-3.7 3.5-3.7zM213.8 408.5c-2 0-3.5-1.5-3.5-3.6s1.5-3.6 3.5-3.6 3.5 1.5 3.5 3.6-1.6 3.6-3.5 3.6zm0-.8c1.5 0 2.6-1.1 2.6-2.8 0-1.7-1.1-2.8-2.6-2.8s-2.6 1.1-2.6 2.8c0 1.7 1.1 2.8 2.6 2.8zM223.3 401.5h1l-2.6 7h-1l-2.6-7h1l2.2 6 2-6zM229.3 406.9h-3l-.6 1.5h-1l2.5-6.9h1l2.5 6.9h-1l-.4-1.5zm-1.5-4.3l-1.3 3.5h2.5l-1.2-3.5z"/>
    <path d="M237.5 405.1c0-.9.7-1.7 1.7-1.7.9 0 1.7.7 1.7 1.7 0 .9-.7 1.7-1.7 1.7-.9 0-1.7-.8-1.7-1.7z" class="st4"/>
  </g>
  <g>
    <path d="M53.7 506.3h6.5v1.6H58v6.8h-2v-6.8h-2.2v-1.6zM66.4 507.9h-3.1v1.7H66v1.6h-2.7v1.8h3.1v1.6h-5.2v-8.4h5.2v1.7zM72.9 507.9h-3.1v1.7h2.7v1.6h-2.7v1.8h3.1v1.6h-5.2v-8.4h5.2v1.7zM84.7 509h-2.3c-.3-.6-.9-.9-1.7-.9-1.3 0-2.2.9-2.2 2.4 0 1.6.9 2.5 2.4 2.5 1 0 1.7-.5 2-1.5h-2.6V510h4.5v1.9c-.4 1.5-1.8 2.9-4.1 2.9-2.5 0-4.3-1.8-4.3-4.3s1.8-4.3 4.3-4.3c2.1 0 3.5 1 4 2.8zM89 514.8c-2 0-3.5-1.3-3.5-3.4 0-2.1 1.5-3.4 3.5-3.4s3.5 1.3 3.5 3.4c0 2.1-1.5 3.4-3.5 3.4zm0-1.8c.7 0 1.4-.5 1.4-1.7 0-1.1-.7-1.7-1.4-1.7s-1.4.5-1.4 1.7.7 1.7 1.4 1.7zM96.3 514.8c-1.8 0-3-1-3.1-2.3h2c0 .5.5.8 1 .8s.8-.2.8-.5c0-1.1-3.6-.3-3.6-2.8 0-1.1 1-2.1 2.7-2.1 1.7 0 2.7 1 2.8 2.3H97c-.1-.5-.4-.8-1-.8-.5 0-.7.2-.7.5 0 1.1 3.6.3 3.7 2.8 0 1.2-1 2.1-2.7 2.1zM103 514.8c-1.8 0-3-1-3.1-2.3h2c0 .5.5.8 1 .8s.8-.2.8-.5c0-1.1-3.6-.3-3.6-2.8 0-1.1 1-2.1 2.7-2.1 1.7 0 2.7 1 2.8 2.3h-1.9c-.1-.5-.4-.8-1-.8-.5 0-.7.2-.7.5 0 1.1 3.6.3 3.7 2.8 0 1.2-1 2.1-2.7 2.1zM106.8 506.2c0-.6.5-1.1 1.2-1.1s1.2.5 1.2 1.1c0 .6-.5 1.1-1.2 1.1s-1.2-.5-1.2-1.1zm.2 1.8h2.1v6.7H107V508zM114.6 507.9c1.6 0 3 1.3 3 3.4 0 2.1-1.3 3.5-3 3.5-1 0-1.7-.5-2.1-1v4.1h-2.1V508h2.1v.9a3 3 0 0 1 2.1-1zm-.6 1.8c-.8 0-1.5.6-1.5 1.7s.7 1.7 1.5 1.7 1.5-.6 1.5-1.7-.7-1.7-1.5-1.7zM128.8 506.3v8.4h-2.1l-3.4-5.2v5.2h-2.1v-8.4h2.1l3.4 5.2v-5.2h2.1zM133.2 514.8c-2 0-3.4-1.3-3.4-3.4 0-2.1 1.4-3.4 3.4-3.4s3.3 1.3 3.3 3.3v.6h-4.6c.1.9.6 1.3 1.3 1.3.6 0 .9-.3 1.1-.6h2.2c-.4 1.2-1.6 2.2-3.3 2.2zm-1.3-4.1h2.6c0-.7-.6-1.2-1.3-1.2-.7.1-1.2.5-1.3 1.2zM138 509.7h-.8V508h.8v-1.6h2.1v1.6h1.3v1.7H140v2.7c0 .4.2.6.6.6h.7v1.7h-1c-1.4 0-2.4-.6-2.4-2.3v-2.7zM141.8 508h2.1l.9 4.8 1.1-4.8h2.2l1.1 4.8.9-4.8h1.9l-1.8 6.7H148l-1.1-4.3-1.1 4.3h-2.3l-1.7-6.7zM155.9 514.8c-2 0-3.5-1.3-3.5-3.4 0-2.1 1.5-3.4 3.5-3.4s3.5 1.3 3.5 3.4c0 2.1-1.5 3.4-3.5 3.4zm0-1.8c.7 0 1.4-.5 1.4-1.7 0-1.1-.7-1.7-1.4-1.7s-1.4.5-1.4 1.7c.1 1.2.7 1.7 1.4 1.7zM162.6 514.7h-2.1V508h2.1v1.1c.5-.7 1.2-1.2 2.1-1.2v2.2h-.6c-1 0-1.5.3-1.5 1.5v3.1zM165.7 505.8h2.1v4.9l2-2.7h2.5l-2.8 3.4 2.8 3.3h-2.5l-2-2.8v2.8h-2.1v-8.9zM177.7 506.3v6.8h2.7v1.6h-4.7v-8.4h2zM183.9 507.9c1 0 1.7.5 2.1 1v-.9h2.1v6.7H186v-.9c-.4.6-1.1 1-2.1 1-1.6 0-2.9-1.3-2.9-3.5 0-2.1 1.3-3.4 2.9-3.4zm.6 1.8c-.8 0-1.5.6-1.5 1.6s.7 1.7 1.5 1.7 1.5-.6 1.5-1.7-.7-1.6-1.5-1.6zM194.1 508h2.2l-4.2 9.9h-2.2l1.5-3.4-2.7-6.5h2.3l1.5 4.2 1.6-4.2zM200.1 514.8c-2 0-3.4-1.3-3.4-3.4 0-2.1 1.4-3.4 3.4-3.4s3.3 1.3 3.3 3.3v.6h-4.6c.1.9.6 1.3 1.3 1.3.6 0 .9-.3 1.1-.6h2.2c-.5 1.2-1.7 2.2-3.3 2.2zm-1.4-4.1h2.6c0-.7-.6-1.2-1.3-1.2-.6.1-1.1.5-1.3 1.2zM206.5 514.7h-2.1V508h2.1v1.1c.5-.7 1.2-1.2 2.1-1.2v2.2h-.6c-1 0-1.5.3-1.5 1.5v3.1z"/>
  </g>
  <g>
    <path d="M60.2 532.6h-1.3v2.9H58v-7h2.2c1.6 0 2.4.9 2.4 2s-.7 2.1-2.4 2.1zm0-.8c1 0 1.5-.5 1.5-1.3s-.4-1.3-1.5-1.3h-1.3v2.6h1.3zM66.1 535.6c-1.6 0-2.7-1.1-2.7-2.8 0-1.7 1.1-2.8 2.7-2.8s2.6 1.1 2.6 2.6v.5h-4.4c.1 1.1.8 1.7 1.8 1.7.8 0 1.3-.4 1.5-1h1c-.3 1-1.2 1.8-2.5 1.8zm-1.8-3.3h3.5c0-1.1-.8-1.7-1.7-1.7-.9.1-1.7.7-1.8 1.7zM70.8 535.5h-.9V530h.9v.9c.3-.6.9-1 1.8-1v.9h-.2c-.9 0-1.5.4-1.5 1.7v3zM75.6 535.6c-1.3 0-2.2-.7-2.2-1.7h.9c0 .5.5.9 1.3.9.7 0 1.1-.4 1.1-.8 0-1.2-3.2-.5-3.2-2.5 0-.8.8-1.5 2-1.5s2 .7 2.1 1.7h-.9c0-.5-.5-.9-1.2-.9s-1.1.3-1.1.8c0 1.3 3.2.6 3.2 2.5 0 .8-.8 1.5-2 1.5zM78.7 528.5c0-.3.3-.6.6-.6s.6.3.6.6-.3.6-.6.6-.6-.3-.6-.6zm.2 1.5h.9v5.5h-.9V530zM83.3 535.6c-1.3 0-2.2-.7-2.2-1.7h.9c0 .5.5.9 1.3.9.7 0 1.1-.4 1.1-.8 0-1.2-3.2-.5-3.2-2.5 0-.8.8-1.5 2-1.5s2 .7 2.1 1.7h-.9c0-.5-.5-.9-1.2-.9s-1.1.3-1.1.8c0 1.3 3.2.6 3.2 2.5 0 .8-.8 1.5-2 1.5zM86.7 530.7H86v-.7h.7v-1.4h.9v1.4H89v.7h-1.4v3.2c0 .5.2.7.8.7h.7v.8h-.8c-1 0-1.5-.4-1.5-1.5v-3.2zM92.6 535.6c-1.6 0-2.7-1.1-2.7-2.8 0-1.7 1.1-2.8 2.7-2.8s2.6 1.1 2.6 2.6v.5h-4.4c.1 1.1.8 1.7 1.8 1.7.8 0 1.3-.4 1.5-1h1c-.3 1-1.2 1.8-2.5 1.8zm-1.8-3.3h3.5c0-1.1-.8-1.7-1.7-1.7-1 .1-1.7.7-1.8 1.7zM100.4 532.4c0-1.1-.6-1.7-1.5-1.7s-1.6.6-1.6 1.8v3h-.9V530h.9v.8c.4-.6 1-.9 1.8-.9 1.3 0 2.2.8 2.2 2.3v3.2h-.9v-3zM103 530.7h-.7v-.7h.7v-1.4h.9v1.4h1.4v.7h-1.4v3.2c0 .5.2.7.8.7h.7v.8h-.8c-1 0-1.5-.4-1.5-1.5v-3.2zM111.4 529.9c1 0 1.7.5 2 1.1v-1h.9v5.5h-.9v-1c-.3.6-1 1.1-2 1.1-1.5 0-2.6-1.1-2.6-2.8 0-1.8 1.1-2.9 2.6-2.9zm.1.8c-1 0-1.8.7-1.8 2s.8 2 1.8 2 1.9-.7 1.9-2-.9-2-1.9-2zM119.9 532.4c0-1.1-.6-1.7-1.5-1.7s-1.6.6-1.6 1.8v3h-.9V530h.9v.8c.4-.6 1-.9 1.8-.9 1.3 0 2.2.8 2.2 2.3v3.2h-.9v-3zM124.5 529.9c.9 0 1.6.4 2 1.1v-2.9h.9v7.4h-.9v-1c-.3.6-1 1.1-2 1.1-1.5 0-2.6-1.1-2.6-2.8 0-1.8 1.1-2.9 2.6-2.9zm.2.8c-1 0-1.8.7-1.8 2s.8 2 1.8 2 1.9-.7 1.9-2-.9-2-1.9-2zM134.6 529.9c1.5 0 2.6 1.1 2.6 2.8 0 1.7-1.1 2.8-2.6 2.8-1 0-1.7-.5-2-1.1v3.6h-.9v-8h.9v1c.3-.6 1-1.1 2-1.1zm-.1.8c-1 0-1.9.8-1.9 2 0 1.3.9 2 1.9 2 1 0 1.9-.8 1.9-2-.1-1.3-.9-2-1.9-2zM140.8 535.6c-1.6 0-2.7-1.1-2.7-2.8 0-1.7 1.1-2.8 2.7-2.8s2.6 1.1 2.6 2.6v.5H139c.1 1.1.8 1.7 1.8 1.7.8 0 1.3-.4 1.5-1h1c-.2 1-1.1 1.8-2.5 1.8zm-1.8-3.3h3.5c0-1.1-.8-1.7-1.7-1.7-.9.1-1.7.7-1.8 1.7zM145.6 535.5h-.9V530h.9v.9c.3-.6.9-1 1.8-1v.9h-.2c-.9 0-1.5.4-1.5 1.7v3zM156.3 532.4c0-1.1-.6-1.7-1.5-1.7s-1.5.6-1.5 1.8v3h-.9v-3.1c0-1.1-.6-1.7-1.5-1.7s-1.5.6-1.5 1.8v3h-.9V530h.9v.8c.4-.6 1-.9 1.7-.9.9 0 1.6.4 2 1.2.3-.8 1.1-1.2 1.9-1.2 1.2 0 2.2.8 2.2 2.3v3.2h-.9v-3zM158.5 528.5c0-.3.3-.6.6-.6s.6.3.6.6-.3.6-.6.6-.6-.3-.6-.6zm.2 1.5h.9v5.5h-.9V530zM163.1 535.6c-1.3 0-2.2-.7-2.2-1.7h.9c0 .5.5.9 1.3.9.7 0 1.1-.4 1.1-.8 0-1.2-3.2-.5-3.2-2.5 0-.8.8-1.5 2-1.5s2 .7 2.1 1.7h-.9c0-.5-.5-.9-1.2-.9s-1.1.3-1.1.8c0 1.3 3.2.6 3.2 2.5 0 .8-.8 1.5-2 1.5zM168.3 535.6c-1.3 0-2.2-.7-2.2-1.7h.9c0 .5.5.9 1.3.9.7 0 1.1-.4 1.1-.8 0-1.2-3.2-.5-3.2-2.5 0-.8.8-1.5 2-1.5s2 .7 2.1 1.7h-.9c0-.5-.5-.9-1.2-.9s-1.1.3-1.1.8c0 1.3 3.2.6 3.2 2.5 0 .8-.8 1.5-2 1.5zM171.4 528.5c0-.3.3-.6.6-.6s.6.3.6.6-.3.6-.6.6-.6-.3-.6-.6zm.2 1.5h.9v5.5h-.9V530zM176.4 535.6c-1.5 0-2.7-1.1-2.7-2.8 0-1.7 1.2-2.8 2.8-2.8 1.6 0 2.8 1.1 2.8 2.8-.1 1.7-1.3 2.8-2.9 2.8zm0-.8c.9 0 1.9-.6 1.9-2s-.9-2-1.8-2c-1 0-1.8.6-1.8 2-.1 1.3.8 2 1.7 2zM184.4 532.4c0-1.1-.6-1.7-1.5-1.7s-1.6.6-1.6 1.8v3h-.9V530h.9v.8c.4-.6 1-.9 1.8-.9 1.3 0 2.2.8 2.2 2.3v3.2h-.9v-3zM186.8 528.1h.9v7.4h-.9v-7.4zM191.7 535.6c-1.6 0-2.7-1.1-2.7-2.8 0-1.7 1.1-2.8 2.7-2.8s2.6 1.1 2.6 2.6v.5h-4.4c.1 1.1.8 1.7 1.8 1.7.8 0 1.3-.4 1.5-1h1c-.3 1-1.2 1.8-2.5 1.8zm-1.8-3.3h3.5c0-1.1-.8-1.7-1.7-1.7-1 .1-1.7.7-1.8 1.7zM197.4 535.6c-1.3 0-2.2-.7-2.2-1.7h.9c0 .5.5.9 1.3.9.7 0 1.1-.4 1.1-.8 0-1.2-3.2-.5-3.2-2.5 0-.8.8-1.5 2-1.5s2 .7 2.1 1.7h-.9c0-.5-.5-.9-1.2-.9s-1.1.3-1.1.8c0 1.3 3.2.6 3.2 2.5 0 .8-.8 1.5-2 1.5zM202.7 535.6c-1.3 0-2.2-.7-2.2-1.7h.9c0 .5.5.9 1.3.9.7 0 1.1-.4 1.1-.8 0-1.2-3.2-.5-3.2-2.5 0-.8.8-1.5 2-1.5s2 .7 2.1 1.7h-.9c0-.5-.5-.9-1.2-.9s-1.1.3-1.1.8c0 1.3 3.2.6 3.2 2.5 0 .8-.8 1.5-2 1.5zM85.5 541.9c1.4 0 2.2.7 2.5 1.8h-1c-.2-.7-.7-1.1-1.5-1.1-1 0-1.7.7-1.7 2 0 1.4.7 2.1 1.7 2.1.8 0 1.3-.4 1.5-1.1h1c-.3 1.1-1.2 1.8-2.5 1.8-1.6 0-2.7-1.1-2.7-2.8 0-1.6 1.1-2.7 2.7-2.7zM91.6 547.6c-1.5 0-2.7-1.1-2.7-2.8 0-1.7 1.2-2.8 2.8-2.8 1.6 0 2.8 1.1 2.8 2.8-.1 1.7-1.3 2.8-2.9 2.8zm0-.8c.9 0 1.9-.6 1.9-2s-.9-2-1.8-2c-1 0-1.8.6-1.8 2-.1 1.3.8 2 1.7 2zM103.5 544.4c0-1.1-.6-1.7-1.5-1.7s-1.5.6-1.5 1.8v3h-.9v-3.1c0-1.1-.6-1.7-1.5-1.7s-1.5.6-1.5 1.8v3h-.9V542h.9v.8c.4-.6 1-.9 1.7-.9.9 0 1.6.4 2 1.2.3-.8 1.1-1.2 1.9-1.2 1.3 0 2.2.8 2.2 2.3v3.2h-.9v-3zM108.9 541.9c1.5 0 2.6 1.1 2.6 2.8 0 1.7-1.1 2.8-2.6 2.8-1 0-1.7-.5-2-1.1v3.6h-.9v-8h.9v1c.3-.6 1-1.1 2-1.1zm-.2.8c-1 0-1.9.8-1.9 2 0 1.3.9 2 1.9 2 1 0 1.9-.8 1.9-2-.1-1.3-.9-2-1.9-2zM117.5 547.5h-.9v-.8c-.4.6-1 .9-1.7.9-1.3 0-2.2-.8-2.2-2.3V542h.9v3.1c0 1.1.6 1.7 1.5 1.7s1.6-.6 1.6-1.8v-3h.9v5.5zM119.3 542.7h-.7v-.7h.7v-1.4h.9v1.4h1.4v.7h-1.4v3.2c0 .5.2.7.8.7h.7v.8h-.8c-1 0-1.5-.4-1.5-1.5v-3.2zM122.6 540.5c0-.3.3-.6.6-.6s.6.3.6.6-.3.6-.6.6c-.4 0-.6-.3-.6-.6zm.1 1.5h.9v5.5h-.9V542zM129.2 544.4c0-1.1-.6-1.7-1.5-1.7s-1.6.6-1.6 1.8v3h-.9V542h.9v.8c.4-.6 1-.9 1.8-.9 1.3 0 2.2.8 2.2 2.3v3.2h-.9v-3zM133.8 541.9c1 0 1.7.5 2 1.1v-1h.9v5.6c0 1.5-1 2.6-2.6 2.6-1.4 0-2.5-.7-2.6-1.9h.9c.2.7.8 1.1 1.7 1.1 1 0 1.7-.6 1.7-1.8v-1.1c-.3.6-1 1.1-2 1.1-1.5 0-2.6-1.1-2.6-2.8 0-1.8 1.2-2.9 2.6-2.9zm.2.8c-1 0-1.8.7-1.8 2s.8 2 1.8 2 1.9-.7 1.9-2-.9-2-1.9-2zM145 544.4c0-1.1-.6-1.7-1.5-1.7s-1.6.6-1.6 1.8v3h-.9V542h.9v.8c.4-.6 1-.9 1.8-.9 1.3 0 2.2.8 2.2 2.3v3.2h-.9v-3zM149.8 547.6c-1.6 0-2.7-1.1-2.7-2.8 0-1.7 1.1-2.8 2.7-2.8s2.6 1.1 2.6 2.6v.5H148c.1 1.1.8 1.7 1.8 1.7.8 0 1.3-.4 1.5-1h1c-.3 1-1.2 1.8-2.5 1.8zm-1.8-3.3h3.5c0-1.1-.8-1.7-1.7-1.7-1 .1-1.7.7-1.8 1.7zM153.8 542.7h-.7v-.7h.7v-1.4h.9v1.4h1.4v.7h-1.4v3.2c0 .5.2.7.8.7h.7v.8h-.8c-1 0-1.5-.4-1.5-1.5v-3.2zM156.6 542h.9l1.3 4.6 1.4-4.6h.9l1.3 4.6 1.2-4.6h.9l-1.7 5.5h-.9l-1.3-4.3-1.3 4.3h-.9l-1.8-5.5zM167.8 547.6c-1.5 0-2.7-1.1-2.7-2.8 0-1.7 1.2-2.8 2.8-2.8 1.6 0 2.8 1.1 2.8 2.8-.1 1.7-1.3 2.8-2.9 2.8zm0-.8c.9 0 1.9-.6 1.9-2s-.9-2-1.8-2c-1 0-1.8.6-1.8 2-.1 1.3.8 2 1.7 2zM172.8 547.5h-.9V542h.9v.9c.3-.6.9-1 1.8-1v.9h-.2c-.9 0-1.5.4-1.5 1.7v3zM175.6 540.1h.9v4.3l2.1-2.4h1.3l-2.6 2.7 2.6 2.7h-1.2l-2.1-2.4v2.4h-.9v-7.3z"/>
  </g>
  <g>
    <path d="M149.9 324h-8.5c-.3 0-.6.3-.6.6s.3.6.6.6h8.5c.4 0 .7.3.7.7v23.3c0 .4-.3.7-.7.7h-37.5c-.4 0-.7-.3-.7-.7v-23.3c0-.4.3-.7.7-.7h13.3v1.2h-12.1c-.3 0-.6.3-.6.6v16c0 .3.3.6.6.6s.6-.3.6-.6v-15.4h11.5v3.2l-2.6 1.2c-.2.1-.3.3-.3.5v9.9c0 .2.1.4.3.5l7.8 3.7c.2.1.4.1.5 0l4.4-2.1c.3-.1.4-.5.3-.8-.1-.3-.5-.4-.8-.3l-3.5 1.7v-8.5l6.6-3.2v8.5l-.9.4c-.3.1-.4.5-.3.8.1.3.5.4.8.3l1.2-.6c.2-.1.3-.3.3-.5v-9.9c0-.2-.1-.4-.3-.5l-2.6-1.2v-3.2h11.5v19.7h-34v-1.8c0-.3-.3-.6-.6-.6s-.6.3-.6.6v2.4c0 .3.3.6.6.6h35.2c.3 0 .6-.3.6-.6v-21c0-.3-.3-.6-.6-.6h-12.1V325h2.2c.3 0 .6-.3.6-.6s-.3-.6-.6-.6h-2.2v-1.2h5.4c.3 0 .6-.3.6-.6v-1.4c.7-.2 1.2-.9 1.2-1.7 0-1-.8-1.8-1.8-1.8s-1.8.8-1.8 1.8c0 .8.5 1.5 1.2 1.7v.8H136c-.3 0-.6.3-.6.6v1.8h-3.7v-3.2c.7-.2 1.2-.9 1.2-1.7 0-1-.8-1.8-1.8-1.8s-1.8.8-1.8 1.8c0 .8.5 1.5 1.2 1.7v3.2h-3.7V322c0-.3-.3-.6-.6-.6h-5.4v-.8c.7-.2 1.2-.9 1.2-1.7 0-1-.8-1.8-1.8-1.8s-1.8.8-1.8 1.8c0 .8.5 1.5 1.2 1.7v1.4c0 .3.3.6.6.6h5.4v1.2h-13.3c-1 0-1.9.8-1.9 1.9V349c0 1 .8 1.9 1.9 1.9h13.1c-.2 2.2-1.7 3.5-2.2 3.9h-2.6c-1 0-1.8.8-1.8 1.8s.8 1.8 1.8 1.8h20.8c1 0 1.8-.8 1.8-1.8s-.8-1.8-1.8-1.8H139c-.5-.4-1.9-1.7-2.2-3.9h13.1c1 0 1.9-.8 1.9-1.9v-23.3c0-.9-.8-1.7-1.9-1.7zm-7.8-5.6c.3 0 .6.3.6.6s-.3.6-.6.6-.6-.3-.6-.6.2-.6.6-.6zm-10.9 0c.3 0 .6.3.6.6s-.3.6-.6.6-.6-.3-.6-.6.2-.6.6-.6zm-10.9 0c.3 0 .6.3.6.6s-.3.6-.6.6-.6-.3-.6-.6.2-.6.6-.6zm6.6 9.2h3.7v.9l-3.7 1.8v-2.7zm10.7 5l-6.4 3.1-6.4-3.1 6.4-3.1 6.4 3.1zm-13.7 1l6.6 3.2v8.5l-6.6-3.2v-8.5zm11.5-3.3l-3.7-1.8v-.9h3.7v2.7zm0-5.1v1.2h-3.7v-1.2h3.7zm-4.8 0v1.2h-3.7v-1.2h3.7zm11.6 31.5c0 .3-.3.6-.6.6h-20.8c-.3 0-.6-.3-.6-.6s.3-.6.6-.6h20.8c.3 0 .6.2.6.6zm-4.9-1.9h-12.2c.7-.8 1.5-2.1 1.6-3.9h8.9c.2 1.8 1 3.1 1.7 3.9zm0 0" class="st5"/>
  </g>
  <g>
    <path d="M131.2 285.3c-.5 0-.8.1-.8.3v17.1h1.6v-17.1c0-.1-.4-.3-.8-.3z" class="st5"/>
    <path d="M131.2 299.6c-.3 0-.7 0-1 .1-1.5.4-2.6 1.8-2.6 3.4 0 2 1.6 3.6 3.6 3.6s3.6-1.6 3.6-3.6c0-1.6-1.1-3-2.6-3.4-.4-.1-.7-.1-1-.1zM131.2 281.8c-.3 0-.7 0-1 .1-1.5.4-2.6 1.8-2.6 3.4 0 2 1.6 3.6 3.6 3.6s3.6-1.6 3.6-3.6c0-1.6-1.1-3-2.6-3.4-.4-.1-.7-.1-1-.1z" class="st5"/>
  </g>
  <g>
    <path d="M131.2 425.2c-.5 0-.8.1-.8.3v17.1h1.6v-17.1c0-.1-.4-.3-.8-.3z" class="st3"/>
    <path d="M131.2 439.4c-.3 0-.7 0-1 .1-1.5.4-2.6 1.8-2.6 3.4 0 2 1.6 3.6 3.6 3.6s3.6-1.6 3.6-3.6c0-1.6-1.1-3-2.6-3.4-.4 0-.7-.1-1-.1zM131.2 421.7c-.3 0-.7 0-1 .1-1.5.4-2.6 1.8-2.6 3.4 0 2 1.6 3.6 3.6 3.6s3.6-1.6 3.6-3.6c0-1.6-1.1-3-2.6-3.4-.4-.1-.7-.1-1-.1z" class="st3"/>
  </g>
</svg>
